# This file uses centimeters as units for non-parametric coordinates.

g default
v 0.000000 0.000000 0.204579
v 0.000000 33.091808 0.109338
v -0.401513 33.091808 0.000000
v 0.000000 33.091808 -0.109338
v -0.750038 0.000000 -0.203046
v 0.000000 0.000000 -0.204578
v -0.000000 36.749233 0.000000
v 0.000000 -0.000002 0.079270
v -0.348224 -0.000002 0.000000
v 0.000000 -0.000002 -0.079270
v 0.000000 -4.440876 0.038729
v -0.217460 -4.440876 0.000000
v 0.000000 -4.440876 -0.038729
v -0.878418 2.946718 0.000000
v 0.000000 2.946770 0.203046
v 0.000000 2.946770 -0.203046
v -0.878418 2.800223 -0.203046
v 0.000000 30.488138 0.134546
v -0.512116 30.488136 0.000000
v 0.000000 30.488138 -0.134546
v -0.750038 0.000000 0.203394
v -0.878418 2.800223 0.202690
v -0.741413 2.507204 0.202697
v -0.741413 2.507204 -0.203046
v -0.878418 2.672294 0.202704
v -0.878418 2.672294 -0.203046
v 0.401513 33.091808 0.000000
v 0.750038 0.000000 -0.203046
v 0.348224 -0.000002 0.000000
v 0.217460 -4.440876 0.000000
v 0.878418 2.946718 0.000000
v 0.878418 2.800223 -0.203046
v 0.512116 30.488136 0.000000
v 0.750038 0.000000 0.203394
v 0.878418 2.800223 0.202690
v 0.741413 2.507204 0.202697
v 0.741413 2.507204 -0.203046
v 0.878418 2.672294 0.202704
v 0.878418 2.672294 -0.203046
vt 0.500000 1.000000
vt 0.500000 0.911206
vt 0.271457 0.911206
vt 0.500000 0.911206
vt 0.500000 0.107814
vt 0.073075 0.107814
vt 0.073075 0.107814
vt 0.301789 0.107814
vt 0.500000 0.107814
vt 0.500000 0.107814
vt 0.500000 0.107814
vt 0.376221 0.000000
vt 0.500000 0.000000
vt 0.500000 0.000000
vt 0.077984 0.168683
vt 0.500000 0.179355
vt 0.077984 0.168683
vt 0.500000 0.179355
vt 0.000000 0.172691
vt 0.500000 0.847995
vt 0.208501 0.847995
vt 0.500000 0.847995
vt 0.000000 0.172691
vt 0.000000 0.175797
vt 0.000000 0.179354
vt 0.000000 0.175797
vt 0.728543 0.911206
vt 0.698211 0.107814
vt 0.926925 0.107814
vt 0.926925 0.107814
vt 0.623779 0.000000
vt 0.922016 0.168683
vt 0.922016 0.168683
vt 1.000000 0.172691
vt 0.791499 0.847995
vt 1.000000 0.172691
vt 1.000000 0.175797
vt 1.000000 0.179354
vt 1.000000 0.175797
vn -0.262638 0.028833 -0.964464
vn -0.262638 0.028833 -0.964464
vn -0.262638 0.028833 -0.964464
vn -0.262638 0.028832 0.964464
vn -0.262638 0.028833 0.964464
vn -0.262638 0.028832 0.964464
vn -0.000002 -1.000000 0.000005
vn -0.000002 -1.000000 0.000005
vn -0.000002 -1.000000 0.000005
vn -0.000002 -1.000000 0.000005
vn -0.000002 -1.000000 0.000005
vn -0.000001 -1.000000 -0.000009
vn -0.000001 -1.000000 -0.000009
vn -0.000001 -1.000000 -0.000009
vn -0.000001 -1.000000 -0.000009
vn -0.204193 -0.007475 0.978902
vn -0.204193 -0.007475 0.978902
vn -0.204193 -0.007475 0.978902
vn -0.204193 -0.007475 0.978902
vn -0.204193 -0.007475 -0.978902
vn -0.204193 -0.007475 -0.978902
vn -0.204193 -0.007475 -0.978902
vn -0.204193 -0.007475 -0.978902
vn -0.001149 0.000411 0.999999
vn -0.001149 0.000411 0.999999
vn -0.001149 0.000411 0.999999
vn -0.001149 0.000411 0.999999
vn -0.001111 0.000283 -0.999999
vn -0.001111 0.000283 -0.999999
vn -0.001111 0.000283 -0.999999
vn -0.001111 0.000283 -0.999999
vn -0.999994 0.003440 0.000000
vn -0.999994 0.003440 0.000000
vn -0.999994 0.003440 0.000000
vn -0.999994 0.003440 0.000000
vn 0.000000 0.000000 -1.000000
vn 0.000000 0.000000 -1.000000
vn 0.000000 0.000000 -1.000000
vn -0.257896 0.010154 0.966119
vn -0.257896 0.010154 0.966119
vn -0.257896 0.010154 0.966119
vn -0.257896 0.010154 0.966119
vn -0.257896 0.010154 -0.966119
vn -0.257896 0.010154 -0.966119
vn -0.257896 0.010154 -0.966119
vn -0.257896 0.010154 -0.966119
vn -0.000298 -0.000290 1.000000
vn -0.000298 -0.000290 1.000000
vn -0.000298 -0.000290 1.000000
vn -0.769526 -0.638616 0.000000
vn -0.769526 -0.638616 0.000000
vn -0.769526 -0.638616 0.000000
vn -0.769526 -0.638616 0.000000
vn 0.000000 0.000000 -1.000000
vn 0.000000 0.000000 -1.000000
vn 0.000000 0.000000 -1.000000
vn -0.235924 0.002777 -0.971767
vn -0.235924 0.002777 -0.971768
vn -0.235924 0.002777 -0.971768
vn -0.235924 0.002777 -0.971768
vn -0.235924 0.002777 0.971768
vn -0.235924 0.002777 0.971767
vn -0.235924 0.002777 0.971768
vn -0.235924 0.002777 0.971768
vn -1.000000 0.000000 0.000000
vn -1.000000 0.000000 0.000000
vn -1.000000 0.000000 0.000000
vn -0.000423 0.000109 1.000000
vn -0.000423 0.000109 1.000000
vn -0.000423 0.000109 1.000000
vn -1.000000 -0.000000 0.000000
vn -1.000000 -0.000000 0.000000
vn -1.000000 -0.000000 0.000000
vn -1.000000 -0.000000 0.000000
vn -0.134223 0.803142 0.580472
vn -0.134223 0.803142 0.580472
vn -0.134223 0.803142 0.580472
vn -0.134072 0.803641 -0.579816
vn -0.134072 0.803641 -0.579816
vn -0.134072 0.803641 -0.579816
vn -0.262638 0.028833 -0.964464
vn -0.262638 0.028833 -0.964464
vn -0.262638 0.028833 -0.964464
vn -0.262638 0.028832 0.964464
vn -0.262638 0.028833 0.964464
vn -0.262638 0.028832 0.964464
vn -0.000002 -1.000000 0.000005
vn -0.000002 -1.000000 0.000005
vn -0.000002 -1.000000 0.000005
vn -0.000002 -1.000000 0.000005
vn -0.000002 -1.000000 0.000005
vn -0.000001 -1.000000 -0.000009
vn -0.000001 -1.000000 -0.000009
vn -0.000001 -1.000000 -0.000009
vn -0.000001 -1.000000 -0.000009
vn -0.204193 -0.007475 0.978902
vn -0.204193 -0.007475 0.978902
vn -0.204193 -0.007475 0.978902
vn -0.204193 -0.007475 0.978902
vn -0.204193 -0.007475 -0.978902
vn -0.204193 -0.007475 -0.978902
vn -0.204193 -0.007475 -0.978902
vn -0.204193 -0.007475 -0.978902
vn -0.001149 0.000411 0.999999
vn -0.001149 0.000411 0.999999
vn -0.001149 0.000411 0.999999
vn -0.001149 0.000411 0.999999
vn -0.001111 0.000283 -0.999999
vn -0.001111 0.000283 -0.999999
vn -0.001111 0.000283 -0.999999
vn -0.001111 0.000283 -0.999999
vn -0.999994 0.003440 0.000000
vn -0.999994 0.003440 0.000000
vn -0.999994 0.003440 0.000000
vn -0.999994 0.003440 0.000000
vn 0.000000 0.000000 -1.000000
vn 0.000000 0.000000 -1.000000
vn 0.000000 0.000000 -1.000000
vn -0.257896 0.010154 0.966119
vn -0.257896 0.010154 0.966119
vn -0.257896 0.010154 0.966119
vn -0.257896 0.010154 0.966119
vn -0.257896 0.010154 -0.966119
vn -0.257896 0.010154 -0.966119
vn -0.257896 0.010154 -0.966119
vn -0.257896 0.010154 -0.966119
vn -0.000298 -0.000290 1.000000
vn -0.000298 -0.000290 1.000000
vn -0.000298 -0.000290 1.000000
vn -0.769526 -0.638616 0.000000
vn -0.769526 -0.638616 0.000000
vn -0.769526 -0.638616 0.000000
vn -0.769526 -0.638616 0.000000
vn 0.000000 0.000000 -1.000000
vn 0.000000 0.000000 -1.000000
vn 0.000000 0.000000 -1.000000
vn -0.235924 0.002777 -0.971767
vn -0.235924 0.002777 -0.971768
vn -0.235924 0.002777 -0.971768
vn -0.235924 0.002777 -0.971768
vn -0.235924 0.002777 0.971768
vn -0.235924 0.002777 0.971767
vn -0.235924 0.002777 0.971768
vn -0.235924 0.002777 0.971768
vn -1.000000 0.000000 0.000000
vn -1.000000 0.000000 0.000000
vn -1.000000 0.000000 0.000000
vn -0.000423 0.000109 1.000000
vn -0.000423 0.000109 1.000000
vn -0.000423 0.000109 1.000000
vn -1.000000 -0.000000 0.000000
vn -1.000000 -0.000000 0.000000
vn -1.000000 -0.000000 0.000000
vn -1.000000 -0.000000 0.000000
vn -0.134223 0.803142 0.580472
vn -0.134223 0.803142 0.580472
vn -0.134223 0.803142 0.580472
vn -0.134072 0.803641 -0.579816
vn -0.134072 0.803641 -0.579816
vn -0.134072 0.803641 -0.579816
vn 0.262639 0.028833 -0.964463
vn 0.262639 0.028833 -0.964463
vn 0.262639 0.028833 -0.964463
vn 0.262639 0.028833 0.964463
vn 0.262639 0.028833 0.964463
vn 0.262639 0.028833 0.964463
vn 0.000002 -1.000000 0.000005
vn 0.000002 -1.000000 0.000005
vn 0.000002 -1.000000 0.000005
vn 0.000002 -1.000000 0.000005
vn 0.000002 -1.000000 0.000005
vn 0.000001 -1.000000 -0.000009
vn 0.000001 -1.000000 -0.000009
vn 0.000001 -1.000000 -0.000009
vn 0.000001 -1.000000 -0.000009
vn 0.204193 -0.007475 0.978902
vn 0.204193 -0.007475 0.978902
vn 0.204193 -0.007475 0.978902
vn 0.204193 -0.007475 0.978902
vn 0.204193 -0.007475 -0.978902
vn 0.204193 -0.007475 -0.978902
vn 0.204193 -0.007475 -0.978902
vn 0.204193 -0.007475 -0.978902
vn 0.001119 0.000386 0.999999
vn 0.001138 0.000403 0.999999
vn 0.001149 0.000411 0.999999
vn 0.001149 0.000411 0.999999
vn 0.001111 0.000283 -0.999999
vn 0.001096 0.000279 -0.999999
vn 0.001072 0.000273 -0.999999
vn 0.001111 0.000283 -0.999999
vn 0.999994 0.003440 0.000000
vn 0.999994 0.003440 0.000000
vn 0.998850 -0.047945 0.000000
vn 0.998850 -0.047938 0.000000
vn -0.000000 0.000000 -1.000000
vn 0.257896 0.010154 0.966119
vn 0.257896 0.010154 0.966119
vn 0.257896 0.010154 0.966119
vn 0.257896 0.010154 0.966119
vn 0.257896 0.010154 -0.966119
vn 0.257896 0.010154 -0.966119
vn 0.257896 0.010154 -0.966119
vn 0.257896 0.010154 -0.966119
vn 0.000348 -0.000131 1.000000
vn 0.905870 -0.423555 0.000000
vn 0.905867 -0.423562 0.000000
vn -0.000000 0.000000 -1.000000
vn 0.235888 0.006787 -0.971757
vn 0.235917 0.003582 -0.971767
vn 0.235924 0.002777 -0.971768
vn 0.235924 0.002777 -0.971768
vn 0.235924 0.002777 0.971768
vn 0.235924 0.002777 0.971768
vn 0.235917 0.003580 0.971767
vn 0.235888 0.006780 0.971757
vn 1.000000 0.000000 0.000000
vn 1.000000 0.000000 0.000000
vn 1.000000 0.000000 0.000000
vn 0.000423 0.000109 1.000000
vn 0.134223 0.803142 0.580472
vn 0.134072 0.803641 -0.579816
s off
g blade_cav_sidesword
f 7/1/1 4/2/2 3/3/3
f 2/4/4 7/1/5 3/3/6
f 1/5/7 21/6/8 5/7/9 9/8/10 8/9/11
f 9/8/12 5/7/13 6/10/14 10/11/15
f 8/9/16 9/8/17 12/12/18 11/13/19
f 12/12/20 9/8/21 10/11/22 13/14/23
f 23/15/24 21/6/25 1/5/26 15/16/27
f 6/10/28 5/7/29 24/17/30 16/18/31
f 21/6/32 23/15/33 24/17/34 5/7/35
f 16/18/36 24/17/37 26/19/38
f 18/20/39 2/4/40 3/3/41 19/21/42
f 20/22/43 19/21/44 3/3/45 4/2/46
f 15/16/47 25/23/48 23/15/49
f 26/19/50 24/17/51 23/15/52 25/23/53
f 16/18/54 26/19/55 17/24/56
f 14/25/57 19/21/58 20/22/59 16/18/60
f 19/21/61 14/25/62 15/16/63 18/20/64
f 22/26/65 14/25/66 17/24/67
f 15/16/68 22/26/69 25/23/70
f 22/26/71 17/24/72 26/19/73 25/23/74
f 22/26/75 15/16/76 14/25/77
f 16/18/78 17/24/79 14/25/80
f 7/1/81 4/2/82 3/3/83
f 2/4/84 7/1/85 3/3/86
f 1/5/87 21/6/88 5/7/89 9/8/90 8/9/91
f 9/8/92 5/7/93 6/10/94 10/11/95
f 8/9/96 9/8/97 12/12/98 11/13/99
f 12/12/100 9/8/101 10/11/102 13/14/103
f 23/15/104 21/6/105 1/5/106 15/16/107
f 6/10/108 5/7/109 24/17/110 16/18/111
f 21/6/112 23/15/113 24/17/114 5/7/115
f 16/18/116 24/17/117 26/19/118
f 18/20/119 2/4/120 3/3/121 19/21/122
f 20/22/123 19/21/124 3/3/125 4/2/126
f 15/16/127 25/23/128 23/15/129
f 26/19/130 24/17/131 23/15/132 25/23/133
f 16/18/134 26/19/135 17/24/136
f 14/25/137 19/21/138 20/22/139 16/18/140
f 19/21/141 14/25/142 15/16/143 18/20/144
f 22/26/145 14/25/146 17/24/147
f 15/16/148 22/26/149 25/23/150
f 22/26/151 17/24/152 26/19/153 25/23/154
f 22/26/155 15/16/156 14/25/157
f 16/18/158 17/24/159 14/25/160
f 7/1/161 27/27/162 4/2/163
f 2/4/164 27/27/165 7/1/166
f 1/5/167 8/9/168 29/28/169 28/29/170 34/30/171
f 29/28/172 10/11/173 6/10/174 28/29/175
f 8/9/176 11/13/177 30/31/178 29/28/179
f 30/31/180 13/14/181 10/11/182 29/28/183
s 1
f 36/32/184 15/16/185 1/5/186 34/30/187
s 2
f 6/10/188 16/18/189 37/33/190 28/29/191
s 3
f 34/30/192 28/29/193 37/33/194 36/32/195
s 2
f 16/18/189 39/34/196 37/33/190
s off
f 18/20/197 33/35/198 27/27/199 2/4/200
f 20/22/201 4/2/202 27/27/203 33/35/204
s 1
f 15/16/185 36/32/184 38/36/205
s 3
f 39/34/206 38/36/207 36/32/195 37/33/194
s 2
f 16/18/189 32/37/208 39/34/196
s 4
f 31/38/209 16/18/210 20/22/211 33/35/212
s 5
f 33/35/213 18/20/214 15/16/215 31/38/216
s 3
f 35/39/217 32/37/218 31/38/219
s 1
f 15/16/185 38/36/205 35/39/220
s 3
f 35/39/217 38/36/207 39/34/206 32/37/218
s 5
f 35/39/221 31/38/216 15/16/215
s 4
f 16/18/210 31/38/209 32/37/222
