# This file uses centimeters as units for non-parametric coordinates.

g default
v 0.525999 10.833860 0.000004
v 0.263942 38.958355 0.000002
v -0.263942 38.958355 -0.000002
v -0.000007 38.958355 -0.071127
v -0.525999 10.833860 -0.000004
v -0.000013 10.833860 -0.074914
v 0.000000 40.156998 -0.000000
v 0.525999 -0.000000 0.124028
v -0.525999 -0.000000 -0.124028
v 0.525999 10.261921 0.124028
v -0.525999 10.261921 -0.124028
v 0.525999 -0.000000 -0.124028
v 0.525999 10.261921 -0.124028
v 0.489163 14.787213 0.000003
v -0.489163 14.787213 -0.000003
v -0.000012 14.787213 -0.074914
v -0.000000 -0.000000 0.124028
v 0.000000 -0.000000 -0.124028
v 0.000145 10.085252 -0.074914
v -0.000012 15.074290 -0.131099
v 0.525999 2.911295 0.124028
v -0.525999 2.911295 -0.124028
v -0.000063 2.911295 -0.074914
v 0.525999 2.911295 -0.124028
v 0.061135 14.787213 -0.115342
v 0.061135 10.833860 -0.124028
v -0.061156 14.787213 -0.115343
v -0.061156 10.833860 -0.124028
v -0.061156 2.911295 -0.124028
v -0.000104 2.566319 -0.124028
v 0.061135 2.911295 -0.124028
v 0.061135 10.085252 -0.124028
v -0.061156 10.085252 -0.124028
v -0.293578 10.085252 -0.074914
v -0.293578 2.911295 -0.074914
v 0.293567 10.085252 -0.074914
v 0.293567 2.911295 -0.074914
v 0.226606 2.911295 -0.124028
v 0.226606 10.085252 -0.124028
v -0.226606 2.911295 -0.124028
v -0.226606 10.085252 -0.124028
v 0.354721 10.085252 -0.124028
v 0.354721 2.911295 -0.124028
v -0.354721 10.085252 -0.124028
v -0.354721 2.911295 -0.124028
v 0.293578 2.566319 -0.124028
v -0.293578 2.566319 -0.124028
v -0.293578 10.547891 -0.124028
v 0.293567 10.547891 -0.124028
v -0.293578 10.168403 -0.124028
v 0.293567 10.168403 -0.124028
v 0.000007 38.958355 0.071127
v 0.000013 10.833860 0.074914
v -0.525999 -0.000000 0.124028
v -0.525999 10.261921 0.124028
v 0.000012 14.787213 0.074914
v -0.000145 10.085252 0.074914
v 0.000012 15.074290 0.131099
v 0.000063 2.911295 0.074914
v -0.525999 2.911295 0.124028
v -0.061135 14.787213 0.115342
v -0.061135 10.833860 0.124028
v 0.061156 14.787213 0.115343
v 0.061156 10.833860 0.124028
v 0.061156 2.911295 0.124028
v 0.000104 2.566319 0.124028
v -0.061135 2.911295 0.124028
v -0.061135 10.085252 0.124028
v 0.061156 10.085252 0.124028
v 0.293578 10.085252 0.074914
v 0.293578 2.911295 0.074914
v -0.293567 10.085252 0.074914
v -0.293567 2.911295 0.074914
v -0.226606 2.911295 0.124028
v -0.226606 10.085252 0.124028
v 0.226606 2.911295 0.124028
v 0.226606 10.085252 0.124028
v -0.354721 10.085252 0.124028
v -0.354721 2.911295 0.124028
v 0.354721 10.085252 0.124028
v 0.354721 2.911295 0.124028
v -0.293578 2.566319 0.124028
v 0.293578 2.566319 0.124028
v 0.293578 10.547891 0.124028
v -0.293567 10.547891 0.124028
v 0.293578 10.168403 0.124028
v -0.293567 10.168403 0.124028
vt 0.625000 0.000000
vt 0.625000 0.250000
vt 0.375000 0.500000
vt 0.625000 0.500000
vt 0.375000 0.750000
vt 0.625000 0.750000
vt 0.625000 1.000000
vt 0.875000 0.000000
vt 0.875000 0.250000
vt 0.500000 0.375000
vt 0.625000 1.000000
vt 0.375000 0.750000
vt 0.625000 1.000000
vt 0.375000 0.750000
vt 0.625000 0.875000
vt 0.625000 0.875000
vt 0.625000 0.036417
vt 0.375000 0.713583
vt 0.625000 0.714858
vt 0.875000 0.035142
vt 0.499444 0.937222
vt 0.499444 0.812222
vt 0.499444 0.812222
vt 0.625000 0.712307
vt 0.875000 0.037693
vt 0.625000 1.000000
vt 0.375000 0.750000
vt 0.499444 0.812222
vt 0.625000 0.875000
vt 0.843750 0.035301
vt 0.625000 0.781250
vt 0.843750 0.000000
vt 0.593750 0.714699
vt 0.593748 0.750000
vt 0.499444 0.812222
vt 0.468333 0.796667
vt 0.530833 0.827916
vt 0.530833 0.827917
vt 0.468333 0.796667
vt 0.421667 0.773333
vt 0.421667 0.773333
vt 0.577917 0.851458
vt 0.577916 0.851458
vt 0.554375 0.839687
vt 0.554375 0.839687
vt 0.445000 0.785000
vt 0.445001 0.785001
vt 0.601458 0.863229
vt 0.601458 0.863229
vt 0.398333 0.761667
vt 0.398335 0.761668
vt 0.562222 0.843611
vt 0.437222 0.781111
vt 0.484374 0.750000
vt 0.484374 0.750000
vt 0.593748 0.750000
vt 0.539061 0.750000
vt 0.511718 0.750000
vt 0.625000 0.828125
vt 0.554375 0.839687
vt 0.601458 0.863229
vt 0.498046 0.750000
vt 0.589687 0.833906
vt 0.613229 0.845677
vt 0.500000 0.375000
vt 0.625000 0.500000
vt 0.375000 0.500000
vt 0.625000 0.250000
vt 0.875000 0.037693
vt 0.875000 0.250000
vt 0.625000 0.036417
vt 0.843750 0.035301
vt 0.875000 0.035142
vt 0.625000 0.712307
vt 0.375000 0.713583
vt 0.593750 0.714699
vt 0.625000 0.714858
vt 0.875000 0.000000
vt 0.843750 0.000000
vt 0.499444 0.812222
vt 0.499444 0.812222
vt 0.530833 0.827917
vt 0.530833 0.827916
vt 0.625000 0.000000
vt 0.625000 0.750000
vt 0.625000 0.781250
vt 0.468333 0.796667
vt 0.468333 0.796667
vt 0.593748 0.750000
vt 0.375000 0.750000
vt 0.484374 0.750000
vt 0.375000 0.750000
vt 0.484374 0.750000
vt 0.593748 0.750000
vt 0.539061 0.750000
vt 0.498046 0.750000
vt 0.511718 0.750000
vt 0.554375 0.839687
vt 0.577917 0.851458
vt 0.577916 0.851458
vt 0.554375 0.839687
vt 0.625000 0.875000
vt 0.625000 1.000000
vt 0.625000 1.000000
vt 0.625000 0.828125
vt 0.601458 0.863229
vt 0.589687 0.833906
vt 0.613229 0.845677
vt 0.601458 0.863229
vt 0.554375 0.839687
vt 0.625000 0.875000
vt 0.625000 1.000000
vt 0.625000 1.000000
vt 0.625000 0.875000
vt 0.562222 0.843611
vt 0.601458 0.863229
vt 0.499444 0.812222
vt 0.437222 0.781111
vt 0.375000 0.750000
vt 0.375000 0.750000
vt 0.445001 0.785001
vt 0.398335 0.761668
vt 0.421667 0.773333
vt 0.445000 0.785000
vt 0.421667 0.773333
vt 0.398333 0.761667
vt 0.499444 0.937222
vt 0.499444 0.812222
vn -0.259772 0.057203 -0.963974
vn -0.259772 0.057203 -0.963974
vn -0.259772 0.057203 -0.963974
vn 0.259769 0.057200 -0.963975
vn 0.259769 0.057200 -0.963975
vn 0.259769 0.057200 -0.963975
vn 0.260197 0.002424 -0.965552
vn 0.260197 0.002424 -0.965552
vn 0.260197 0.002424 -0.965553
vn 0.259913 0.002389 -0.965629
vn 0.258994 0.002273 -0.965876
vn -0.544310 -0.161124 -0.823265
vn -0.589563 -0.004182 -0.807712
vn -0.589531 -0.004318 -0.807735
vn -0.260197 0.002425 -0.965552
vn -0.259913 0.002389 -0.965629
vn -0.260197 0.002425 -0.965552
vn -0.260197 0.002425 -0.965552
vn -0.258992 0.002273 -0.965877
vn 0.589591 -0.004183 -0.807691
vn 0.544339 -0.161121 -0.823247
vn 0.589559 -0.004319 -0.807714
vn -0.596729 0.000731 -0.802442
vn -0.596734 0.000730 -0.802439
vn -0.626537 0.002477 -0.779388
vn -0.626567 0.000002 -0.779367
vn -0.626568 0.000002 -0.779367
vn -0.626537 0.002398 -0.779388
vn 0.258894 0.009575 -0.965858
vn 0.258916 0.006719 -0.965876
vn 0.625894 -0.000002 -0.779908
vn 0.625894 -0.000002 -0.779908
vn 0.625921 0.002449 -0.779883
vn 0.625921 0.002371 -0.779883
vn -0.258915 0.006719 -0.965877
vn -0.258893 0.009574 -0.965859
vn 0.596601 0.000752 -0.802538
vn 0.596605 0.000752 -0.802535
vn -0.252312 0.205067 -0.945667
vn 0.000000 0.000000 -1.000000
vn 0.000000 0.000000 -1.000000
vn 0.000000 0.000000 -1.000000
vn 0.000001 -0.000000 -1.000000
vn 0.000001 -0.000000 -1.000000
vn 0.000001 -0.000000 -1.000000
vn 0.000001 -0.000000 -1.000000
vn -0.000000 0.000000 -1.000000
vn -0.000000 0.000000 -1.000000
vn -0.000000 0.000000 -1.000000
vn 0.000002 0.000000 -1.000000
vn 0.000002 0.000000 -1.000000
vn 0.000002 0.000000 -1.000000
vn -0.252311 0.205066 -0.945668
vn -0.533898 -0.430018 -0.728037
vn -0.591371 -0.001821 -0.806398
vn -0.591370 -0.002213 -0.806397
vn 0.626240 -0.001846 -0.779628
vn 0.568827 -0.418278 -0.708152
vn 0.626240 -0.002108 -0.779628
vn 0.591432 -0.001821 -0.806353
vn 0.591432 -0.002213 -0.806352
vn 0.591431 0.002556 -0.806351
vn 0.591431 0.002437 -0.806352
vn -0.000000 0.000000 -1.000000
vn -0.000000 0.000000 -1.000000
vn -0.000000 0.000000 -1.000000
vn -0.000000 0.000000 -1.000000
vn 1.000000 0.000000 -0.000000
vn 1.000000 0.000000 -0.000000
vn 1.000000 0.000000 -0.000000
vn 0.252314 0.205078 -0.945664
vn -0.000000 -0.000000 -1.000000
vn -0.000000 -0.000000 -1.000000
vn -0.000000 -0.000000 -1.000000
vn -0.000000 -0.000000 -1.000000
vn 0.252314 0.205078 -0.945664
vn -0.000000 -0.000000 -1.000000
vn -0.000000 -0.000000 -1.000000
vn -0.000000 -0.000000 -1.000000
vn 0.000001 -0.000000 -1.000000
vn 0.000001 -0.000000 -1.000000
vn 0.000001 -0.000000 -1.000000
vn -0.000003 -0.000000 -1.000000
vn -0.000003 -0.000000 -1.000000
vn -0.000003 -0.000000 -1.000000
vn -0.568756 -0.418298 -0.708197
vn -0.626174 -0.001846 -0.779681
vn -0.626174 -0.002109 -0.779681
vn 0.533962 -0.430000 -0.728000
vn 1.000000 0.000000 -0.000000
vn 1.000000 0.000000 -0.000000
vn 1.000000 0.000000 0.000000
vn 1.000000 0.000000 0.000000
vn 0.000000 0.000000 -1.000000
vn 0.000000 0.000000 -1.000000
vn 0.000000 0.000000 -1.000000
vn 0.587573 0.114069 -0.801090
vn 0.000000 0.000000 -1.000000
vn 0.000000 0.000000 -1.000000
vn 0.000000 0.000000 -1.000000
vn -0.622353 0.110306 -0.774925
vn -0.626173 0.002462 -0.779680
vn -0.626173 0.002384 -0.779680
vn -0.000000 0.000000 -1.000000
vn -0.000000 0.000000 -1.000000
vn -0.000000 0.000000 -1.000000
vn -0.000000 0.000000 -1.000000
vn 0.622738 0.110210 -0.774630
vn -0.000000 0.000000 -1.000000
vn -0.000000 0.000000 -1.000000
vn -0.000000 0.000000 -1.000000
vn 0.000000 0.000000 -1.000000
vn 0.000000 0.000000 -1.000000
vn 0.000000 0.000000 -1.000000
vn 0.000000 0.000000 -1.000000
vn 0.000000 0.000000 -1.000000
vn -0.000000 0.000000 -1.000000
vn 0.000000 0.000000 -1.000000
vn 0.626239 0.002463 -0.779627
vn 0.622418 0.110318 -0.774871
vn 0.626240 0.002385 -0.779627
vn -0.587513 0.114057 -0.801136
vn -0.591370 0.002556 -0.806396
vn -0.591370 0.002436 -0.806397
vn -0.622081 0.110428 -0.775126
vn 0.000000 0.000000 -1.000000
vn 0.000000 0.000000 -1.000000
vn 0.000000 0.000000 -1.000000
vn 0.000000 0.000000 -1.000000
vn 0.000000 -1.000000 -0.000000
vn 0.000000 -1.000000 -0.000000
vn 0.000000 -1.000000 -0.000000
vn 0.000000 -1.000000 -0.000000
vn 0.000000 0.000000 -1.000000
vn 0.000000 0.000000 -1.000000
vn 0.000000 0.000000 -1.000000
vn 0.000000 0.000000 -1.000000
vn 0.000000 -0.000000 -1.000000
vn 0.000000 -0.000000 -1.000000
vn 0.000000 -0.000000 -1.000000
vn -0.000000 -0.000000 -1.000000
vn -0.000000 -0.000000 -1.000000
vn -0.000000 -0.000000 -1.000000
vn 0.259772 0.057203 0.963974
vn 0.259772 0.057203 0.963974
vn 0.259772 0.057203 0.963974
vn -0.259769 0.057200 0.963975
vn -0.259769 0.057200 0.963975
vn -0.259769 0.057200 0.963975
vn -0.260197 0.002424 0.965552
vn -0.260197 0.002424 0.965552
vn -0.260197 0.002424 0.965553
vn -0.259913 0.002389 0.965629
vn -0.258994 0.002273 0.965876
vn 0.544310 -0.161124 0.823265
vn 0.589563 -0.004182 0.807712
vn 0.589531 -0.004318 0.807735
vn 0.260197 0.002425 0.965552
vn 0.259913 0.002389 0.965629
vn 0.260197 0.002425 0.965552
vn 0.260197 0.002425 0.965552
vn 0.258992 0.002273 0.965877
vn -0.589591 -0.004183 0.807691
vn -0.544339 -0.161121 0.823247
vn -0.589559 -0.004319 0.807714
vn 0.596729 0.000731 0.802442
vn 0.596734 0.000730 0.802439
vn 0.626537 0.002477 0.779388
vn 0.626567 0.000002 0.779367
vn 0.626568 0.000002 0.779367
vn 0.626537 0.002398 0.779388
vn -0.258894 0.009575 0.965858
vn -0.258916 0.006719 0.965876
vn -0.625894 -0.000002 0.779908
vn -0.625894 -0.000002 0.779908
vn -0.625921 0.002449 0.779883
vn -0.625921 0.002371 0.779883
vn 0.258915 0.006719 0.965877
vn 0.258893 0.009574 0.965859
vn -0.596601 0.000752 0.802538
vn -0.596605 0.000752 0.802535
vn 0.252312 0.205067 0.945667
vn -0.000000 0.000000 1.000000
vn -0.000000 0.000000 1.000000
vn -0.000000 0.000000 1.000000
vn -0.000001 -0.000000 1.000000
vn -0.000001 -0.000000 1.000000
vn -0.000001 -0.000000 1.000000
vn -0.000001 -0.000000 1.000000
vn 0.000000 0.000000 1.000000
vn 0.000000 0.000000 1.000000
vn 0.000000 0.000000 1.000000
vn -0.000002 0.000000 1.000000
vn -0.000002 0.000000 1.000000
vn -0.000002 0.000000 1.000000
vn 0.252311 0.205066 0.945668
vn 0.533898 -0.430018 0.728037
vn 0.591371 -0.001821 0.806398
vn 0.591370 -0.002213 0.806397
vn -0.626240 -0.001846 0.779628
vn -0.568827 -0.418278 0.708152
vn -0.626240 -0.002108 0.779628
vn -0.591432 -0.001821 0.806353
vn -0.591432 -0.002213 0.806352
vn -0.591431 0.002556 0.806351
vn -0.591431 0.002437 0.806352
vn 0.000000 0.000000 1.000000
vn 0.000000 0.000000 1.000000
vn 0.000000 0.000000 1.000000
vn 0.000000 0.000000 1.000000
vn -1.000000 0.000000 0.000000
vn -1.000000 0.000000 0.000000
vn -1.000000 0.000000 0.000000
vn -0.252314 0.205078 0.945664
vn 0.000000 -0.000000 1.000000
vn 0.000000 -0.000000 1.000000
vn 0.000000 -0.000000 1.000000
vn 0.000000 -0.000000 1.000000
vn -0.252314 0.205078 0.945664
vn 0.000000 -0.000000 1.000000
vn 0.000000 -0.000000 1.000000
vn 0.000000 -0.000000 1.000000
vn -0.000001 -0.000000 1.000000
vn -0.000001 -0.000000 1.000000
vn -0.000001 -0.000000 1.000000
vn 0.000003 -0.000000 1.000000
vn 0.000003 -0.000000 1.000000
vn 0.000003 -0.000000 1.000000
vn 0.568756 -0.418298 0.708197
vn 0.626174 -0.001846 0.779681
vn 0.626174 -0.002109 0.779681
vn -0.533962 -0.430000 0.728000
vn -1.000000 0.000000 0.000000
vn -1.000000 0.000000 0.000000
vn -1.000000 0.000000 0.000000
vn -1.000000 0.000000 0.000000
vn -0.000000 0.000000 1.000000
vn -0.000000 0.000000 1.000000
vn -0.000000 0.000000 1.000000
vn -0.587573 0.114069 0.801090
vn 0.000000 0.000000 1.000000
vn 0.000000 0.000000 1.000000
vn 0.000000 0.000000 1.000000
vn 0.622353 0.110306 0.774925
vn 0.626173 0.002462 0.779680
vn 0.626173 0.002384 0.779680
vn 0.000000 0.000000 1.000000
vn 0.000000 0.000000 1.000000
vn 0.000000 0.000000 1.000000
vn 0.000000 0.000000 1.000000
vn -0.622738 0.110210 0.774630
vn 0.000000 0.000000 1.000000
vn 0.000000 0.000000 1.000000
vn 0.000000 0.000000 1.000000
vn -0.000000 0.000000 1.000000
vn -0.000000 0.000000 1.000000
vn 0.000000 0.000000 1.000000
vn 0.000000 0.000000 1.000000
vn -0.000000 0.000000 1.000000
vn 0.000000 -0.000000 1.000000
vn -0.000000 0.000000 1.000000
vn -0.626239 0.002463 0.779627
vn -0.622418 0.110318 0.774871
vn -0.626240 0.002385 0.779627
vn 0.587513 0.114057 0.801136
vn 0.591370 0.002556 0.806396
vn 0.591370 0.002436 0.806397
vn 0.622081 0.110428 0.775126
vn -0.000000 0.000000 1.000000
vn -0.000000 0.000000 1.000000
vn -0.000000 0.000000 1.000000
vn -0.000000 0.000000 1.000000
vn 0.000000 -1.000000 0.000000
vn 0.000000 -1.000000 0.000000
vn 0.000000 -1.000000 0.000000
vn 0.000000 -1.000000 0.000000
vn 0.000000 0.000000 1.000000
vn 0.000000 0.000000 1.000000
vn 0.000000 0.000000 1.000000
vn 0.000000 0.000000 1.000000
vn -0.000000 -0.000000 1.000000
vn -0.000000 -0.000000 1.000000
vn 0.000000 -0.000000 1.000000
vn 0.000000 -0.000000 1.000000
vn 0.000000 -0.000000 1.000000
vn 0.000000 -0.000000 1.000000
s off
g polySurface4
f 7/10/1 4/4/2 3/3/3
f 4/4/4 7/10/5 2/2/6
s 1
f 20/25/7 4/9/8 2/2/9 14/17/10
f 20/25/7 14/17/10 25/30/11
s 2
f 20/25/12 25/30/13 16/20/14
s 3
f 20/24/15 15/18/16 3/3/17 4/4/18
f 20/24/15 27/33/19 15/18/16
s 4
f 27/33/20 20/24/21 16/19/22
s 2
f 6/8/23 16/20/14 25/30/13 26/32/24
f 23/28/25 19/23/26 32/38/27 31/37/28
s 1
f 14/17/10 1/1/29 26/32/30 25/30/11
s 2
f 19/23/26 6/6/23 26/31/24 32/38/27
s 4
f 33/39/31 19/23/32 23/28/33 29/36/34
s 3
f 28/34/35 5/5/36 15/18/16 27/33/19
s 4
f 16/19/22 6/6/37 28/34/38 27/33/20
f 33/39/31 28/34/38 6/6/37 19/23/32
s 3
f 48/54/39 5/5/36 28/34/35
s off
f 11/14/40 48/54/41 44/55/42
f 48/54/43 28/34/44 33/56/45 41/57/46
f 50/62/47 44/55/48 48/54/49
f 41/57/50 50/62/51 48/54/52
s 3
f 5/5/36 48/54/39 11/14/53
s 6
f 50/62/54 41/57/55 34/58/56
s 7
f 44/55/57 50/62/58 34/58/59
s 8
f 39/45/60 36/42/61 37/43/62 38/44/63
s off
f 38/44/64 31/37/65 32/38/66 39/45/67
s 9
f 13/16/68 1/7/69 10/13/70
s 1
f 1/7/29 49/59/71 26/31/30
s off
f 32/38/72 26/31/73 49/59/74 39/45/75
s 1
f 49/59/71 1/7/29 13/16/76
s off
f 42/48/77 49/59/78 13/16/79
f 51/63/80 39/45/81 49/59/82
f 42/48/83 51/64/84 49/59/85
s 10
f 51/64/86 42/48/87 36/61/88
s 8
f 39/45/60 51/63/89 36/60/61
s 9
f 24/29/90 21/26/91 8/11/92 12/15/93
s off
f 12/15/94 46/52/95 24/29/96
s 8
f 37/43/62 46/52/97 38/44/63
s off
f 24/29/98 46/52/99 43/49/100
s 10
f 46/52/101 37/43/102 43/49/103
f 37/43/102 36/42/88 42/48/87 43/49/103
s 9
f 13/16/68 10/13/70 21/26/91 24/29/90
s off
f 24/29/104 43/49/105 42/48/106 13/16/107
s 4
f 30/35/108 29/36/34 23/28/33
s off
f 47/53/109 9/12/110 22/27/111
s 11
f 40/47/112 29/36/113 30/35/114 47/53/115
s 12
f 45/51/116 47/53/117 22/27/118
s 7
f 35/41/119 47/53/120 45/51/121
s 6
f 47/53/122 35/41/123 40/47/124
s 2
f 31/37/28 30/35/125 23/28/25
s 11
f 40/47/112 41/46/126 33/39/127 29/36/113
s 6
f 40/47/124 35/41/123 34/40/56 41/46/55
s 7
f 35/41/119 45/51/121 44/50/57 34/40/59
s 12
f 22/27/118 11/14/128 44/50/129 45/51/116
s off
f 17/21/130 18/22/131 12/15/132 8/11/133
f 38/44/134 46/52/135 30/35/136 31/37/137
s 13
f 46/52/138 12/15/139 18/22/140 30/35/141
f 18/22/140 9/12/142 47/53/143 30/35/141
s off
f 7/65/144 52/66/145 2/67/146
f 52/66/147 7/65/148 3/68/149
s 14
f 58/69/150 52/70/151 3/68/152 15/71/153
f 58/69/150 15/71/153 61/72/154
s 15
f 58/69/155 61/72/156 56/73/157
s 16
f 58/74/158 14/75/159 2/67/160 52/66/161
f 58/74/158 63/76/162 14/75/159
s 17
f 63/76/163 58/74/164 56/77/165
s 15
f 53/78/166 56/73/157 61/72/156 62/79/167
f 59/80/168 57/81/169 68/82/170 67/83/171
s 14
f 15/71/153 5/84/172 62/79/173 61/72/154
s 15
f 57/81/169 53/85/166 62/86/167 68/82/170
s 17
f 69/87/174 57/81/175 59/80/176 65/88/177
s 16
f 64/89/178 1/90/179 14/75/159 63/76/162
s 17
f 56/77/165 53/85/180 64/89/181 63/76/163
f 69/87/174 64/89/181 53/85/180 57/81/175
s 16
f 84/91/182 1/90/179 64/89/178
s off
f 10/92/183 84/91/184 80/93/185
f 84/91/186 64/89/187 69/94/188 77/95/189
f 86/96/190 80/93/191 84/91/192
f 77/95/193 86/96/194 84/91/195
s 16
f 1/90/179 84/91/182 10/92/196
s 19
f 86/96/197 77/95/198 70/97/199
s 20
f 80/93/200 86/96/201 70/97/202
s 21
f 75/98/203 72/99/204 73/100/205 74/101/206
s off
f 74/101/207 67/83/208 68/82/209 75/98/210
s 22
f 55/102/211 5/103/212 11/104/213
s 14
f 5/103/172 85/105/214 62/86/173
s off
f 68/82/215 62/86/216 85/105/217 75/98/218
s 14
f 85/105/214 5/103/172 55/102/219
s off
f 78/106/220 85/105/221 55/102/222
f 87/107/223 75/98/224 85/105/225
f 78/106/226 87/108/227 85/105/228
s 23
f 87/108/229 78/106/230 72/109/231
s 21
f 75/98/203 87/107/232 72/110/204
s 22
f 60/111/233 22/112/234 9/113/235 54/114/236
s off
f 54/114/237 82/115/238 60/111/239
s 21
f 73/100/205 82/115/240 74/101/206
s off
f 60/111/241 82/115/242 79/116/243
s 23
f 82/115/244 73/100/245 79/116/246
f 73/100/245 72/99/231 78/106/230 79/116/246
s 22
f 55/102/211 11/104/213 22/112/234 60/111/233
s off
f 60/111/247 79/116/248 78/106/249 55/102/250
s 17
f 66/117/251 65/88/177 59/80/176
s off
f 83/118/252 8/119/253 21/120/254
s 24
f 76/121/255 65/88/256 66/117/257 83/118/258
s 25
f 81/122/259 83/118/260 21/120/261
s 20
f 71/123/262 83/118/263 81/122/264
s 19
f 83/118/265 71/123/266 76/121/267
s 15
f 67/83/171 66/117/268 59/80/168
s 24
f 76/121/255 77/124/269 69/87/270 65/88/256
s 19
f 76/121/267 71/123/266 70/125/199 77/124/198
s 20
f 71/123/262 81/122/264 80/126/200 70/125/202
s 25
f 21/120/261 10/92/271 80/126/272 81/122/259
s off
f 18/127/273 17/128/274 54/114/275 9/113/276
f 74/101/277 82/115/278 66/117/279 67/83/280
s 26
f 82/115/281 54/114/282 17/128/283 66/117/284
f 17/128/283 8/119/285 83/118/286 66/117/284
