# This file uses centimeters as units for non-parametric coordinates.

g default
v 0.000015 3.938982 0.201903
v 0.591060 3.938982 0.000005
v 0.000007 38.958355 0.090161
v 0.263942 38.958355 0.000002
v -0.263942 38.958355 -0.000002
v -0.000007 38.958355 -0.090161
v -0.591060 3.938982 -0.000005
v -0.000015 3.938982 -0.201903
v 0.000000 40.156998 -0.000000
v 0.591060 -0.000000 0.201903
v -0.591060 -0.000000 -0.201903
v 0.591060 3.296303 0.201903
v -0.591060 3.296303 -0.201903
v -0.591060 -0.000000 0.201903
v 0.591060 -0.000000 -0.201903
v -0.591060 3.296303 0.201903
v 0.591060 3.296303 -0.201903
vt 0.375000 0.000000
vt 0.625000 0.000000
vt 0.375000 0.250000
vt 0.625000 0.250000
vt 0.375000 0.500000
vt 0.625000 0.500000
vt 0.375000 0.750000
vt 0.625000 0.750000
vt 0.375000 1.000000
vt 0.625000 1.000000
vt 0.875000 0.000000
vt 0.875000 0.250000
vt 0.125000 0.000000
vt 0.125000 0.250000
vt 0.500000 0.375000
vt 0.625000 1.000000
vt 0.375000 0.750000
vt 0.625000 1.000000
vt 0.375000 0.750000
vt 0.375000 0.875000
vt 0.625000 0.875000
vt 0.375000 0.875000
vt 0.625000 0.875000
vn -0.322436 0.070999 0.943925
vn -0.322436 0.070999 0.943925
vn -0.322436 0.070999 0.943925
vn -0.322439 0.071003 -0.943924
vn -0.322439 0.071003 -0.943924
vn -0.322439 0.071003 -0.943924
vn 0.322439 0.071003 0.943924
vn 0.322439 0.071003 0.943924
vn 0.322439 0.071003 0.943924
vn 0.322436 0.070999 -0.943925
vn 0.322436 0.070999 -0.943925
vn 0.322436 0.070999 -0.943925
vn 0.000000 0.000000 -1.000000
vn 0.000000 0.000000 -1.000000
vn 0.000000 0.000000 -1.000000
vn 0.000000 -1.000000 -0.000000
vn 0.000000 -1.000000 -0.000000
vn 0.000000 -1.000000 -0.000000
vn 0.000000 -1.000000 -0.000000
vn 0.323254 0.003020 0.946308
vn 0.323251 0.005087 0.946300
vn 0.323248 0.006500 0.946292
vn 0.323254 0.003020 0.946308
vn 0.309853 0.284959 0.907078
vn 0.000000 0.000000 1.000000
vn 0.000000 0.000000 1.000000
vn 0.000000 0.000000 1.000000
vn 0.000000 0.000000 1.000000
vn -0.323251 0.005087 -0.946300
vn -0.323248 0.006500 -0.946292
vn -0.323254 0.003020 -0.946308
vn -0.323254 0.003020 -0.946308
vn 0.323254 0.003019 -0.946308
vn 0.323254 0.003019 -0.946308
vn 0.323248 0.006500 -0.946292
vn 0.323251 0.005087 -0.946300
vn -0.323254 0.003019 0.946308
vn -0.323254 0.003019 0.946308
vn -0.323248 0.006500 0.946292
vn -0.323251 0.005087 0.946300
vn -1.000000 0.000000 -0.000000
vn -1.000000 0.000000 -0.000000
vn -1.000000 0.000000 -0.000000
vn 0.309852 0.284972 -0.907074
vn -0.309851 0.284972 0.907074
vn -0.309853 0.284959 -0.907078
vn 1.000000 0.000000 0.000000
vn 1.000000 0.000000 0.000000
vn 1.000000 0.000000 0.000000
vn 1.000000 0.000000 0.000000
vn 1.000000 0.000000 0.000000
vn -1.000000 0.000000 -0.000000
vn -1.000000 0.000000 -0.000000
vn 0.000000 0.000000 -1.000000
vn 0.000000 0.000000 -1.000000
vn 0.000000 0.000000 1.000000
s off
g blade_rapier_simple
f 3/3/1 9/15/2 5/5/3
f 9/15/4 6/6/5 5/5/6
f 9/15/7 3/3/8 4/4/9
f 6/6/10 9/15/11 4/4/12
s 1
f 13/19/13 8/8/14 17/23/15
s off
f 11/17/16 15/21/17 10/16/18 14/20/19
s 2
f 3/3/20 1/1/21 2/2/22 4/4/23
f 1/9/21 12/18/24 2/10/22
s 3
f 12/18/25 16/22/26 14/20/27 10/16/28
s 4
f 8/8/29 7/7/30 5/5/31 6/6/32
s 5
f 6/12/33 4/4/34 2/2/35 8/11/36
s 6
f 3/3/37 5/14/38 7/13/39 1/1/40
s 7
f 16/22/41 7/7/42 13/19/43
s 5
f 17/23/44 8/8/36 2/10/35
s 6
f 16/22/45 1/9/40 7/7/39
s 4
f 8/8/29 13/19/46 7/7/30
s 8
f 10/16/47 15/21/48 17/23/49 12/18/50
f 17/23/49 2/10/51 12/18/50
s 7
f 11/17/52 14/20/53 16/22/41 13/19/43
s 1
f 13/19/13 17/23/15 15/21/54 11/17/55
s 3
f 12/18/25 1/9/56 16/22/26
