# This file uses centimeters as units for non-parametric coordinates.

g default
v -0.605648 0.089696 0.220236
v 0.000000 31.795231 0.101096
v -0.434961 31.795231 0.000000
v -1.131763 0.128939 0.000000
v 0.000000 33.180702 0.000000
v 0.000000 0.089029 0.098834
v -0.438534 0.078483 0.000000
v 0.000000 -5.681384 0.098834
v -0.260157 -5.591837 0.000000
v 0.000000 30.195337 0.162051
v -0.718174 29.787605 0.000000
v -0.206815 28.217655 0.160922
v -0.761473 28.029964 0.000000
v 0.000000 28.353416 0.196073
v -0.263752 27.999832 0.161380
v 0.000000 28.217655 0.086174
v 0.000000 27.999832 0.047937
v 0.000000 0.067272 0.106793
v -0.440142 0.078484 0.154744
v -0.202435 27.999832 0.095888
v -0.132108 28.217655 0.119890
v -0.082730 28.183931 0.085470
v -0.131193 27.999832 0.057046
v -0.292861 0.078484 0.115902
v -0.417499 0.078484 0.178328
v -0.115616 28.308683 0.178497
v -0.066054 28.285536 0.141508
v -0.471514 28.128084 0.114171
v -0.856726 0.112120 0.145179
v -0.416895 29.048145 0.089249
v 0.000000 29.274376 0.179062
v 0.605648 0.089696 0.220236
v 0.434961 31.795231 0.000000
v 1.131763 0.128939 0.000000
v 0.438534 0.078483 0.000000
v 0.260157 -5.591837 0.000000
v 0.718174 29.787605 0.000000
v 0.206815 28.217655 0.160922
v 0.761473 28.029964 0.000000
v 0.263752 27.999832 0.161380
v 0.440142 0.078484 0.154744
v 0.202435 27.999832 0.095888
v 0.132108 28.217655 0.119890
v 0.082730 28.183931 0.085470
v 0.131193 27.999832 0.057046
v 0.292861 0.078484 0.115902
v 0.417499 0.078484 0.178328
v 0.115616 28.308683 0.178497
v 0.066054 28.285536 0.141508
v 0.471514 28.128084 0.114171
v 0.856726 0.112120 0.145179
v 0.416895 29.048145 0.089249
v -0.605648 0.089696 -0.220235
v 0.000000 31.795231 -0.101096
v -0.434961 31.795231 0.000000
v -1.131763 0.128939 0.000000
v 0.000000 0.089029 -0.098834
v -0.438534 0.078483 0.000000
v 0.000000 -5.681384 -0.098834
v -0.260157 -5.591837 0.000000
v 0.000000 30.195337 -0.162050
v -0.718174 29.787605 0.000000
v -0.206815 28.217655 -0.160921
v -0.761473 28.029964 0.000000
v 0.000000 28.353416 -0.196073
v -0.263752 27.999832 -0.161379
v 0.000000 28.217655 -0.086174
v 0.000000 27.999832 -0.047936
v 0.000000 0.067272 -0.110447
v -0.440142 0.078484 -0.154744
v -0.202435 27.999832 -0.095888
v -0.132108 28.217655 -0.119889
v -0.082730 28.183931 -0.085470
v -0.131193 27.999832 -0.057046
v -0.292861 0.078484 -0.115902
v -0.417499 0.078484 -0.178328
v -0.115616 28.308683 -0.178497
v -0.066054 28.285536 -0.141507
v -0.471514 28.128084 -0.114171
v -0.856726 0.112120 -0.145178
v -0.416895 29.048145 -0.089248
v 0.000000 29.274376 -0.179062
v 0.605648 0.089696 -0.220235
v 0.434961 31.795231 0.000000
v 1.131763 0.128939 0.000000
v 0.438534 0.078483 0.000000
v 0.260157 -5.591837 0.000000
v 0.718174 29.787605 0.000000
v 0.206815 28.217655 -0.160921
v 0.761473 28.029964 0.000000
v 0.263752 27.999832 -0.161379
v 0.440142 0.078484 -0.154744
v 0.202435 27.999832 -0.095888
v 0.132108 28.217655 -0.119889
v 0.082730 28.183931 -0.085470
v 0.131193 27.999832 -0.057046
v 0.292861 0.078484 -0.115902
v 0.417499 0.078484 -0.178328
v 0.115616 28.308683 -0.178497
v 0.066054 28.285536 -0.141507
v 0.471514 28.128084 -0.114171
v 0.856726 0.112120 -0.145178
v 0.416895 29.048145 -0.089248
vt 0.500000 0.148484
vt 0.306261 0.148213
vt 0.385066 0.002304
vt 0.500000 -0.000000
vt 0.232432 0.148502
vt 0.121508 0.149079
vt 0.000000 0.149511
vt 0.500000 0.147924
vt 0.370617 0.148213
vt 0.315554 0.148213
vt 0.442041 0.866686
vt 0.500000 0.866686
vt 0.410567 0.866686
vt 0.305551 0.148213
vt 0.500000 0.964349
vt 0.500000 1.000000
vt 0.307839 0.964349
vt 0.500000 0.872291
vt 0.463451 0.871423
vt 0.441636 0.872291
vt 0.470818 0.874037
vt 0.383478 0.866686
vt 0.291690 0.869986
vt 0.408632 0.872291
vt 0.500000 0.923180
vt 0.182719 0.912689
vt 0.163590 0.867461
vt 0.315821 0.893661
vt 0.448922 0.874633
vt 0.500000 0.875784
vt 0.500000 0.899482
vt 0.614934 0.002304
vt 0.693739 0.148213
vt 1.000000 0.149511
vt 0.878492 0.149079
vt 0.767568 0.148502
vt 0.684446 0.148213
vt 0.629383 0.148213
vt 0.557960 0.866686
vt 0.589434 0.866686
vt 0.694450 0.148213
vt 0.692161 0.964349
vt 0.536549 0.871423
vt 0.558364 0.872291
vt 0.529182 0.874037
vt 0.708310 0.869986
vt 0.616523 0.866686
vt 0.591369 0.872291
vt 0.817281 0.912689
vt 0.836410 0.867461
vt 0.684180 0.893661
vt 0.551078 0.874633
vt 0.500000 0.148484
vt 0.500000 -0.000000
vt 0.385066 0.002304
vt 0.306261 0.148213
vt 0.000000 0.149511
vt 0.121508 0.149079
vt 0.232432 0.148502
vt 0.315554 0.148213
vt 0.370617 0.148213
vt 0.500000 0.147924
vt 0.442041 0.866686
vt 0.500000 0.866686
vt 0.410567 0.866686
vt 0.305551 0.148213
vt 0.500000 0.964349
vt 0.307839 0.964349
vt 0.463451 0.871423
vt 0.500000 0.872291
vt 0.441636 0.872291
vt 0.470818 0.874037
vt 0.291690 0.869986
vt 0.383478 0.866686
vt 0.408632 0.872291
vt 0.500000 0.923180
vt 0.182719 0.912689
vt 0.163590 0.867461
vt 0.315821 0.893661
vt 0.448922 0.874633
vt 0.500000 0.875784
vt 0.500000 0.899482
vt 0.693739 0.148213
vt 0.614934 0.002304
vt 0.767568 0.148502
vt 0.878492 0.149079
vt 1.000000 0.149511
vt 0.629383 0.148213
vt 0.684446 0.148213
vt 0.557960 0.866686
vt 0.589434 0.866686
vt 0.694450 0.148213
vt 0.692161 0.964349
vt 0.536549 0.871423
vt 0.558364 0.872291
vt 0.529182 0.874037
vt 0.616523 0.866686
vt 0.708310 0.869986
vt 0.591369 0.872291
vt 0.817281 0.912689
vt 0.836410 0.867461
vt 0.684180 0.893661
vt 0.551078 0.874633
vn -0.272671 -0.004251 0.962098
vn -0.272671 -0.004251 0.962098
vn -0.272671 -0.004251 0.962098
vn -0.272671 -0.004251 0.962098
vn -0.077548 -0.996960 0.007612
vn -0.077548 -0.996960 0.007612
vn -0.077548 -0.996960 0.007612
vn -0.077548 -0.996960 0.007612
vn -0.059683 0.872442 -0.485061
vn -0.059683 0.872441 -0.485061
vn -0.056074 0.882564 -0.466836
vn 0.015636 0.995891 -0.089204
vn -0.001075 -1.000000 0.000132
vn -0.001075 -1.000000 0.000132
vn -0.001075 -1.000000 0.000132
vn -0.001075 -0.999999 0.000132
vn 0.147536 0.000357 0.989057
vn 0.146509 0.001157 0.989209
vn 0.042977 0.001981 0.999074
vn 0.043060 0.001362 0.999072
vn 0.424490 -0.003095 0.905428
vn 0.423008 -0.001963 0.906124
vn 0.027136 0.999293 -0.026034
vn 0.027136 0.999293 -0.026034
vn -0.225821 0.070895 0.971586
vn -0.225821 0.070895 0.971586
vn -0.225821 0.070895 0.971586
vn 0.109010 -0.266961 0.957522
vn 0.219790 -0.258591 0.940650
vn 0.456785 -0.351748 0.817081
vn 0.214378 -0.498467 0.839984
vn -0.255982 0.004881 0.966669
vn -0.255825 0.004996 0.966710
vn -0.351970 0.006688 0.935988
vn -0.345935 0.005597 0.938242
vn 0.500497 -0.004356 0.865727
vn 0.499949 -0.003364 0.866048
vn -0.194808 0.036172 0.980174
vn -0.232709 0.031898 0.972023
vn -0.234022 0.034789 0.971609
vn -0.234022 0.034789 0.971609
vn -0.231007 0.028157 0.972545
vn -0.414433 0.006593 0.910056
vn -0.305767 0.020041 0.951895
vn -0.305767 0.020041 0.951895
vn 0.173042 -0.713856 0.678576
vn 0.173042 -0.713856 0.678576
vn 0.173042 -0.713856 0.678576
vn 0.566309 -0.281351 0.774684
vn 0.004519 -0.629179 0.777247
vn 0.004519 -0.629179 0.777247
vn 0.004519 -0.629179 0.777247
vn -0.227730 0.020979 0.973498
vn -0.227730 0.020979 0.973498
vn 0.368433 -0.549541 0.749841
vn 0.368433 -0.549541 0.749841
vn -0.417900 0.006150 0.908472
vn -0.195047 0.035251 0.980160
vn -0.195047 0.035251 0.980160
vn -0.209602 0.024523 0.977479
vn -0.209602 0.024523 0.977479
vn -0.209602 0.024523 0.977479
vn -0.209602 0.024523 0.977479
vn 0.272671 -0.004251 0.962098
vn 0.272671 -0.004251 0.962098
vn 0.272671 -0.004251 0.962098
vn 0.272671 -0.004251 0.962098
vn 0.077548 -0.996960 0.007612
vn 0.077548 -0.996960 0.007612
vn 0.077548 -0.996960 0.007612
vn 0.077548 -0.996960 0.007612
vn 0.059683 0.872442 -0.485061
vn -0.015636 0.995891 -0.089204
vn 0.056074 0.882564 -0.466836
vn 0.059683 0.872441 -0.485061
vn 0.001075 -1.000000 0.000132
vn 0.001075 -0.999999 0.000132
vn 0.001075 -0.999999 0.000132
vn 0.001075 -0.999999 0.000132
vn -0.147536 0.000357 0.989057
vn -0.043060 0.001362 0.999072
vn -0.042977 0.001981 0.999074
vn -0.146509 0.001157 0.989209
vn -0.424490 -0.003095 0.905427
vn -0.423007 -0.001963 0.906124
vn -0.027136 0.999293 -0.026034
vn -0.027136 0.999293 -0.026034
vn 0.225821 0.070895 0.971586
vn 0.225821 0.070895 0.971586
vn 0.225821 0.070895 0.971586
vn -0.219792 -0.258594 0.940649
vn -0.109011 -0.266965 0.957521
vn -0.456786 -0.351750 0.817079
vn -0.214381 -0.498473 0.839979
vn 0.255982 0.004881 0.966669
vn 0.345935 0.005597 0.938242
vn 0.351970 0.006688 0.935988
vn 0.255825 0.004996 0.966710
vn -0.499949 -0.003364 0.866048
vn -0.500497 -0.004356 0.865727
vn 0.194808 0.036172 0.980174
vn 0.232709 0.031898 0.972023
vn 0.231007 0.028157 0.972545
vn 0.234022 0.034789 0.971609
vn 0.234023 0.034789 0.971609
vn 0.414433 0.006593 0.910056
vn 0.305767 0.020041 0.951895
vn 0.305767 0.020041 0.951896
vn -0.173042 -0.713856 0.678576
vn -0.173042 -0.713856 0.678576
vn -0.173042 -0.713856 0.678576
vn -0.566309 -0.281351 0.774684
vn -0.004519 -0.629179 0.777247
vn -0.004519 -0.629179 0.777247
vn -0.004519 -0.629179 0.777247
vn 0.227730 0.020979 0.973498
vn 0.227730 0.020979 0.973498
vn -0.368433 -0.549541 0.749841
vn -0.368433 -0.549541 0.749841
vn 0.417900 0.006150 0.908472
vn 0.195047 0.035251 0.980160
vn 0.195047 0.035251 0.980160
vn 0.209602 0.024523 0.977479
vn 0.209602 0.024523 0.977479
vn 0.209602 0.024523 0.977479
vn 0.209602 0.024523 0.977479
vn -0.272671 -0.004251 -0.962098
vn -0.272671 -0.004251 -0.962098
vn -0.272671 -0.004251 -0.962098
vn -0.272671 -0.004251 -0.962098
vn -0.077548 -0.996960 -0.007612
vn -0.077548 -0.996960 -0.007612
vn -0.077548 -0.996960 -0.007612
vn -0.077548 -0.996960 -0.007612
vn -0.060808 0.854910 0.515200
vn 0.016117 0.995808 0.090032
vn -0.056963 0.867083 0.494897
vn -0.060808 0.854910 0.515200
vn -0.001075 -1.000000 -0.000132
vn -0.001075 -0.999999 -0.000132
vn -0.001075 -0.999999 -0.000132
vn -0.001075 -0.999999 -0.000132
vn 0.142033 0.000416 -0.989862
vn 0.034495 0.001453 -0.999404
vn 0.034381 0.002072 -0.999407
vn 0.140966 0.001218 -0.990014
vn 0.424490 -0.003095 -0.905427
vn 0.423007 -0.001963 -0.906124
vn 0.027136 0.999293 0.026034
vn 0.027136 0.999293 0.026034
vn -0.225821 0.070895 -0.971586
vn -0.225821 0.070895 -0.971586
vn -0.225821 0.070895 -0.971586
vn 0.219792 -0.258594 -0.940649
vn 0.109011 -0.266965 -0.957521
vn 0.456786 -0.351750 -0.817079
vn 0.214381 -0.498473 -0.839979
vn -0.255982 0.004881 -0.966669
vn -0.345935 0.005597 -0.938242
vn -0.351969 0.006688 -0.935988
vn -0.255825 0.004996 -0.966710
vn 0.499949 -0.003364 -0.866048
vn 0.500497 -0.004356 -0.865727
vn -0.194808 0.036172 -0.980174
vn -0.232709 0.031898 -0.972023
vn -0.231007 0.028157 -0.972545
vn -0.234022 0.034789 -0.971609
vn -0.234023 0.034789 -0.971609
vn -0.414433 0.006593 -0.910056
vn -0.305767 0.020041 -0.951895
vn -0.305767 0.020041 -0.951896
vn 0.173042 -0.713856 -0.678576
vn 0.173042 -0.713856 -0.678576
vn 0.173042 -0.713856 -0.678576
vn 0.566309 -0.281351 -0.774684
vn 0.004519 -0.629179 -0.777247
vn 0.004519 -0.629179 -0.777247
vn 0.004519 -0.629179 -0.777247
vn -0.227730 0.020979 -0.973498
vn -0.227730 0.020979 -0.973498
vn 0.368432 -0.549541 -0.749841
vn 0.368432 -0.549541 -0.749841
vn -0.417900 0.006150 -0.908472
vn -0.195047 0.035251 -0.980160
vn -0.195047 0.035251 -0.980160
vn -0.209602 0.024523 -0.977479
vn -0.209602 0.024523 -0.977479
vn -0.209602 0.024523 -0.977479
vn -0.209602 0.024523 -0.977479
vn 0.272671 -0.004251 -0.962098
vn 0.272671 -0.004251 -0.962098
vn 0.272671 -0.004251 -0.962098
vn 0.272671 -0.004251 -0.962098
vn 0.077548 -0.996960 -0.007612
vn 0.077548 -0.996960 -0.007612
vn 0.077548 -0.996960 -0.007612
vn 0.077548 -0.996960 -0.007612
vn 0.060808 0.854910 0.515200
vn 0.060808 0.854910 0.515200
vn 0.056963 0.867083 0.494897
vn -0.016117 0.995808 0.090032
vn 0.001075 -1.000000 -0.000132
vn 0.001075 -1.000000 -0.000132
vn 0.001075 -1.000000 -0.000132
vn 0.001075 -0.999999 -0.000132
vn -0.142033 0.000416 -0.989862
vn -0.140966 0.001218 -0.990014
vn -0.034381 0.002072 -0.999407
vn -0.034495 0.001453 -0.999404
vn -0.424490 -0.003095 -0.905428
vn -0.423008 -0.001963 -0.906124
vn -0.027136 0.999293 0.026034
vn -0.027136 0.999293 0.026034
vn 0.225821 0.070895 -0.971586
vn 0.225821 0.070895 -0.971586
vn 0.225821 0.070895 -0.971586
vn -0.109010 -0.266961 -0.957522
vn -0.219790 -0.258591 -0.940650
vn -0.456785 -0.351748 -0.817081
vn -0.214378 -0.498467 -0.839984
vn 0.255982 0.004881 -0.966669
vn 0.255825 0.004996 -0.966710
vn 0.351970 0.006688 -0.935988
vn 0.345935 0.005597 -0.938242
vn -0.500497 -0.004356 -0.865727
vn -0.499949 -0.003364 -0.866048
vn 0.194808 0.036172 -0.980174
vn 0.232709 0.031898 -0.972023
vn 0.234022 0.034789 -0.971609
vn 0.234022 0.034789 -0.971609
vn 0.231007 0.028157 -0.972545
vn 0.414433 0.006593 -0.910056
vn 0.305767 0.020041 -0.951895
vn 0.305767 0.020041 -0.951895
vn -0.173042 -0.713856 -0.678576
vn -0.173042 -0.713856 -0.678576
vn -0.173042 -0.713856 -0.678576
vn -0.566309 -0.281351 -0.774684
vn -0.004519 -0.629179 -0.777247
vn -0.004519 -0.629179 -0.777247
vn -0.004519 -0.629179 -0.777247
vn 0.227730 0.020979 -0.973498
vn 0.227730 0.020979 -0.973498
vn -0.368433 -0.549541 -0.749841
vn -0.368433 -0.549541 -0.749841
vn 0.417900 0.006150 -0.908472
vn 0.195047 0.035251 -0.980160
vn 0.195047 0.035251 -0.980160
vn 0.209601 0.024523 -0.977479
vn 0.209601 0.024523 -0.977479
vn 0.209601 0.024523 -0.977479
vn 0.209601 0.024523 -0.977479
s off
g polySurface1
f 6/1/1 7/2/2 9/3/3 8/4/4
f 7/2/5 1/5/6 29/6/7 4/7/8
s 1
f 6/1/9 18/8/10 24/9/11 25/10/12
s off
f 1/5/13 7/2/14 6/1/15 25/10/16
s 2
f 23/11/17 24/9/18 18/8/19 17/12/20
f 20/13/21 19/14/22 24/9/18 23/11/17
s 1
f 25/10/12 24/9/11 19/14/23 1/5/24
s off
f 2/15/25 5/16/26 3/17/27
s 2
f 17/12/20 16/18/28 22/19/29 23/11/17
f 23/11/17 22/19/29 21/20/30 20/13/21
f 16/18/28 27/21/31 21/20/30 22/19/29
s 3
f 1/5/32 15/22/33 28/23/34 29/6/35
s 2
f 20/13/21 15/22/36 1/5/37 19/14/22
s 3
f 15/22/33 12/24/38 28/23/34
s 4
f 10/25/39 2/15/40 3/17/41 11/26/42
s 3
f 13/27/43 28/23/34 30/28/44 11/26/45
s off
f 26/29/46 27/21/47 14/30/48
s 2
f 20/13/21 21/20/30 12/24/49 15/22/36
s off
f 27/21/50 16/18/51 14/30/52
s 4
f 30/28/53 31/31/54 10/25/39 11/26/42
s 2
f 21/20/30 27/21/55 26/29/56 12/24/49
s 3
f 29/6/35 28/23/34 13/27/43 4/7/57
f 30/28/58 28/23/34 12/24/38 26/29/59
s off
f 31/31/60 30/28/61 26/29/62 14/30/63
f 6/1/64 8/4/65 36/32/66 35/33/67
f 35/33/68 34/34/69 51/35/70 32/36/71
s 5
f 6/1/72 47/37/73 46/38/74 18/8/75
s off
f 32/36/76 47/37/77 6/1/78 35/33/79
s 6
f 45/39/80 17/12/81 18/8/82 46/38/83
f 42/40/84 45/39/80 46/38/83 41/41/85
s 5
f 47/37/73 32/36/86 41/41/87 46/38/74
s off
f 2/15/88 33/42/89 5/16/90
s 6
f 17/12/81 45/39/80 44/43/91 16/18/92
f 45/39/80 42/40/84 43/44/93 44/43/91
f 16/18/92 44/43/91 43/44/93 49/45/94
s 7
f 32/36/95 51/35/96 50/46/97 40/47/98
s 6
f 42/40/84 41/41/85 32/36/99 40/47/100
s 7
f 40/47/98 50/46/97 38/48/101
s 8
f 10/25/102 37/49/103 33/42/104 2/15/105
s 7
f 39/50/106 37/49/107 52/51/108 50/46/97
s off
f 48/52/109 14/30/110 49/45/111
s 6
f 42/40/84 40/47/100 38/48/112 43/44/93
s off
f 49/45/113 14/30/114 16/18/115
s 8
f 52/51/116 37/49/103 10/25/102 31/31/117
s 6
f 43/44/93 38/48/112 48/52/118 49/45/119
s 7
f 51/35/96 34/34/120 39/50/106 50/46/97
f 52/51/121 48/52/122 38/48/101 50/46/97
s off
f 31/31/123 14/30/124 48/52/125 52/51/126
f 57/53/127 59/54/128 60/55/129 58/56/130
f 58/56/131 56/57/132 80/58/133 53/59/134
s 9
f 57/53/135 76/60/136 75/61/137 69/62/138
s off
f 53/59/139 76/60/140 57/53/141 58/56/142
s 10
f 74/63/143 68/64/144 69/62/145 75/61/146
f 71/65/147 74/63/143 75/61/146 70/66/148
s 9
f 76/60/136 53/59/149 70/66/150 75/61/137
s off
f 54/67/151 55/68/152 5/16/153
s 10
f 68/64/144 74/63/143 73/69/154 67/70/155
f 74/63/143 71/65/147 72/71/156 73/69/154
f 67/70/155 73/69/154 72/71/156 78/72/157
s 11
f 53/59/158 80/58/159 79/73/160 66/74/161
s 10
f 71/65/147 70/66/148 53/59/162 66/74/163
s 11
f 66/74/161 79/73/160 63/75/164
s 12
f 61/76/165 62/77/166 55/68/167 54/67/168
s 11
f 64/78/169 62/77/170 81/79/171 79/73/160
s off
f 77/80/172 65/81/173 78/72/174
s 10
f 71/65/147 66/74/163 63/75/175 72/71/156
s off
f 78/72/176 65/81/177 67/70/178
s 12
f 81/79/179 62/77/166 61/76/165 82/82/180
s 10
f 72/71/156 63/75/175 77/80/181 78/72/182
s 11
f 80/58/159 56/57/183 64/78/169 79/73/160
f 81/79/184 77/80/185 63/75/164 79/73/160
s off
f 82/82/186 65/81/187 77/80/188 81/79/189
f 57/53/190 86/83/191 87/84/192 59/54/193
f 86/83/194 83/85/195 102/86/196 85/87/197
s 13
f 57/53/198 69/62/199 97/88/200 98/89/201
s off
f 83/85/202 86/83/203 57/53/204 98/89/205
s 14
f 96/90/206 97/88/207 69/62/208 68/64/209
f 93/91/210 92/92/211 97/88/207 96/90/206
s 13
f 98/89/201 97/88/200 92/92/212 83/85/213
s off
f 54/67/214 5/16/215 84/93/216
s 14
f 68/64/209 67/70/217 95/94/218 96/90/206
f 96/90/206 95/94/218 94/95/219 93/91/210
f 67/70/217 100/96/220 94/95/219 95/94/218
s 15
f 83/85/221 91/97/222 101/98/223 102/86/224
s 14
f 93/91/210 91/97/225 83/85/226 92/92/211
s 15
f 91/97/222 89/99/227 101/98/223
s 16
f 61/76/228 54/67/229 84/93/230 88/100/231
s 15
f 90/101/232 101/98/223 103/102/233 88/100/234
s off
f 99/103/235 100/96/236 65/81/237
s 14
f 93/91/210 94/95/219 89/99/238 91/97/225
s off
f 100/96/239 67/70/240 65/81/241
s 16
f 103/102/242 82/82/243 61/76/228 88/100/231
s 14
f 94/95/219 100/96/244 99/103/245 89/99/238
s 15
f 102/86/224 101/98/223 90/101/232 85/87/246
f 103/102/247 101/98/223 89/99/227 99/103/248
s off
f 82/82/249 103/102/250 99/103/251 65/81/252
