# This file uses centimeters as units for non-parametric coordinates.

g default
v 0.276533 -3.922750 -0.211800
v -0.000008 -3.922750 -0.299531
v -0.276548 -3.922750 -0.211800
v -0.391087 -3.922750 0.000000
v -0.276548 -3.922750 0.211801
v -0.000008 -3.922750 0.299532
v 0.276533 -3.922750 0.211801
v 0.391072 -3.922750 0.000000
v 0.402077 0.000000 -0.259379
v -0.000008 0.000000 -0.366818
v -0.402093 0.000000 -0.259379
v -0.568640 0.000000 0.000000
v -0.402093 0.000000 0.259380
v -0.000008 0.000000 0.366819
v 0.402077 0.000000 0.259380
v 0.568625 0.000000 0.000000
v -0.000008 -3.922750 0.000000
v -0.000008 -3.601969 -0.325832
v 0.304919 -3.601969 -0.230398
v 0.431222 -3.601969 0.000000
v 0.304919 -3.601969 0.230399
v -0.000008 -3.601969 0.325833
v -0.304935 -3.601969 0.230399
v -0.431237 -3.601969 0.000000
v -0.304935 -3.601969 -0.230398
v -0.000008 -3.836283 -0.364740
v 0.339463 -3.836283 -0.257910
v 0.480062 -3.836283 0.000000
v 0.339463 -3.836283 0.257911
v -0.000008 -3.836283 0.364741
v -0.339478 -3.836283 0.257911
v -0.480077 -3.836283 0.000000
v -0.339478 -3.836283 -0.257910
v 0.361260 -3.678802 0.273726
v -0.000008 -3.678802 0.387106
v -0.361275 -3.678802 0.273726
v -0.510910 -3.678802 0.000000
v -0.361275 -3.678802 -0.273725
v -0.000008 -3.678802 -0.387105
v 0.361260 -3.678802 -0.273725
v 0.510894 -3.678802 0.000000
v -0.382155 -0.366292 -0.249156
v -0.000008 -0.366292 -0.352360
v 0.382139 -0.366292 -0.249156
v 0.540428 -0.366292 0.000000
v 0.382139 -0.366292 0.249157
v -0.000008 -0.366292 0.352361
v -0.382155 -0.366292 0.249157
v -0.540443 -0.366292 0.000000
v -0.474946 -0.078087 -0.308319
v -0.000008 -0.078087 -0.436029
v 0.474931 -0.078087 -0.308319
v 0.671657 -0.078087 0.000000
v 0.474931 -0.078087 0.308320
v -0.000008 -0.078087 0.436030
v -0.474946 -0.078087 0.308320
v -0.671672 -0.078087 0.000000
v -0.644748 -0.274294 0.000000
v -0.455905 -0.274294 -0.296511
v -0.000008 -0.274294 -0.419330
v 0.455890 -0.274294 -0.296511
v 0.644732 -0.274294 0.000000
v 0.455890 -0.274294 0.296512
v -0.000008 -0.274294 0.419331
v -0.455905 -0.274294 0.296512
vt 0.705862 0.000000
vt 0.500000 0.000000
vt 0.500000 0.022042
vt 0.752708 0.022042
vt 0.294138 0.000000
vt 0.247292 0.022042
vt 0.208873 0.000000
vt 0.142627 0.022042
vt 0.294138 0.000000
vt 0.247292 0.022042
vt 0.500000 0.000000
vt 0.500000 0.022042
vt 0.705862 0.000000
vt 0.752708 0.022042
vt 0.791127 0.000000
vt 0.857373 0.022042
vt 0.500000 0.000000
vt 0.726993 0.081775
vt 0.500000 0.081775
vt 0.500000 0.906624
vt 0.784478 0.906624
vt 0.821016 0.081775
vt 0.902311 0.906624
vt 0.726993 0.081775
vt 0.784478 0.906624
vt 0.500000 0.081775
vt 0.500000 0.906624
vt 0.273007 0.081775
vt 0.215522 0.906624
vt 0.178985 0.081775
vt 0.097689 0.906624
vt 0.273007 0.081775
vt 0.215522 0.906624
vt 0.500000 0.062188
vt 0.768934 0.062188
vt 0.880325 0.062188
vt 0.768934 0.062188
vt 0.500000 0.062188
vt 0.231066 0.062188
vt 0.119675 0.062188
vt 0.231066 0.062188
vt 0.160621 0.930076
vt 0.500000 0.930076
vt 0.839379 0.930076
vt 0.979957 0.930076
vt 0.839379 0.930076
vt 0.500000 0.930076
vt 0.160621 0.930076
vt 0.020043 0.930076
vt 0.500000 0.980094
vt 0.146447 0.980094
vt 0.200680 1.000000
vt 0.500000 1.000000
vt 0.853553 0.980094
vt 0.799320 1.000000
vt 1.000000 0.980094
vt 0.923301 1.000000
vt 0.853553 0.980094
vt 0.799320 1.000000
vt 0.500000 0.980094
vt 0.500000 1.000000
vt 0.146447 0.980094
vt 0.200680 1.000000
vt 0.000000 0.980094
vt 0.076699 1.000000
vn 0.260402 -0.893069 -0.366903
vn 0.000000 -0.882772 -0.469802
vn 0.000000 -0.308000 -0.951386
vn 0.573747 -0.340569 -0.744867
vn -0.260402 -0.893068 -0.366906
vn -0.573746 -0.340569 -0.744868
vn -0.419184 -0.907902 -0.000000
vn -0.924566 -0.381022 0.000000
vn -0.260402 -0.893068 0.366906
vn -0.573746 -0.340569 0.744868
vn -0.000000 -0.882772 0.469802
vn -0.000000 -0.308000 0.951386
vn 0.260402 -0.893069 0.366904
vn 0.573747 -0.340569 0.744868
vn 0.419184 -0.907902 0.000000
vn 0.924566 -0.381022 -0.000000
vn 0.000000 -1.000000 0.000000
vn 0.569479 -0.018333 -0.821802
vn 0.000000 -0.010447 -0.999946
vn 0.000000 -0.010447 -0.999945
vn 0.575245 -0.018494 -0.817772
vn 0.999534 -0.030514 -0.000000
vn 0.999534 -0.030514 -0.000000
vn 0.569479 -0.018333 0.821802
vn 0.575245 -0.018494 0.817772
vn -0.000000 -0.010447 0.999946
vn -0.000000 -0.010447 0.999945
vn -0.569479 -0.018333 0.821802
vn -0.575245 -0.018494 0.817772
vn -0.999534 -0.030514 0.000000
vn -0.999534 -0.030514 0.000000
vn -0.569479 -0.018332 -0.821802
vn -0.575245 -0.018494 -0.817772
vn 0.000000 0.133271 -0.991080
vn 0.614209 0.139625 -0.776693
vn 0.989501 0.144526 0.000000
vn 0.614209 0.139625 0.776693
vn -0.000000 0.133271 0.991080
vn -0.614210 0.139625 0.776692
vn -0.989501 0.144525 -0.000000
vn -0.614210 0.139625 -0.776692
vn 0.432704 0.662318 0.611639
vn 0.000000 0.622602 0.782539
vn -0.432705 0.662320 0.611636
vn -0.693301 0.720648 0.000000
vn -0.432705 0.662320 -0.611636
vn 0.000000 0.622602 -0.782539
vn 0.432704 0.662319 -0.611639
vn 0.693301 0.720648 0.000000
vn 0.000000 -0.589315 -0.807903
vn -0.384382 -0.646953 -0.658561
vn -0.530316 -0.289872 -0.796705
vn 0.000000 -0.252958 -0.967477
vn 0.384382 -0.646953 -0.658561
vn 0.530316 -0.289872 -0.796705
vn 0.662247 -0.749286 -0.000000
vn 0.939536 -0.342451 -0.000000
vn 0.384382 -0.646953 0.658561
vn 0.530316 -0.289871 0.796705
vn -0.000000 -0.589315 0.807904
vn -0.000000 -0.252958 0.967477
vn -0.384382 -0.646953 0.658561
vn -0.530316 -0.289872 0.796705
vn -0.662246 -0.749286 0.000000
vn -0.939536 -0.342451 0.000000
vn 0.000000 0.156899 -0.987615
vn -0.557067 0.170219 -0.812836
vn -0.352189 0.710746 -0.608936
vn 0.000000 0.661305 -0.750117
vn 0.557067 0.170219 -0.812836
vn 0.352189 0.710746 -0.608936
vn 0.983335 0.181805 0.000000
vn 0.601906 0.798567 0.000000
vn 0.557067 0.170219 0.812836
vn 0.352189 0.710746 0.608936
vn 0.000000 0.156899 0.987615
vn -0.000000 0.661305 0.750117
vn -0.557067 0.170219 0.812836
vn -0.352189 0.710746 0.608936
vn -0.983335 0.181805 -0.000000
vn -0.601906 0.798567 0.000000
s 1
g grip_cav_sidesword
f 1/1/1 2/2/2 26/3/3 27/4/4
f 2/2/2 3/5/5 33/6/6 26/3/3
f 3/5/5 4/7/7 32/8/8 33/6/6
f 4/7/7 5/9/9 31/10/10 32/8/8
f 5/9/9 6/11/11 30/12/12 31/10/10
f 6/11/11 7/13/13 29/14/14 30/12/12
f 7/13/13 8/15/15 28/16/16 29/14/14
f 8/15/15 1/1/1 27/4/4 28/16/16
f 2/2/2 1/1/1 17/17/17
f 3/5/5 2/2/2 17/17/17
f 4/7/7 3/5/5 17/17/17
f 5/9/9 4/7/7 17/17/17
f 6/11/11 5/9/9 17/17/17
f 7/13/13 6/11/11 17/17/17
f 8/15/15 7/13/13 17/17/17
f 1/1/1 8/15/15 17/17/17
s 2
f 19/18/18 18/19/19 43/20/20 44/21/21
f 20/22/22 19/18/18 44/21/21 45/23/23
f 21/24/24 20/22/22 45/23/23 46/25/25
f 22/26/26 21/24/24 46/25/25 47/27/27
f 23/28/28 22/26/26 47/27/27 48/29/29
f 24/30/30 23/28/28 48/29/29 49/31/31
f 25/32/32 24/30/30 49/31/31 42/33/33
f 18/19/19 25/32/32 42/33/33 43/20/20
s 1
f 27/4/4 26/3/3 39/34/34 40/35/35
f 28/16/16 27/4/4 40/35/35 41/36/36
f 29/14/14 28/16/16 41/36/36 34/37/37
f 30/12/12 29/14/14 34/37/37 35/38/38
f 31/10/10 30/12/12 35/38/38 36/39/39
f 32/8/8 31/10/10 36/39/39 37/40/40
f 33/6/6 32/8/8 37/40/40 38/41/41
f 26/3/3 33/6/6 38/41/41 39/34/34
f 35/38/38 34/37/37 21/24/42 22/26/43
f 36/39/39 35/38/38 22/26/43 23/28/44
f 37/40/40 36/39/39 23/28/44 24/30/45
f 38/41/41 37/40/40 24/30/45 25/32/46
f 39/34/34 38/41/41 25/32/46 18/19/47
f 40/35/35 39/34/34 18/19/47 19/18/48
f 41/36/36 40/35/35 19/18/48 20/22/49
f 34/37/37 41/36/36 20/22/49 21/24/42
s 3
f 43/20/50 42/33/51 59/42/52 60/43/53
f 44/21/54 43/20/50 60/43/53 61/44/55
f 45/23/56 44/21/54 61/44/55 62/45/57
f 46/25/58 45/23/56 62/45/57 63/46/59
f 47/27/60 46/25/58 63/46/59 64/47/61
f 48/29/62 47/27/60 64/47/61 65/48/63
f 49/31/64 48/29/62 65/48/63 58/49/65
f 42/33/51 49/31/64 58/49/65 59/42/52
f 51/50/66 50/51/67 11/52/68 10/53/69
f 52/54/70 51/50/66 10/53/69 9/55/71
f 53/56/72 52/54/70 9/55/71 16/57/73
f 54/58/74 53/56/72 16/57/73 15/59/75
f 55/60/76 54/58/74 15/59/75 14/61/77
f 56/62/78 55/60/76 14/61/77 13/63/79
f 57/64/80 56/62/78 13/63/79 12/65/81
f 50/51/67 57/64/80 12/65/81 11/52/68
f 59/42/52 58/49/65 57/64/80 50/51/67
f 60/43/53 59/42/52 50/51/67 51/50/66
f 61/44/55 60/43/53 51/50/66 52/54/70
f 62/45/57 61/44/55 52/54/70 53/56/72
f 63/46/59 62/45/57 53/56/72 54/58/74
f 64/47/61 63/46/59 54/58/74 55/60/76
f 65/48/63 64/47/61 55/60/76 56/62/78
f 58/49/65 65/48/63 56/62/78 57/64/80
