# This file uses centimeters as units for non-parametric coordinates.

g default
v 0.230548 -3.308329 -0.229676
v 0.000000 -3.308329 -0.324811
v -0.230548 -3.308329 -0.229676
v -0.326044 -3.308329 0.000000
v -0.230548 -3.308329 0.229676
v 0.000000 -3.308329 0.324811
v 0.230548 -3.308329 0.229676
v 0.326044 -3.308329 0.000000
v 0.379134 0.000000 -0.307008
v 0.000000 0.000000 -0.434175
v -0.379134 0.000000 -0.307008
v -0.536177 0.000000 0.000000
v -0.379134 0.000000 0.307008
v 0.000000 0.000000 0.434175
v 0.379134 0.000000 0.307008
v 0.536177 0.000000 0.000000
v 0.000000 -3.308329 0.000000
v 0.000000 0.000000 0.000000
v 0.239470 -3.078589 0.233825
v 0.000000 -3.078589 0.330679
v -0.239470 -3.078589 0.233825
v -0.338661 -3.078589 0.000000
v -0.239470 -3.078589 -0.233825
v 0.000000 -3.078589 -0.330679
v 0.239470 -3.078589 -0.233825
v 0.338661 -3.078589 0.000000
v -0.459819 -0.354985 0.000000
v -0.325141 -0.354985 -0.267516
v 0.000000 -0.354985 -0.378325
v 0.325141 -0.354985 -0.267516
v 0.459819 -0.354985 0.000000
v 0.325141 -0.354985 0.267516
v 0.000000 -0.354985 0.378325
v -0.325141 -0.354985 0.267516
v 0.316470 -2.108015 0.286310
v 0.000000 -2.108015 0.404904
v -0.316470 -2.108015 0.286310
v -0.447556 -2.108015 0.000000
v -0.316470 -2.108015 -0.286310
v 0.000000 -2.108015 -0.404904
v 0.316470 -2.108015 -0.286310
v 0.447556 -2.108015 0.000000
v 0.424250 -3.185843 0.000000
v 0.299990 -3.185843 0.295635
v 0.000000 -3.185843 0.418090
v -0.299990 -3.185843 0.295635
v -0.424250 -3.185843 0.000000
v -0.299990 -3.185843 -0.295635
v 0.000000 -3.185843 -0.418090
v 0.299990 -3.185843 -0.295635
v 0.416993 -0.173148 0.341219
v -0.000000 -0.173148 0.482557
v -0.416993 -0.173148 0.341219
v -0.589717 -0.173148 -0.000000
v -0.416993 -0.173148 -0.341219
v -0.000000 -0.173148 -0.482557
v 0.416993 -0.173148 -0.341219
v 0.589717 -0.173148 -0.000000
vt 0.610485 0.045765
vt 0.500000 0.000000
vt 0.389515 0.045765
vt 0.343750 0.156250
vt 0.389515 0.266735
vt 0.500000 0.312500
vt 0.610485 0.266735
vt 0.656250 0.156250
vt 0.375000 0.312500
vt 0.406250 0.312500
vt 0.437500 0.312500
vt 0.468750 0.312500
vt 0.500000 0.312500
vt 0.531250 0.312500
vt 0.562500 0.312500
vt 0.593750 0.312500
vt 0.625000 0.312500
vt 0.375000 0.688440
vt 0.406250 0.688440
vt 0.437500 0.688440
vt 0.468750 0.688440
vt 0.500000 0.688440
vt 0.531250 0.688440
vt 0.562500 0.688440
vt 0.593750 0.688440
vt 0.625000 0.688440
vt 0.610485 0.733265
vt 0.500000 0.687500
vt 0.389515 0.733265
vt 0.343750 0.843750
vt 0.389515 0.954235
vt 0.500000 1.000000
vt 0.610485 0.954235
vt 0.656250 0.843750
vt 0.500000 0.150000
vt 0.500000 0.837500
vt 0.562500 0.339399
vt 0.531250 0.339399
vt 0.500000 0.339399
vt 0.468750 0.339399
vt 0.437500 0.339399
vt 0.406250 0.339399
vt 0.625000 0.339399
vt 0.375000 0.339399
vt 0.593750 0.339399
vt 0.468750 0.649496
vt 0.437500 0.649496
vt 0.406250 0.649496
vt 0.625000 0.649496
vt 0.375000 0.649496
vt 0.593750 0.649496
vt 0.562500 0.649496
vt 0.531250 0.649496
vt 0.500000 0.649496
vt 0.562500 0.457181
vt 0.531250 0.457181
vt 0.500000 0.457181
vt 0.468750 0.457181
vt 0.437500 0.457181
vt 0.406250 0.457181
vt 0.625000 0.457181
vt 0.375000 0.457181
vt 0.593750 0.457181
vt 0.593750 0.326841
vt 0.562500 0.326841
vt 0.531250 0.326841
vt 0.500000 0.326841
vt 0.468750 0.326841
vt 0.437500 0.326841
vt 0.406250 0.326841
vt 0.625000 0.326841
vt 0.375000 0.326841
vt 0.562500 0.662598
vt 0.531250 0.662598
vt 0.500000 0.662598
vt 0.468750 0.662598
vt 0.437500 0.662598
vt 0.406250 0.662598
vt 0.625000 0.662598
vt 0.375000 0.662598
vt 0.593750 0.662598
vn 0.552371 -0.615727 -0.561931
vn -0.000000 -0.608240 -0.793754
vn 0.000000 -0.026641 -0.999645
vn 0.703442 -0.036726 -0.709803
vn -0.552371 -0.615726 -0.561932
vn -0.703442 -0.036726 -0.709803
vn -0.782015 -0.623260 0.000000
vn -0.998906 -0.046757 0.000000
vn -0.552371 -0.615726 0.561932
vn -0.703442 -0.036726 0.709803
vn -0.000000 -0.608239 0.793754
vn -0.000000 -0.026641 0.999645
vn 0.552371 -0.615726 0.561932
vn 0.703442 -0.036726 0.709803
vn 0.782015 -0.623260 0.000000
vn 0.998906 -0.046757 0.000000
vn 0.000000 -1.000000 0.000000
vn 0.000000 -1.000000 -0.000001
vn 0.000000 -1.000000 0.000000
vn 0.000000 -1.000000 0.000002
vn 0.000000 -1.000000 0.000000
vn 0.000000 -1.000000 -0.000002
vn 0.000000 -1.000000 0.000000
vn 0.000000 -1.000000 0.000002
vn 0.000000 -1.000000 0.000001
vn 0.000000 1.000000 0.000000
vn 0.000000 1.000000 0.000000
vn 0.000000 1.000000 0.000000
vn 0.000000 1.000000 0.000000
vn 0.000000 1.000000 0.000000
vn 0.000000 1.000000 0.000000
vn 0.000000 1.000000 0.000000
vn 0.000000 1.000000 0.000000
vn 0.000000 1.000000 0.000000
vn -0.000000 -0.080387 0.996764
vn 0.677014 -0.093143 0.730052
vn 0.662991 -0.027382 0.748126
vn -0.000000 -0.017716 0.999843
vn -0.677014 -0.093143 0.730052
vn -0.662991 -0.027382 0.748126
vn -0.994247 -0.107116 0.000000
vn -0.999266 -0.038319 0.000000
vn -0.677014 -0.093143 -0.730052
vn -0.662991 -0.027382 -0.748126
vn -0.000000 -0.080387 -0.996764
vn -0.000000 -0.017716 -0.999843
vn 0.677014 -0.093143 -0.730052
vn 0.662991 -0.027382 -0.748126
vn 0.994247 -0.107116 0.000000
vn 0.999266 -0.038319 0.000000
vn -0.522710 -0.533476 -0.664965
vn -0.814578 -0.580053 0.000000
vn -0.985737 -0.168291 0.000000
vn -0.639080 -0.150052 -0.754361
vn 0.000000 -0.498524 -0.866876
vn -0.000000 -0.133291 -0.991077
vn 0.522710 -0.533476 -0.664965
vn 0.639080 -0.150052 -0.754361
vn 0.814578 -0.580054 0.000000
vn 0.985737 -0.168291 -0.000000
vn 0.522710 -0.533476 0.664965
vn 0.639080 -0.150052 0.754361
vn 0.000000 -0.498524 0.866876
vn -0.000000 -0.133291 0.991077
vn -0.522710 -0.533476 0.664965
vn -0.639080 -0.150052 0.754361
vn 0.655380 0.004834 0.755284
vn 0.000000 0.012056 0.999927
vn -0.655380 0.004834 0.755284
vn -0.999994 -0.003399 0.000000
vn -0.655380 0.004834 -0.755284
vn 0.000000 0.012056 -0.999927
vn 0.655380 0.004834 -0.755284
vn 0.999994 -0.003399 0.000000
vn 0.779824 0.625999 0.000000
vn 0.545384 0.627794 0.555366
vn 0.000000 0.629583 0.776933
vn -0.545384 0.627794 0.555365
vn -0.779824 0.625999 0.000000
vn -0.545384 0.627794 -0.555365
vn 0.000000 0.629583 -0.776933
vn 0.545384 0.627794 -0.555366
vn 0.600323 0.279404 0.749363
vn 0.000000 0.265491 0.964113
vn -0.600323 0.279404 0.749363
vn -0.954020 0.299743 -0.000000
vn -0.600323 0.279404 -0.749363
vn 0.000000 0.265491 -0.964113
vn 0.600323 0.279404 -0.749363
vn 0.954020 0.299743 0.000000
s 1
g grip_rapier
f 1/9/1 2/10/2 49/70/3 50/72/4
f 2/10/2 3/11/5 48/69/6 49/70/3
f 3/11/5 4/12/7 47/68/8 48/69/6
f 4/12/7 5/13/9 46/67/10 47/68/8
f 5/13/9 6/14/11 45/66/12 46/67/10
f 6/14/11 7/15/13 44/65/14 45/66/12
f 7/15/13 8/16/15 43/64/16 44/65/14
f 8/16/15 1/17/1 50/71/4 43/64/16
s 2
f 2/2/17 1/1/18 17/35/19
f 3/3/20 2/2/17 17/35/19
f 4/4/21 3/3/20 17/35/19
f 5/5/22 4/4/21 17/35/19
f 6/6/23 5/5/22 17/35/19
f 7/7/24 6/6/23 17/35/19
f 8/8/25 7/7/24 17/35/19
f 1/1/18 8/8/25 17/35/19
s 3
f 9/33/26 10/32/27 18/36/28
f 10/32/27 11/31/29 18/36/28
f 11/31/29 12/30/30 18/36/28
f 12/30/30 13/29/31 18/36/28
f 13/29/31 14/28/32 18/36/28
f 14/28/32 15/27/33 18/36/28
f 15/27/33 16/34/34 18/36/28
f 16/34/34 9/33/26 18/36/28
s 4
f 20/38/35 19/37/36 35/55/37 36/56/38
f 21/39/39 20/38/35 36/56/38 37/57/40
f 22/40/41 21/39/39 37/57/40 38/58/42
f 23/41/43 22/40/41 38/58/42 39/59/44
f 24/42/45 23/41/43 39/59/44 40/60/46
f 25/44/47 24/42/45 40/60/46 41/62/48
f 26/45/49 25/43/47 41/61/48 42/63/50
f 19/37/36 26/45/49 42/63/50 35/55/37
s 5
f 28/47/51 27/46/52 54/76/53 55/77/54
f 29/48/55 28/47/51 55/77/54 56/78/56
f 30/50/57 29/48/55 56/78/56 57/80/58
f 31/51/59 30/49/57 57/79/58 58/81/60
f 32/52/61 31/51/59 58/81/60 51/73/62
f 33/53/63 32/52/61 51/73/62 52/74/64
f 34/54/65 33/53/63 52/74/64 53/75/66
f 27/46/52 34/54/65 53/75/66 54/76/53
s 4
f 36/56/38 35/55/37 32/52/67 33/53/68
f 37/57/40 36/56/38 33/53/68 34/54/69
f 38/58/42 37/57/40 34/54/69 27/46/70
f 39/59/44 38/58/42 27/46/70 28/47/71
f 40/60/46 39/59/44 28/47/71 29/48/72
f 41/62/48 40/60/46 29/48/72 30/50/73
f 42/63/50 41/61/48 30/49/73 31/51/74
f 35/55/37 42/63/50 31/51/74 32/52/67
s 1
f 44/65/14 43/64/16 26/45/75 19/37/76
f 45/66/12 44/65/14 19/37/76 20/38/77
f 46/67/10 45/66/12 20/38/77 21/39/78
f 47/68/8 46/67/10 21/39/78 22/40/79
f 48/69/6 47/68/8 22/40/79 23/41/80
f 49/70/3 48/69/6 23/41/80 24/42/81
f 50/72/4 49/70/3 24/42/81 25/44/82
f 43/64/16 50/71/4 25/43/82 26/45/75
s 5
f 52/74/64 51/73/62 15/24/83 14/23/84
f 53/75/66 52/74/64 14/23/84 13/22/85
f 54/76/53 53/75/66 13/22/85 12/21/86
f 55/77/54 54/76/53 12/21/86 11/20/87
f 56/78/56 55/77/54 11/20/87 10/19/88
f 57/80/58 56/78/56 10/19/88 9/18/89
f 58/81/60 57/79/58 9/26/89 16/25/90
f 51/73/62 58/81/60 16/25/90 15/24/83
