# This file uses centimeters as units for non-parametric coordinates.

g default
v -2.553061 0.618057 0.138819
v 0.000000 0.000000 0.557896
v -1.574378 1.773757 0.104734
v 0.000000 1.036145 0.340196
v -2.661461 0.614618 0.000000
v 0.000000 -0.025005 0.000000
v -1.579917 1.854106 0.000000
v 0.000000 1.047295 0.000000
v 0.000000 0.437251 0.467025
v -2.108918 1.328520 0.128426
v -2.201820 1.349871 0.000000
v -0.404946 0.831444 0.000000
v -0.388506 0.827914 0.292737
v -0.498798 0.497975 0.396426
v -0.901459 0.043557 0.465455
v -0.926233 0.021462 0.000000
v -1.051937 1.223926 0.000000
v -1.042259 1.186680 0.199186
v -1.347413 0.848470 0.268400
v -1.672755 0.260888 0.333203
v -1.731790 0.249660 0.000000
v -0.693450 0.917880 0.254068
v -0.706509 0.938268 0.000000
v -0.168946 0.852735 0.325415
v -0.177166 0.860075 0.000000
v -2.553061 0.618057 -0.138819
v 0.000000 0.000000 -0.557896
v -1.574378 1.773757 -0.104734
v 0.000000 1.036145 -0.340196
v 0.000000 0.437251 -0.467025
v -2.108918 1.328520 -0.128426
v -0.388506 0.827914 -0.292737
v -0.498798 0.497975 -0.396426
v -0.901459 0.043557 -0.465455
v -1.042259 1.186680 -0.199186
v -1.347413 0.848470 -0.268400
v -1.672755 0.260888 -0.333203
v -0.693450 0.917880 -0.254068
v -0.168946 0.852735 -0.325415
v 2.553061 0.618057 -0.138819
v 1.574378 1.773757 -0.104734
v 2.661461 0.614618 0.000000
v 1.579917 1.854106 0.000000
v 2.108918 1.328520 -0.128426
v 2.201820 1.349871 0.000000
v 0.404946 0.831444 0.000000
v 0.388506 0.827914 -0.292737
v 0.498798 0.497975 -0.396426
v 0.901459 0.043557 -0.465455
v 0.926233 0.021462 0.000000
v 1.051937 1.223926 0.000000
v 1.042259 1.186680 -0.199186
v 1.347413 0.848470 -0.268400
v 1.672755 0.260888 -0.333203
v 1.731790 0.249660 0.000000
v 0.693450 0.917880 -0.254068
v 0.706509 0.938268 0.000000
v 0.168946 0.852735 -0.325415
v 0.177166 0.860075 0.000000
v 2.553061 0.618057 0.138819
v 1.574378 1.773757 0.104734
v 2.108918 1.328520 0.128426
v 0.388506 0.827914 0.292737
v 0.498798 0.497975 0.396426
v 0.901459 0.043557 0.465455
v 1.042259 1.186680 0.199186
v 1.347413 0.848470 0.268400
v 1.672755 0.260888 0.333203
v 0.693450 0.917880 0.254068
v 0.168946 0.852735 0.325415
vt 0.020365 0.342216
vt 0.103804 0.720301
vt 0.086351 0.731663
vt -0.000000 0.340386
vt 0.204227 0.957241
vt 0.203186 1.000000
vt 0.500000 -0.000000
vt 0.500000 0.013307
vt 0.330646 0.036486
vt 0.325992 0.024728
vt 0.185745 0.152143
vt 0.174654 0.146168
vt 0.304194 0.644818
vt 0.302376 0.664639
vt 0.369724 0.501771
vt 0.367270 0.512621
vt 0.246866 0.464834
vt 0.427013 0.453895
vt 0.468261 0.467104
vt 0.466716 0.471010
vt 0.423924 0.455774
vt 0.500000 0.245997
vt 0.406292 0.278312
vt 0.500000 0.564708
vt 0.500000 0.570642
vt 0.020365 0.342216
vt 0.103804 0.720301
vt 0.204227 0.957241
vt 0.330646 0.036486
vt 0.500000 0.013307
vt 0.185745 0.152143
vt 0.304194 0.644818
vt 0.369724 0.501771
vt 0.246866 0.464834
vt 0.427013 0.453895
vt 0.468261 0.467104
vt 0.406292 0.278312
vt 0.500000 0.245997
vt 0.500000 0.564708
vt 0.979635 0.342216
vt 0.896195 0.720301
vt 0.913649 0.731663
vt 1.000000 0.340386
vt 0.795773 0.957241
vt 0.796814 1.000000
vt 0.669354 0.036486
vt 0.674008 0.024728
vt 0.814255 0.152143
vt 0.825346 0.146168
vt 0.695806 0.644818
vt 0.697624 0.664639
vt 0.630276 0.501771
vt 0.632729 0.512621
vt 0.753134 0.464834
vt 0.572987 0.453895
vt 0.531739 0.467104
vt 0.533283 0.471010
vt 0.576076 0.455774
vt 0.593707 0.278312
vt 0.979635 0.342216
vt 0.896195 0.720301
vt 0.795773 0.957241
vt 0.669354 0.036486
vt 0.814255 0.152143
vt 0.695806 0.644818
vt 0.630276 0.501771
vt 0.753134 0.464834
vt 0.572987 0.453895
vt 0.531739 0.467104
vt 0.593707 0.278312
vn -0.701713 0.442686 0.558237
vn -0.624469 0.561467 0.542949
vn -0.652360 0.522066 0.549430
vn -0.701713 0.442686 0.558237
vn -0.536683 0.666581 0.517341
vn -0.536683 0.666581 0.517341
vn -0.051521 -0.997558 0.047160
vn -0.051521 -0.997558 0.047160
vn -0.132426 -0.989651 0.055273
vn -0.147910 -0.987369 0.056794
vn -0.309476 -0.945805 0.098373
vn -0.325179 -0.938933 0.112531
vn 0.728078 0.650788 0.215354
vn 0.673725 0.726163 0.137045
vn 0.688995 0.707368 0.157849
vn 0.728078 0.650788 0.215354
vn -0.380671 -0.910175 0.163313
vn -0.380671 -0.910175 0.163313
vn 0.619288 0.782180 0.068392
vn 0.619288 0.782180 0.068392
vn -0.089204 0.165207 0.982217
vn -0.012261 0.293160 0.955985
vn -0.036223 0.169865 0.984801
vn -0.043621 0.163627 0.985557
vn -0.100117 0.145187 0.984326
vn -0.131308 0.134736 0.982143
vn -0.115884 0.155602 0.980999
vn 0.093760 0.995301 0.024200
vn -0.120216 0.992498 0.022249
vn -0.120216 0.992498 0.022249
vn 0.127548 0.991532 0.024409
vn -0.092176 0.195456 0.976371
vn -0.096851 0.217890 0.971156
vn -0.103450 0.227744 0.968210
vn -0.088103 0.220693 0.971356
vn -0.193739 0.256324 0.946976
vn -0.095194 0.327271 0.940123
vn 0.307082 0.951354 0.025047
vn 0.307082 0.951354 0.025047
vn -0.296539 0.197858 0.934300
vn -0.731138 0.681656 0.027964
vn -0.731138 0.681656 0.027964
vn -0.731138 0.681656 0.027964
vn -0.731138 0.681656 0.027964
vn -0.701713 0.442686 -0.558237
vn -0.701713 0.442686 -0.558237
vn -0.652360 0.522066 -0.549430
vn -0.624469 0.561467 -0.542949
vn -0.536683 0.666581 -0.517341
vn -0.536683 0.666581 -0.517341
vn -0.051521 -0.997558 -0.047160
vn -0.147910 -0.987369 -0.056794
vn -0.132426 -0.989651 -0.055273
vn -0.051521 -0.997558 -0.047160
vn -0.325179 -0.938933 -0.112531
vn -0.309476 -0.945805 -0.098373
vn 0.728078 0.650788 -0.215354
vn 0.728078 0.650788 -0.215354
vn 0.688995 0.707368 -0.157849
vn 0.673725 0.726163 -0.137045
vn -0.380671 -0.910175 -0.163313
vn -0.380671 -0.910175 -0.163313
vn 0.619288 0.782180 -0.068392
vn 0.619288 0.782180 -0.068392
vn -0.089204 0.165207 -0.982217
vn -0.036223 0.169865 -0.984801
vn -0.012261 0.293160 -0.955985
vn -0.043621 0.163627 -0.985557
vn -0.100117 0.145187 -0.984326
vn -0.115884 0.155602 -0.980999
vn -0.131308 0.134736 -0.982143
vn 0.093760 0.995301 -0.024200
vn 0.127548 0.991532 -0.024409
vn -0.120216 0.992498 -0.022249
vn -0.120216 0.992498 -0.022249
vn -0.092176 0.195456 -0.976371
vn -0.088103 0.220693 -0.971356
vn -0.103450 0.227744 -0.968210
vn -0.096851 0.217890 -0.971156
vn -0.095194 0.327270 -0.940123
vn -0.193739 0.256324 -0.946976
vn 0.307081 0.951354 -0.025047
vn 0.307081 0.951354 -0.025047
vn -0.296538 0.197858 -0.934300
vn -0.731138 0.681656 -0.027964
vn -0.731138 0.681656 -0.027964
vn -0.731138 0.681656 -0.027964
vn -0.731138 0.681656 -0.027964
vn 0.701713 0.442686 -0.558237
vn 0.624469 0.561467 -0.542949
vn 0.652360 0.522066 -0.549430
vn 0.701713 0.442686 -0.558237
vn 0.536683 0.666581 -0.517341
vn 0.536683 0.666581 -0.517341
vn 0.051521 -0.997558 -0.047160
vn 0.051521 -0.997558 -0.047160
vn 0.132426 -0.989651 -0.055273
vn 0.147910 -0.987369 -0.056794
vn 0.309476 -0.945805 -0.098373
vn 0.325179 -0.938933 -0.112531
vn -0.728078 0.650788 -0.215354
vn -0.673725 0.726163 -0.137045
vn -0.688995 0.707368 -0.157849
vn -0.728078 0.650788 -0.215354
vn 0.380671 -0.910175 -0.163313
vn 0.380671 -0.910175 -0.163313
vn -0.619288 0.782180 -0.068392
vn -0.619288 0.782180 -0.068392
vn 0.089204 0.165207 -0.982217
vn 0.012261 0.293160 -0.955985
vn 0.036223 0.169865 -0.984801
vn 0.043621 0.163627 -0.985557
vn 0.100117 0.145187 -0.984326
vn 0.131308 0.134736 -0.982143
vn 0.115884 0.155602 -0.980999
vn -0.093760 0.995301 -0.024200
vn 0.120216 0.992498 -0.022249
vn 0.120216 0.992498 -0.022249
vn -0.127548 0.991532 -0.024409
vn 0.092176 0.195456 -0.976371
vn 0.096851 0.217890 -0.971156
vn 0.103450 0.227744 -0.968210
vn 0.088103 0.220693 -0.971356
vn 0.193739 0.256324 -0.946976
vn 0.095194 0.327271 -0.940123
vn -0.307082 0.951354 -0.025047
vn -0.307082 0.951354 -0.025047
vn 0.296539 0.197858 -0.934300
vn 0.731138 0.681656 -0.027964
vn 0.731138 0.681656 -0.027964
vn 0.731138 0.681656 -0.027964
vn 0.731138 0.681656 -0.027964
vn 0.701713 0.442686 0.558237
vn 0.701713 0.442686 0.558237
vn 0.652360 0.522066 0.549430
vn 0.624469 0.561467 0.542949
vn 0.536683 0.666581 0.517341
vn 0.536683 0.666581 0.517341
vn 0.051521 -0.997558 0.047160
vn 0.147910 -0.987369 0.056794
vn 0.132426 -0.989651 0.055273
vn 0.051521 -0.997558 0.047160
vn 0.325179 -0.938933 0.112531
vn 0.309476 -0.945805 0.098373
vn -0.728078 0.650788 0.215354
vn -0.728078 0.650788 0.215354
vn -0.688995 0.707368 0.157849
vn -0.673725 0.726163 0.137045
vn 0.380671 -0.910175 0.163313
vn 0.380671 -0.910175 0.163313
vn -0.619288 0.782180 0.068392
vn -0.619288 0.782180 0.068392
vn 0.089204 0.165207 0.982217
vn 0.036223 0.169865 0.984801
vn 0.012261 0.293160 0.955985
vn 0.043621 0.163627 0.985557
vn 0.100117 0.145187 0.984326
vn 0.115884 0.155602 0.980999
vn 0.131308 0.134736 0.982143
vn -0.093760 0.995301 0.024200
vn -0.127548 0.991532 0.024409
vn 0.120216 0.992498 0.022249
vn 0.120216 0.992498 0.022249
vn 0.092176 0.195456 0.976371
vn 0.088103 0.220693 0.971356
vn 0.103450 0.227744 0.968210
vn 0.096851 0.217890 0.971156
vn 0.095194 0.327270 0.940123
vn 0.193739 0.256324 0.946976
vn -0.307081 0.951354 0.025047
vn -0.307081 0.951354 0.025047
vn 0.296538 0.197858 0.934300
vn 0.731138 0.681656 0.027964
vn 0.731138 0.681656 0.027964
vn 0.731138 0.681656 0.027964
vn 0.731138 0.681656 0.027964
s 1
g polySurface8
f 1/1/1 10/2/2 11/3/3 5/4/4
f 11/3/3 10/2/2 3/5/5 7/6/6
s 2
f 6/7/7 2/8/8 15/9/9 16/10/10
f 16/10/10 15/9/9 20/11/11 21/12/12
s 3
f 3/5/13 18/13/14 17/14/15 7/6/16
s 2
f 21/12/12 20/11/11 1/1/17 5/4/18
s 3
f 18/13/14 22/15/19 23/16/20 17/14/15
s 4
f 19/17/21 22/15/22 18/13/23
f 3/5/24 10/2/25 19/17/21 18/13/23
f 10/2/25 1/1/26 20/11/27 19/17/21
s 5
f 13/18/28 24/19/29 25/20/30 12/21/31
s 4
f 15/9/32 2/8/33 9/22/34 14/23/35
f 14/23/35 24/19/36 13/18/37
f 20/11/27 15/9/32 14/23/35 19/17/21
f 14/23/35 22/15/22 19/17/21
s 5
f 12/21/31 23/16/38 22/15/39 13/18/28
s 4
f 22/15/22 14/23/35 13/18/37
f 24/19/36 9/22/34 4/24/40
s off
f 8/25/41 25/20/42 24/19/43 4/24/44
s 4
f 24/19/36 14/23/35 9/22/34
s 7
f 26/26/45 5/4/46 11/3/47 31/27/48
f 11/3/47 7/6/49 28/28/50 31/27/48
s 8
f 6/7/51 16/10/52 34/29/53 27/30/54
f 16/10/52 21/12/55 37/31/56 34/29/53
s 9
f 28/28/57 7/6/58 17/14/59 35/32/60
s 8
f 21/12/55 5/4/61 26/26/62 37/31/56
s 9
f 35/32/60 17/14/59 23/16/63 38/33/64
s 10
f 36/34/65 35/32/66 38/33/67
f 28/28/68 35/32/66 36/34/65 31/27/69
f 31/27/69 36/34/65 37/31/70 26/26/71
s 11
f 32/35/72 12/21/73 25/20/74 39/36/75
s 10
f 34/29/76 33/37/77 30/38/78 27/30/79
f 33/37/77 32/35/80 39/36/81
f 37/31/70 36/34/65 33/37/77 34/29/76
f 33/37/77 36/34/65 38/33/67
s 11
f 12/21/73 32/35/72 38/33/82 23/16/83
s 10
f 38/33/67 32/35/80 33/37/77
f 39/36/81 29/39/84 30/38/78
s off
f 8/25/85 29/39/86 39/36/87 25/20/88
s 10
f 39/36/81 30/38/78 33/37/77
s 13
f 40/40/89 44/41/90 45/42/91 42/43/92
f 45/42/91 44/41/90 41/44/93 43/45/94
s 14
f 6/7/95 27/30/96 49/46/97 50/47/98
f 50/47/98 49/46/97 54/48/99 55/49/100
s 15
f 41/44/101 52/50/102 51/51/103 43/45/104
s 14
f 55/49/100 54/48/99 40/40/105 42/43/106
s 15
f 52/50/102 56/52/107 57/53/108 51/51/103
s 16
f 53/54/109 56/52/110 52/50/111
f 41/44/112 44/41/113 53/54/109 52/50/111
f 44/41/113 40/40/114 54/48/115 53/54/109
s 17
f 47/55/116 58/56/117 59/57/118 46/58/119
s 16
f 49/46/120 27/30/121 30/38/122 48/59/123
f 48/59/123 58/56/124 47/55/125
f 54/48/115 49/46/120 48/59/123 53/54/109
f 48/59/123 56/52/110 53/54/109
s 17
f 46/58/119 57/53/126 56/52/127 47/55/116
s 16
f 56/52/110 48/59/123 47/55/125
f 58/56/124 30/38/122 29/39/128
s off
f 8/25/129 59/57/130 58/56/131 29/39/132
s 16
f 58/56/124 48/59/123 30/38/122
s 19
f 60/60/133 42/43/134 45/42/135 62/61/136
f 45/42/135 43/45/137 61/62/138 62/61/136
s 20
f 6/7/139 50/47/140 65/63/141 2/8/142
f 50/47/140 55/49/143 68/64/144 65/63/141
s 21
f 61/62/145 43/45/146 51/51/147 66/65/148
s 20
f 55/49/143 42/43/149 60/60/150 68/64/144
s 21
f 66/65/148 51/51/147 57/53/151 69/66/152
s 22
f 67/67/153 66/65/154 69/66/155
f 61/62/156 66/65/154 67/67/153 62/61/157
f 62/61/157 67/67/153 68/64/158 60/60/159
s 23
f 63/68/160 46/58/161 59/57/162 70/69/163
s 22
f 65/63/164 64/70/165 9/22/166 2/8/167
f 64/70/165 63/68/168 70/69/169
f 68/64/158 67/67/153 64/70/165 65/63/164
f 64/70/165 67/67/153 69/66/155
s 23
f 46/58/161 63/68/160 69/66/170 57/53/171
s 22
f 69/66/155 63/68/168 64/70/165
f 70/69/169 4/24/172 9/22/166
s off
f 8/25/173 4/24/174 70/69/175 59/57/176
s 22
f 70/69/169 9/22/166 64/70/165
