# This file uses centimeters as units for non-parametric coordinates.

g default
v -4.359103 0.116852 0.118874
v 0.000000 0.000000 0.468249
v 4.359103 0.116852 0.118874
v -4.359103 0.398384 0.118874
v 0.000000 0.449173 0.468249
v 4.359103 0.398384 0.118874
v -4.359103 0.398384 -0.118874
v 0.000000 0.449173 -0.468249
v 4.359103 0.398384 -0.118874
v -4.359103 0.116852 -0.118874
v 0.000000 0.000000 -0.468249
v 4.359103 0.116852 -0.118874
vt -0.000000 0.260149
vt 0.500000 0.000000
vt 0.500000 1.000000
vt -0.000000 0.886928
vt 1.000000 0.260149
vt 1.000000 0.886928
vt 0.500000 1.000000
vt -0.000000 0.886928
vt 1.000000 0.886928
vt 0.500000 0.000000
vt -0.000000 0.260149
vt 1.000000 0.260149
vn -0.079892 0.000000 0.996804
vn 0.000000 0.000000 1.000000
vn 0.000000 0.000000 1.000000
vn -0.079892 0.000000 0.996804
vn 0.079892 0.000000 0.996804
vn 0.079892 0.000000 0.996804
vn -0.011650 0.999932 0.000000
vn 0.000000 1.000000 0.000000
vn 0.000000 1.000000 0.000000
vn -0.011650 0.999932 0.000000
vn 0.011650 0.999932 0.000000
vn 0.011650 0.999932 0.000000
vn -0.079892 0.000000 -0.996804
vn 0.000000 0.000000 -1.000000
vn 0.000000 0.000000 -1.000000
vn -0.079892 0.000000 -0.996804
vn 0.079892 0.000000 -0.996804
vn 0.079892 0.000000 -0.996804
vn -0.026797 -0.999641 0.000000
vn 0.000000 -1.000000 0.000000
vn 0.000000 -1.000000 0.000000
vn -0.026797 -0.999641 0.000000
vn 0.026797 -0.999641 0.000000
vn 0.026797 -0.999641 0.000000
vn 1.000000 0.000000 0.000000
vn 1.000000 0.000000 0.000000
vn 1.000000 0.000000 0.000000
vn 1.000000 0.000000 0.000000
vn -1.000000 0.000000 0.000000
vn -1.000000 0.000000 0.000000
vn -1.000000 0.000000 0.000000
vn -1.000000 0.000000 0.000000
s 1
g guard_blank
f 1/1/1 2/2/2 5/3/3 4/4/4
f 2/2/2 3/5/5 6/6/6 5/3/3
s 2
f 4/4/7 5/3/8 8/7/9 7/8/10
f 5/3/8 6/6/11 9/9/12 8/7/9
s 3
f 7/8/13 8/7/14 11/10/15 10/11/16
f 8/7/14 9/9/17 12/12/18 11/10/15
s 4
f 10/11/19 11/10/20 2/2/21 1/1/22
f 11/10/20 12/12/23 3/5/24 2/2/21
s off
f 3/5/25 12/12/26 9/9/27 6/6/28
f 10/11/29 1/1/30 4/4/31 7/8/32
