# This file uses centimeters as units for non-parametric coordinates.

g default
v 4.393771 0.601207 -0.080560
v 0.000000 0.000000 -0.609195
v 4.086599 1.432081 -0.080560
v 0.000000 0.374529 -0.609195
v 2.599813 0.244896 -0.148904
v 2.464115 0.757910 -0.148904
v 3.313169 0.368663 -0.103589
v 3.112122 0.980478 -0.103589
v 1.056352 0.066976 -0.460248
v 1.001748 0.465331 -0.460248
v 1.805532 0.141555 -0.265363
v 1.721338 0.574756 -0.265363
v -4.393771 0.601207 -0.080560
v -4.086599 1.432081 -0.080560
v -2.599813 0.244896 -0.148904
v -2.464115 0.757910 -0.148904
v -3.313169 0.368663 -0.103589
v -3.112122 0.980478 -0.103589
v -1.056352 0.066976 -0.460248
v -1.001748 0.465331 -0.460248
v -1.805532 0.141555 -0.265363
v -1.721338 0.574756 -0.265363
v 4.393771 0.601207 0.080560
v 0.000000 0.000000 0.609195
v 4.086599 1.432081 0.080560
v 0.000000 0.374529 0.609195
v 2.599813 0.244896 0.148904
v 2.464115 0.757910 0.148904
v 3.313169 0.368663 0.103589
v 3.112122 0.980478 0.103589
v 1.056352 0.066976 0.460248
v 1.001748 0.465331 0.460248
v 1.805532 0.141555 0.265363
v 1.721338 0.574756 0.265363
v -4.393771 0.601207 0.080560
v -4.086599 1.432081 0.080560
v -2.599813 0.244896 0.148904
v -2.464115 0.757910 0.148904
v -3.313169 0.368663 0.103589
v -3.112122 0.980478 0.103589
v -1.056352 0.066976 0.460248
v -1.001748 0.465331 0.460248
v -1.805532 0.141555 0.265363
v -1.721338 0.574756 0.265363
vt 0.965044 1.000000
vt 1.000000 0.419814
vt 0.877030 0.257432
vt 0.854151 0.684653
vt 1.000000 0.419814
vt 0.877030 0.257432
vt 0.705465 0.098846
vt 0.795852 0.171007
vt 0.795852 0.171007
vt 0.705465 0.098846
vt 0.780410 0.529237
vt 0.695884 0.401343
vt 0.500000 0.000000
vt 0.620210 0.046768
vt 0.620210 0.046768
vt 0.500000 0.000000
vt 0.613996 0.324934
vt 0.500000 0.261528
vt 0.034955 1.000000
vt 0.145848 0.684653
vt 0.122970 0.257432
vt -0.000000 0.419814
vt 0.034955 1.000000
vt 0.145848 0.684653
vt -0.000000 0.419814
vt 0.219590 0.529237
vt 0.304116 0.401343
vt 0.294535 0.098846
vt 0.204148 0.171007
vt 0.219590 0.529237
vt 0.304116 0.401343
vt 0.386004 0.324934
vt 0.379790 0.046768
vt 0.386004 0.324934
vt 0.500000 0.261528
vt 0.965044 1.000000
vt 0.854151 0.684653
vt 0.780410 0.529237
vt 0.695884 0.401343
vt 0.613996 0.324934
vt 0.122970 0.257432
vt 0.294535 0.098846
vt 0.204148 0.171007
vt 0.379790 0.046768
vn 0.020054 0.007065 -0.999774
vn 0.020054 0.007065 -0.999774
vn 0.032467 0.010465 -0.999418
vn 0.033194 0.010664 -0.999392
vn 0.191246 -0.981542 0.000000
vn 0.210382 -0.977619 0.000000
vn 0.210382 -0.977619 0.000000
vn 0.191246 -0.981542 0.000000
vn 0.108717 -0.994073 0.000000
vn 0.142730 -0.989762 0.000000
vn 0.142730 -0.989762 0.000000
vn 0.108717 -0.994073 0.000000
vn 0.100574 0.025553 -0.994601
vn 0.098450 0.025167 -0.994824
vn 0.190531 0.037147 -0.980978
vn 0.192972 0.037342 -0.980494
vn 0.000000 -1.000000 0.000000
vn 0.072982 -0.997333 0.000000
vn 0.072982 -0.997333 0.000000
vn 0.000000 -1.000000 0.000000
vn 0.190597 0.024106 -0.981372
vn 0.193003 0.024810 -0.980884
vn 0.000000 0.010170 -0.999948
vn 0.000000 0.010170 -0.999948
vn -0.020054 0.007065 -0.999774
vn -0.033194 0.010664 -0.999392
vn -0.032467 0.010465 -0.999418
vn -0.020054 0.007065 -0.999774
vn 0.375041 0.927008 0.000000
vn 0.420473 0.907305 0.000000
vn 0.420473 0.907305 0.000000
vn 0.375041 0.927008 0.000000
vn -0.937954 0.346759 0.000000
vn -0.937954 0.346759 0.000000
vn -0.937954 0.346759 0.000000
vn -0.937954 0.346759 0.000000
vn -0.100574 0.025553 -0.994601
vn -0.192972 0.037342 -0.980494
vn -0.190531 0.037147 -0.980978
vn -0.098450 0.025167 -0.994824
vn 0.178766 0.983892 0.000000
vn 0.267232 0.963632 0.000000
vn 0.267232 0.963632 0.000000
vn 0.178766 0.983892 0.000000
vn -0.190597 0.024106 -0.981372
vn -0.193003 0.024810 -0.980884
vn 0.000000 1.000000 0.000000
vn 0.106668 0.994295 0.000000
vn 0.106668 0.994295 0.000000
vn 0.000000 1.000000 0.000000
vn 0.020054 0.007065 0.999774
vn 0.033194 0.010664 0.999392
vn 0.032467 0.010465 0.999418
vn 0.020054 0.007065 0.999774
vn -0.375041 0.927008 0.000000
vn -0.375041 0.927008 0.000000
vn -0.420473 0.907305 0.000000
vn -0.420473 0.907305 0.000000
vn 0.937954 0.346759 0.000000
vn 0.937954 0.346759 0.000000
vn 0.937954 0.346759 0.000000
vn 0.937954 0.346759 0.000000
vn 0.100574 0.025553 0.994601
vn 0.192972 0.037342 0.980494
vn 0.190531 0.037147 0.980978
vn 0.098450 0.025167 0.994824
vn -0.178766 0.983892 0.000000
vn -0.178766 0.983892 0.000000
vn -0.267233 0.963632 0.000000
vn -0.267233 0.963632 0.000000
vn 0.190597 0.024106 0.981372
vn -0.000000 0.010170 0.999948
vn -0.000000 0.010170 0.999948
vn 0.193003 0.024810 0.980884
vn -0.106668 0.994295 0.000000
vn -0.106668 0.994295 0.000000
vn -0.020054 0.007065 0.999774
vn -0.020054 0.007065 0.999774
vn -0.032467 0.010465 0.999418
vn -0.033194 0.010664 0.999392
vn -0.191246 -0.981542 0.000000
vn -0.191246 -0.981542 0.000000
vn -0.210382 -0.977619 0.000000
vn -0.210382 -0.977619 0.000000
vn -0.108717 -0.994073 0.000000
vn -0.108717 -0.994073 0.000000
vn -0.142730 -0.989762 0.000000
vn -0.142730 -0.989762 0.000000
vn -0.100574 0.025553 0.994601
vn -0.098450 0.025167 0.994824
vn -0.190531 0.037147 0.980978
vn -0.192972 0.037342 0.980494
vn -0.072982 -0.997333 0.000000
vn -0.072982 -0.997333 0.000000
vn -0.190597 0.024106 0.981372
vn -0.193003 0.024810 0.980884
s 1
g polySurface12
f 3/1/1 1/2/2 7/3/3 8/4/4
s 2
f 7/3/5 1/2/6 23/5/7 29/6/8
f 11/7/9 5/8/10 27/9/11 33/10/12
s 1
f 6/11/13 5/8/14 11/7/15 12/12/16
s 2
f 5/8/10 7/3/5 29/6/8 27/9/11
s 1
f 8/4/4 7/3/3 5/8/14 6/11/13
s 2
f 2/13/17 9/14/18 31/15/19 24/16/20
s 1
f 10/17/21 9/14/22 2/13/23 4/18/24
s 2
f 9/14/18 11/7/9 33/10/12 31/15/19
s 1
f 12/12/16 11/7/15 9/14/22 10/17/21
f 14/19/25 18/20/26 17/21/27 13/22/28
s 4
f 18/20/29 14/19/30 36/23/31 40/24/32
s off
f 14/19/33 13/22/34 35/25/35 36/23/36
s 1
f 16/26/37 22/27/38 21/28/39 15/29/40
s 4
f 22/27/41 16/26/42 38/30/43 44/31/44
s 1
f 18/20/26 16/26/37 15/29/40 17/21/27
s 4
f 16/26/42 18/20/29 40/24/32 38/30/43
s 1
f 20/32/45 4/18/24 2/13/23 19/33/46
s 4
f 4/18/47 20/32/48 42/34/49 26/35/50
s 1
f 22/27/38 20/32/45 19/33/46 21/28/39
s 4
f 20/32/48 22/27/41 44/31/44 42/34/49
s 6
f 25/36/51 30/37/52 29/6/53 23/5/54
s 4
f 8/4/55 30/37/56 25/36/57 3/1/58
s off
f 3/1/59 25/36/60 23/5/61 1/2/62
s 6
f 28/38/63 34/39/64 33/10/65 27/9/66
s 4
f 12/12/67 34/39/68 28/38/69 6/11/70
s 6
f 30/37/52 28/38/63 27/9/66 29/6/53
s 4
f 6/11/70 28/38/69 30/37/56 8/4/55
s 6
f 32/40/71 26/35/72 24/16/73 31/15/74
s 4
f 4/18/47 26/35/50 32/40/75 10/17/76
s 6
f 34/39/64 32/40/71 31/15/74 33/10/65
s 4
f 10/17/76 32/40/75 34/39/68 12/12/67
s 6
f 36/23/77 35/25/78 39/41/79 40/24/80
s 2
f 17/21/81 39/41/82 35/25/83 13/22/84
f 21/28/85 43/42/86 37/43/87 15/29/88
s 6
f 38/30/89 37/43/90 43/42/91 44/31/92
s 2
f 15/29/88 37/43/87 39/41/82 17/21/81
s 6
f 40/24/80 39/41/79 37/43/90 38/30/89
s 2
f 2/13/17 24/16/20 41/44/93 19/33/94
s 6
f 42/34/95 41/44/96 24/16/73 26/35/72
s 2
f 19/33/94 41/44/93 43/42/86 21/28/85
s 6
f 44/31/92 43/42/91 41/44/96 42/34/95
