# This file uses centimeters as units for non-parametric coordinates.

g default
v 0.303005 -1.311277 -0.303005
v 0.000000 -1.311277 -0.428513
v -0.303005 -1.311277 -0.303005
v -0.428513 -1.311277 0.000000
v -0.303005 -1.311277 0.303005
v 0.000000 -1.311277 0.428513
v 0.303005 -1.311277 0.303005
v 0.428513 -1.311277 0.000000
v 0.217348 0.000000 -0.217348
v 0.000000 0.000000 -0.307376
v -0.217348 0.000000 -0.217348
v -0.307376 0.000000 0.000000
v -0.217348 0.000000 0.217348
v 0.000000 0.000000 0.307376
v 0.217348 0.000000 0.217348
v 0.307376 0.000000 0.000000
v 0.000000 0.000000 0.000000
v -0.000000 -0.804253 0.815220
v -0.576448 -0.804253 0.576448
v -0.815220 -0.804253 -0.000000
v -0.576448 -0.804253 -0.576448
v -0.000000 -0.804253 -0.815220
v 0.576448 -0.804253 -0.576448
v 0.815220 -0.804253 -0.000000
v 0.576448 -0.804253 0.576448
v 0.563734 -0.562159 -0.000000
v 0.398620 -0.562159 0.398620
v -0.000000 -0.562159 0.563734
v -0.398620 -0.562159 0.398620
v -0.563733 -0.562159 -0.000000
v -0.398620 -0.562159 -0.398620
v -0.000000 -0.562159 -0.563733
v 0.398620 -0.562159 -0.398620
v -0.493766 -1.081274 0.493766
v -0.698290 -1.081274 -0.000000
v -0.493766 -1.081274 -0.493766
v -0.000000 -1.081274 -0.698290
v 0.493766 -1.081274 -0.493766
v 0.698290 -1.081274 -0.000000
v 0.493766 -1.081274 0.493766
v -0.000000 -1.081274 0.698290
v 0.089650 -1.526017 -0.089650
v 0.000000 -1.526017 -0.126784
v -0.089650 -1.526017 -0.089650
v -0.126784 -1.526017 0.000000
v -0.089650 -1.526017 0.089650
v 0.000000 -1.526017 0.126784
v 0.089650 -1.526017 0.089650
v 0.126784 -1.526017 0.000000
v 0.141787 -1.929326 -0.141787
v 0.000000 -1.929326 -0.200517
v 0.000000 -1.999937 0.000000
v -0.141787 -1.929326 -0.141787
v -0.200517 -1.929326 0.000000
v -0.141787 -1.929326 0.141787
v 0.000000 -1.929326 0.200517
v 0.141787 -1.929326 0.141787
v 0.200517 -1.929326 0.000000
v 0.212145 -1.778034 0.212145
v 0.300019 -1.778034 -0.000000
v 0.212145 -1.778034 -0.212145
v 0.000000 -1.778034 -0.300019
v -0.212145 -1.778034 -0.212145
v -0.300019 -1.778034 -0.000000
v -0.212145 -1.778034 0.212145
v 0.000000 -1.778034 0.300019
v 0.000000 -1.655968 0.261103
v 0.184628 -1.655968 0.184628
v 0.261103 -1.655968 0.000000
v 0.184628 -1.655968 -0.184628
v 0.000000 -1.655968 -0.261103
v -0.184628 -1.655968 -0.184628
v -0.261103 -1.655968 0.000000
v -0.184628 -1.655968 0.184628
v -0.084674 -1.415163 -0.084674
v -0.119747 -1.415163 0.000000
v -0.084674 -1.415163 0.084674
v 0.000000 -1.415163 0.119747
v 0.084674 -1.415163 0.084674
v 0.119747 -1.415163 0.000000
v 0.084674 -1.415163 -0.084674
v 0.000000 -1.415163 -0.119747
vt 0.610485 0.045765
vt 0.500000 0.000000
vt 0.389515 0.045765
vt 0.343750 0.156250
vt 0.389515 0.266735
vt 0.500000 0.312500
vt 0.610485 0.266735
vt 0.656250 0.156250
vt 0.375000 0.312500
vt 0.406250 0.312500
vt 0.437500 0.312500
vt 0.468750 0.312500
vt 0.500000 0.312500
vt 0.531250 0.312500
vt 0.562500 0.312500
vt 0.593750 0.312500
vt 0.625000 0.312500
vt 0.375000 0.688440
vt 0.406250 0.688440
vt 0.437500 0.688440
vt 0.468750 0.688440
vt 0.500000 0.688440
vt 0.531250 0.688440
vt 0.562500 0.688440
vt 0.593750 0.688440
vt 0.625000 0.688440
vt 0.610485 0.733265
vt 0.500000 0.687500
vt 0.389515 0.733265
vt 0.343750 0.843750
vt 0.389515 0.954235
vt 0.500000 1.000000
vt 0.610485 0.954235
vt 0.656250 0.843750
vt 0.500000 0.150000
vt 0.500000 0.837500
vt 0.531250 0.437686
vt 0.500000 0.437686
vt 0.468750 0.437686
vt 0.437500 0.437686
vt 0.406250 0.437686
vt 0.625000 0.437686
vt 0.375000 0.437686
vt 0.593750 0.437686
vt 0.562500 0.437686
vt 0.593750 0.513550
vt 0.562500 0.513550
vt 0.531250 0.513550
vt 0.500000 0.513550
vt 0.468750 0.513550
vt 0.437500 0.513550
vt 0.406250 0.513550
vt 0.625000 0.513550
vt 0.375000 0.513550
vt 0.500000 0.371034
vt 0.468750 0.371034
vt 0.437500 0.371034
vt 0.406250 0.371034
vt 0.625000 0.371034
vt 0.375000 0.371034
vt 0.593750 0.371034
vt 0.562500 0.371034
vt 0.531250 0.371034
vt 0.500000 0.000000
vt 0.610485 0.045765
vt 0.389515 0.045765
vt 0.343750 0.156250
vt 0.389515 0.266735
vt 0.500000 0.312500
vt 0.610485 0.266735
vt 0.656250 0.156250
vt 0.500000 0.000000
vt 0.610485 0.045765
vt 0.389515 0.045765
vt 0.343750 0.156250
vt 0.389515 0.266735
vt 0.500000 0.312500
vt 0.610485 0.266735
vt 0.656250 0.156250
vt 0.610485 0.266735
vt 0.656250 0.156250
vt 0.610485 0.045765
vt 0.500000 0.000000
vt 0.389515 0.045765
vt 0.343750 0.156250
vt 0.389515 0.266735
vt 0.500000 0.312500
vt 0.500000 0.312500
vt 0.610485 0.266735
vt 0.656250 0.156250
vt 0.610485 0.045765
vt 0.500000 0.000000
vt 0.389515 0.045765
vt 0.343750 0.156250
vt 0.389515 0.266735
vt 0.389515 0.045765
vt 0.343750 0.156250
vt 0.389515 0.266735
vt 0.500000 0.312500
vt 0.610485 0.266735
vt 0.656250 0.156250
vt 0.610485 0.045765
vt 0.500000 0.000000
vn 0.234526 -0.790203 -0.566195
vn 0.234526 -0.790203 -0.566195
vn 0.326994 -0.519489 -0.789434
vn 0.326994 -0.519489 -0.789434
vn -0.234526 -0.790203 -0.566195
vn -0.234526 -0.790203 -0.566195
vn -0.326994 -0.519489 -0.789434
vn -0.326994 -0.519489 -0.789434
vn -0.566195 -0.790203 -0.234526
vn -0.566195 -0.790203 -0.234526
vn -0.789434 -0.519489 -0.326994
vn -0.789434 -0.519489 -0.326994
vn -0.566195 -0.790203 0.234526
vn -0.566195 -0.790203 0.234526
vn -0.789434 -0.519489 0.326994
vn -0.789434 -0.519489 0.326994
vn -0.234526 -0.790203 0.566196
vn -0.234526 -0.790203 0.566196
vn -0.326994 -0.519489 0.789434
vn -0.326994 -0.519489 0.789434
vn 0.234526 -0.790203 0.566195
vn 0.234526 -0.790203 0.566195
vn 0.326994 -0.519489 0.789434
vn 0.326994 -0.519489 0.789434
vn 0.566196 -0.790203 0.234526
vn 0.566196 -0.790203 0.234526
vn 0.789434 -0.519489 0.326994
vn 0.789434 -0.519489 0.326994
vn 0.566195 -0.790203 -0.234526
vn 0.566195 -0.790203 -0.234526
vn 0.789434 -0.519489 -0.326994
vn 0.789434 -0.519489 -0.326994
vn 0.000000 -0.669737 -0.742598
vn 0.525096 -0.669737 -0.525096
vn 0.000000 -1.000000 0.000000
vn -0.525096 -0.669737 -0.525096
vn -0.742598 -0.669737 -0.000000
vn -0.525096 -0.669737 0.525096
vn -0.000000 -0.669737 0.742598
vn 0.525096 -0.669737 0.525096
vn 0.742598 -0.669737 0.000000
vn 0.000000 1.000000 -0.000000
vn 0.000000 1.000000 0.000000
vn 0.000000 1.000000 -0.000000
vn 0.000000 1.000000 0.000000
vn 0.000000 1.000000 -0.000000
vn 0.000000 1.000000 -0.000000
vn 0.000000 1.000000 0.000000
vn 0.000000 1.000000 0.000000
vn 0.000000 1.000000 -0.000000
vn -0.276101 0.692428 0.666568
vn -0.276101 0.692428 0.666568
vn -0.317128 0.559699 0.765615
vn -0.317128 0.559699 0.765615
vn -0.666568 0.692428 0.276101
vn -0.666568 0.692428 0.276101
vn -0.765615 0.559699 0.317128
vn -0.765615 0.559699 0.317128
vn -0.666568 0.692428 -0.276101
vn -0.666568 0.692428 -0.276101
vn -0.765615 0.559699 -0.317128
vn -0.765615 0.559699 -0.317128
vn -0.276101 0.692428 -0.666568
vn -0.276101 0.692428 -0.666568
vn -0.317128 0.559699 -0.765615
vn -0.317128 0.559699 -0.765615
vn 0.276101 0.692428 -0.666567
vn 0.276101 0.692428 -0.666567
vn 0.317128 0.559699 -0.765615
vn 0.317128 0.559699 -0.765615
vn 0.666568 0.692428 -0.276101
vn 0.666568 0.692428 -0.276101
vn 0.765615 0.559699 -0.317128
vn 0.765615 0.559699 -0.317128
vn 0.666568 0.692428 0.276101
vn 0.666568 0.692428 0.276101
vn 0.765615 0.559699 0.317128
vn 0.765615 0.559699 0.317128
vn 0.276101 0.692428 0.666567
vn 0.276101 0.692428 0.666567
vn 0.317128 0.559699 0.765615
vn 0.317128 0.559699 0.765615
vn 0.851402 0.388259 0.352662
vn 0.851402 0.388259 0.352662
vn 0.352662 0.388259 0.851402
vn 0.352662 0.388259 0.851402
vn -0.352662 0.388259 0.851402
vn -0.352662 0.388259 0.851402
vn -0.851402 0.388259 0.352662
vn -0.851402 0.388259 0.352662
vn -0.851402 0.388259 -0.352662
vn -0.851402 0.388259 -0.352662
vn -0.352662 0.388259 -0.851402
vn -0.352662 0.388259 -0.851402
vn 0.352662 0.388259 -0.851402
vn 0.352662 0.388259 -0.851402
vn 0.851402 0.388259 -0.352662
vn 0.851402 0.388259 -0.352662
vn -0.860746 -0.363319 0.356532
vn -0.860746 -0.363319 0.356532
vn -0.860746 -0.363319 -0.356532
vn -0.860746 -0.363319 -0.356532
vn -0.356532 -0.363319 -0.860746
vn -0.356532 -0.363319 -0.860746
vn 0.356532 -0.363319 -0.860746
vn 0.356532 -0.363319 -0.860746
vn 0.860746 -0.363320 -0.356532
vn 0.860746 -0.363320 -0.356532
vn 0.860746 -0.363319 0.356532
vn 0.860746 -0.363319 0.356532
vn 0.356532 -0.363319 0.860746
vn 0.356532 -0.363319 0.860746
vn -0.356532 -0.363319 0.860746
vn -0.356532 -0.363319 0.860746
vn 0.130951 -0.939630 -0.316144
vn 0.130951 -0.939630 -0.316144
vn -0.130951 -0.939630 -0.316144
vn -0.130951 -0.939630 -0.316144
vn -0.316144 -0.939630 -0.130951
vn -0.316144 -0.939630 -0.130951
vn -0.316144 -0.939630 0.130951
vn -0.316144 -0.939630 0.130951
vn -0.130951 -0.939630 0.316144
vn -0.130951 -0.939630 0.316144
vn 0.130951 -0.939630 0.316144
vn 0.130951 -0.939630 0.316144
vn 0.316144 -0.939630 0.130951
vn 0.316144 -0.939630 0.130951
vn 0.316144 -0.939630 -0.130951
vn 0.316144 -0.939630 -0.130951
vn -0.000000 0.718694 -0.695327
vn 0.491670 0.718694 -0.491670
vn 0.612609 0.499418 -0.612610
vn 0.000000 0.499418 -0.866361
vn -0.491670 0.718695 -0.491670
vn -0.612610 0.499419 -0.612609
vn -0.695326 0.718694 0.000000
vn -0.866361 0.499418 -0.000000
vn -0.491670 0.718694 0.491670
vn -0.612610 0.499419 0.612610
vn -0.000000 0.718694 0.695326
vn -0.000000 0.499418 0.866361
vn 0.491670 0.718695 0.491669
vn 0.612610 0.499419 0.612610
vn 0.695326 0.718694 -0.000000
vn 0.866361 0.499418 -0.000000
vn 0.984629 -0.174660 0.000000
vn 0.696238 -0.174660 0.696238
vn 0.696238 -0.174660 -0.696238
vn 0.000000 -0.174660 -0.984629
vn -0.696238 -0.174660 -0.696238
vn -0.984629 -0.174660 -0.000000
vn -0.696238 -0.174660 0.696237
vn -0.000000 -0.174660 0.984629
vn -0.997991 0.063352 0.000000
vn -0.705687 0.063352 -0.705686
vn -0.705687 0.063352 -0.705686
vn -0.997991 0.063352 0.000000
vn -0.705687 0.063352 0.705686
vn -0.705687 0.063352 0.705686
vn -0.000000 0.063352 0.997991
vn -0.000000 0.063352 0.997991
vn 0.705687 0.063352 0.705686
vn 0.705687 0.063352 0.705686
vn 0.997991 0.063352 -0.000000
vn 0.997991 0.063352 -0.000000
vn 0.705686 0.063352 -0.705687
vn 0.705686 0.063352 -0.705687
vn 0.000000 0.063352 -0.997991
vn 0.000000 0.063352 -0.997991
s 1
g pommel_rapier_faceted
f 1/9/1 2/10/2 37/58/3 38/60/4
s 2
f 2/10/5 3/11/6 36/57/7 37/58/8
s 3
f 3/11/9 4/12/10 35/56/11 36/57/12
s 4
f 4/12/13 5/13/14 34/55/15 35/56/16
s 5
f 5/13/17 6/14/18 41/63/19 34/55/20
s 6
f 6/14/21 7/15/22 40/62/23 41/63/24
s 7
f 7/15/25 8/16/26 39/61/27 40/62/28
s 8
f 8/16/29 1/17/30 38/59/31 39/61/32
s 9
f 51/72/33 50/73/34 52/35/35
f 53/74/36 51/72/33 52/35/35
f 54/75/37 53/74/36 52/35/35
f 55/76/38 54/75/37 52/35/35
f 56/77/39 55/76/38 52/35/35
f 57/78/40 56/77/39 52/35/35
f 58/79/41 57/78/40 52/35/35
f 50/73/34 58/79/41 52/35/35
s 10
f 9/33/42 10/32/43 17/36/44
f 10/32/43 11/31/45 17/36/44
f 11/31/45 12/30/46 17/36/44
f 12/30/46 13/29/47 17/36/44
f 13/29/47 14/28/48 17/36/44
f 14/28/48 15/27/49 17/36/44
f 15/27/49 16/34/50 17/36/44
f 16/34/50 9/33/42 17/36/44
s 11
f 19/38/51 18/37/52 28/48/53 29/49/54
s 12
f 20/39/55 19/38/56 29/49/57 30/50/58
s 13
f 21/40/59 20/39/60 30/50/61 31/51/62
s 14
f 22/41/63 21/40/64 31/51/65 32/52/66
s 15
f 23/43/67 22/41/68 32/52/69 33/54/70
s 16
f 24/44/71 23/42/72 33/53/73 26/46/74
s 17
f 25/45/75 24/44/76 26/46/77 27/47/78
s 18
f 18/37/79 25/45/80 27/47/81 28/48/82
s 17
f 27/47/78 26/46/77 16/25/83 15/24/84
s 18
f 28/48/82 27/47/81 15/24/85 14/23/86
s 11
f 29/49/54 28/48/53 14/23/87 13/22/88
s 12
f 30/50/58 29/49/57 13/22/89 12/21/90
s 13
f 31/51/62 30/50/61 12/21/91 11/20/92
s 14
f 32/52/66 31/51/65 11/20/93 10/19/94
s 15
f 33/54/70 32/52/69 10/19/95 9/18/96
s 16
f 26/46/74 33/53/73 9/26/97 16/25/98
s 4
f 35/56/16 34/55/15 19/38/99 20/39/100
s 3
f 36/57/12 35/56/11 20/39/101 21/40/102
s 2
f 37/58/8 36/57/7 21/40/103 22/41/104
s 1
f 38/60/4 37/58/3 22/41/105 23/43/106
s 8
f 39/61/32 38/59/31 23/42/107 24/44/108
s 7
f 40/62/28 39/61/27 24/44/109 25/45/110
s 6
f 41/63/24 40/62/23 25/45/111 18/37/112
s 5
f 34/55/20 41/63/19 18/37/113 19/38/114
s 1
f 2/2/2 1/1/1 81/102/115 82/103/116
s 2
f 3/3/6 2/2/5 82/103/117 75/96/118
s 3
f 4/4/10 3/3/9 75/96/119 76/97/120
s 4
f 5/5/14 4/4/13 76/97/121 77/98/122
s 5
f 6/6/18 5/5/17 77/98/123 78/99/124
s 6
f 7/7/22 6/6/21 78/99/125 79/100/126
s 7
f 8/8/26 7/7/25 79/100/127 80/101/128
s 8
f 1/1/30 8/8/29 80/101/129 81/102/130
s 9
f 43/64/131 42/65/132 70/91/133 71/92/134
f 44/66/135 43/64/131 71/92/134 72/93/136
f 45/67/137 44/66/135 72/93/136 73/94/138
f 46/68/139 45/67/137 73/94/138 74/95/140
f 47/69/141 46/68/139 74/95/140 67/88/142
f 48/70/143 47/69/141 67/88/142 68/89/144
f 49/71/145 48/70/143 68/89/144 69/90/146
f 42/65/132 49/71/145 69/90/146 70/91/133
f 60/81/147 59/80/148 57/78/40 58/79/41
f 61/82/149 60/81/147 58/79/41 50/73/34
f 62/83/150 61/82/149 50/73/34 51/72/33
f 63/84/151 62/83/150 51/72/33 53/74/36
f 64/85/152 63/84/151 53/74/36 54/75/37
f 65/86/153 64/85/152 54/75/37 55/76/38
f 66/87/154 65/86/153 55/76/38 56/77/39
f 59/80/148 66/87/154 56/77/39 57/78/40
f 68/89/144 67/88/142 66/87/154 59/80/148
f 69/90/146 68/89/144 59/80/148 60/81/147
f 70/91/133 69/90/146 60/81/147 61/82/149
f 71/92/134 70/91/133 61/82/149 62/83/150
f 72/93/136 71/92/134 62/83/150 63/84/151
f 73/94/138 72/93/136 63/84/151 64/85/152
f 74/95/140 73/94/138 64/85/152 65/86/153
f 67/88/142 74/95/140 65/86/153 66/87/154
s 20
f 76/97/155 75/96/156 44/66/157 45/67/158
f 77/98/159 76/97/155 45/67/158 46/68/160
f 78/99/161 77/98/159 46/68/160 47/69/162
f 79/100/163 78/99/161 47/69/162 48/70/164
f 80/101/165 79/100/163 48/70/164 49/71/166
f 81/102/167 80/101/165 49/71/166 42/65/168
f 82/103/169 81/102/167 42/65/168 43/64/170
f 75/96/156 82/103/169 43/64/170 44/66/157
