# This file uses centimeters as units for non-parametric coordinates.

g default
v 0.878276 -0.507073 -0.239750
v 0.507073 -0.135870 -0.239750
v 0.000000 0.000000 -0.239750
v -0.507073 -0.135870 -0.239750
v -0.878276 -0.507073 -0.239750
v -1.014146 -1.014146 -0.239750
v -0.878276 -1.521220 -0.239750
v -0.507073 -1.892421 -0.239750
v 0.000000 -2.028291 -0.239750
v 0.507073 -1.892421 -0.239750
v 0.878276 -1.521220 -0.239750
v 1.014146 -1.014146 -0.239750
v 0.878276 -0.507073 0.239750
v 0.507073 -0.135870 0.239750
v 0.000000 0.000000 0.239750
v -0.507073 -0.135870 0.239750
v -0.878276 -0.507073 0.239750
v -1.014146 -1.014146 0.239750
v -0.878276 -1.521220 0.239750
v -0.507073 -1.892421 0.239750
v 0.000000 -2.028291 0.239750
v 0.507073 -1.892421 0.239750
v 0.878276 -1.521220 0.239750
v 1.014146 -1.014146 0.239750
v 0.645172 -0.641655 -0.292311
v 0.372490 -0.368974 -0.292311
v 0.000000 -0.269165 -0.292311
v -0.372490 -0.368974 -0.292311
v -0.645172 -0.641655 -0.292311
v -0.744981 -1.014146 -0.292311
v -0.645172 -1.386637 -0.292311
v -0.372490 -1.659318 -0.292311
v 0.000000 -1.759126 -0.292311
v 0.372490 -1.659318 -0.292311
v 0.645172 -1.386637 -0.292311
v 0.744981 -1.014146 -0.292311
v 0.645172 -0.641655 0.292311
v 0.372490 -0.368974 0.292311
v 0.000000 -0.269165 0.292311
v -0.372490 -0.368974 0.292311
v -0.645172 -0.641655 0.292311
v -0.744981 -1.014146 0.292311
v -0.645172 -1.386637 0.292311
v -0.372490 -1.659318 0.292311
v 0.000000 -1.759126 0.292311
v 0.372490 -1.659318 0.292311
v 0.645172 -1.386637 0.292311
v 0.744981 -1.014146 0.292311
v 0.469553 -0.743050 -0.443053
v 0.271096 -0.544593 -0.443053
v 0.000000 -1.014146 -0.443053
v 0.000000 -0.471953 -0.443053
v -0.271096 -0.544593 -0.443053
v -0.469553 -0.743050 -0.443053
v -0.542192 -1.014146 -0.443053
v -0.469553 -1.285243 -0.443053
v -0.271096 -1.483699 -0.443053
v 0.000000 -1.556338 -0.443053
v 0.271096 -1.483699 -0.443053
v 0.469553 -1.285243 -0.443053
v 0.542192 -1.014146 -0.443053
v 0.469553 -0.743050 0.443053
v 0.271096 -0.544593 0.443053
v 0.000000 -1.014146 0.443053
v 0.000000 -0.471953 0.443053
v -0.271096 -0.544593 0.443053
v -0.469553 -0.743050 0.443053
v -0.542192 -1.014146 0.443053
v -0.469553 -1.285243 0.443053
v -0.271096 -1.483699 0.443053
v 0.000000 -1.556338 0.443053
v 0.271096 -1.483699 0.443053
v 0.469553 -1.285243 0.443053
v 0.542192 -1.014146 0.443053
vt 0.635316 0.078125
vt 0.578125 0.020934
vt 0.500000 0.000000
vt 0.421875 0.020934
vt 0.364684 0.078125
vt 0.343750 0.156250
vt 0.364684 0.234375
vt 0.421875 0.291566
vt 0.500000 0.312500
vt 0.578125 0.291566
vt 0.635316 0.234375
vt 0.656250 0.156250
vt 0.375000 0.312500
vt 0.395833 0.312500
vt 0.416667 0.312500
vt 0.437500 0.312500
vt 0.458333 0.312500
vt 0.479167 0.312500
vt 0.500000 0.312500
vt 0.520833 0.312500
vt 0.541667 0.312500
vt 0.562500 0.312500
vt 0.583333 0.312500
vt 0.604167 0.312500
vt 0.625000 0.312500
vt 0.375000 0.688440
vt 0.395833 0.688440
vt 0.416667 0.688440
vt 0.437500 0.688440
vt 0.458333 0.688440
vt 0.479167 0.688440
vt 0.500000 0.688440
vt 0.520833 0.688440
vt 0.541667 0.688440
vt 0.562500 0.688440
vt 0.583333 0.688440
vt 0.604167 0.688440
vt 0.625000 0.688440
vt 0.635316 0.765625
vt 0.578125 0.708434
vt 0.500000 0.687500
vt 0.421875 0.708434
vt 0.364684 0.765625
vt 0.343750 0.843750
vt 0.364684 0.921875
vt 0.421875 0.979066
vt 0.500000 1.000000
vt 0.578125 0.979066
vt 0.635316 0.921875
vt 0.656250 0.843750
vt 0.500000 0.150000
vt 0.500000 0.837500
vt 0.578125 0.020934
vt 0.635316 0.078125
vt 0.500000 0.000000
vt 0.421875 0.020934
vt 0.364684 0.078125
vt 0.343750 0.156250
vt 0.364684 0.234375
vt 0.421875 0.291566
vt 0.500000 0.312500
vt 0.578125 0.291566
vt 0.635316 0.234375
vt 0.656250 0.156250
vt 0.635316 0.921875
vt 0.578125 0.979066
vt 0.500000 1.000000
vt 0.421875 0.979066
vt 0.364684 0.921875
vt 0.343750 0.843750
vt 0.364684 0.765625
vt 0.421875 0.708434
vt 0.500000 0.687500
vt 0.578125 0.708434
vt 0.635316 0.765625
vt 0.656250 0.843750
vt 0.578125 0.020934
vt 0.635316 0.078125
vt 0.500000 0.000000
vt 0.421875 0.020934
vt 0.364684 0.078125
vt 0.343750 0.156250
vt 0.364684 0.234375
vt 0.421875 0.291566
vt 0.500000 0.312500
vt 0.578125 0.291566
vt 0.635316 0.234375
vt 0.656250 0.156250
vt 0.635316 0.921875
vt 0.578125 0.979066
vt 0.500000 1.000000
vt 0.421875 0.979066
vt 0.364684 0.921875
vt 0.343750 0.843750
vt 0.364684 0.765625
vt 0.421875 0.708434
vt 0.500000 0.687500
vt 0.578125 0.708434
vt 0.635316 0.765625
vt 0.656250 0.843750
vn 0.866025 0.500000 0.000000
vn 0.500000 0.866026 0.000000
vn 0.500000 0.866026 0.000000
vn 0.866025 0.500000 0.000000
vn 0.000000 1.000000 0.000000
vn 0.000000 1.000000 0.000000
vn -0.500000 0.866026 0.000000
vn -0.500000 0.866026 0.000000
vn -0.866025 0.500000 0.000000
vn -0.866025 0.500000 0.000000
vn -1.000000 -0.000000 0.000000
vn -1.000000 -0.000000 0.000000
vn -0.866025 -0.500001 0.000000
vn -0.866025 -0.500001 0.000000
vn -0.499999 -0.866026 0.000000
vn -0.499999 -0.866026 0.000000
vn 0.000000 -1.000000 0.000000
vn 0.000000 -1.000000 0.000000
vn 0.499999 -0.866026 0.000000
vn 0.499999 -0.866026 0.000000
vn 0.866025 -0.500001 0.000000
vn 0.866025 -0.500001 0.000000
vn 1.000000 -0.000000 0.000000
vn 1.000000 -0.000000 0.000000
vn 0.000000 0.000000 -1.000000
vn 0.000000 0.000000 -1.000000
vn -0.000000 0.000000 -1.000000
vn -0.000000 0.000000 -1.000000
vn -0.000000 0.000000 -1.000000
vn 0.000000 0.000000 -1.000000
vn 0.000000 0.000000 -1.000000
vn 0.000000 0.000000 -1.000000
vn 0.000000 0.000000 -1.000000
vn 0.000000 0.000000 -1.000000
vn -0.000000 0.000000 -1.000000
vn 0.000000 0.000000 -1.000000
vn 0.000000 0.000000 -1.000000
vn 0.000000 0.000000 1.000000
vn 0.000000 0.000000 1.000000
vn 0.000000 0.000000 1.000000
vn 0.000000 0.000000 1.000000
vn 0.000000 0.000000 1.000000
vn 0.000000 0.000000 1.000000
vn 0.000000 0.000000 1.000000
vn -0.000000 0.000000 1.000000
vn 0.000000 0.000000 1.000000
vn 0.000000 0.000000 1.000000
vn -0.000000 0.000000 1.000000
vn 0.000000 0.000000 1.000000
vn 0.000000 0.000000 1.000000
vn 0.095829 0.165980 -0.981462
vn 0.165980 0.095829 -0.981462
vn 0.289604 0.167203 -0.942429
vn 0.167203 0.289604 -0.942429
vn 0.000000 0.191657 -0.981462
vn 0.000000 0.334406 -0.942429
vn -0.095829 0.165980 -0.981462
vn -0.167203 0.289604 -0.942429
vn -0.165980 0.095829 -0.981462
vn -0.289604 0.167203 -0.942429
vn -0.191657 -0.000000 -0.981462
vn -0.334406 -0.000000 -0.942429
vn -0.165980 -0.095829 -0.981462
vn -0.289604 -0.167203 -0.942429
vn -0.095829 -0.165981 -0.981462
vn -0.167203 -0.289605 -0.942429
vn -0.000000 -0.191658 -0.981462
vn -0.000000 -0.334407 -0.942429
vn 0.095829 -0.165981 -0.981462
vn 0.167203 -0.289605 -0.942429
vn 0.165980 -0.095829 -0.981462
vn 0.289604 -0.167203 -0.942429
vn 0.191657 0.000000 -0.981462
vn 0.334406 -0.000000 -0.942429
vn 0.165980 0.095829 0.981462
vn 0.095829 0.165980 0.981462
vn 0.167203 0.289604 0.942429
vn 0.289604 0.167203 0.942429
vn 0.000000 0.191657 0.981462
vn 0.000000 0.334406 0.942429
vn -0.095829 0.165980 0.981462
vn -0.167203 0.289604 0.942429
vn -0.165980 0.095829 0.981462
vn -0.289604 0.167203 0.942429
vn -0.191657 0.000000 0.981462
vn -0.334406 -0.000000 0.942429
vn -0.165980 -0.095829 0.981462
vn -0.289604 -0.167203 0.942429
vn -0.095829 -0.165981 0.981462
vn -0.167203 -0.289605 0.942429
vn 0.000000 -0.191658 0.981462
vn 0.000000 -0.334407 0.942429
vn 0.095829 -0.165981 0.981462
vn 0.167203 -0.289605 0.942429
vn 0.165980 -0.095829 0.981462
vn 0.289604 -0.167203 0.942429
vn 0.191657 -0.000000 0.981462
vn 0.334406 -0.000000 0.942429
vn 0.516650 0.298288 -0.802557
vn 0.298288 0.516650 -0.802557
vn 0.000000 0.596576 -0.802556
vn -0.298288 0.516650 -0.802556
vn -0.516650 0.298288 -0.802557
vn -0.596576 0.000000 -0.802557
vn -0.516650 -0.298288 -0.802557
vn -0.298287 -0.516650 -0.802557
vn -0.000000 -0.596576 -0.802557
vn 0.298287 -0.516650 -0.802557
vn 0.516650 -0.298288 -0.802557
vn 0.596576 0.000000 -0.802557
vn 0.298288 0.516650 0.802556
vn 0.516650 0.298288 0.802557
vn 0.000000 0.596576 0.802556
vn -0.298288 0.516650 0.802557
vn -0.516650 0.298288 0.802557
vn -0.596576 0.000000 0.802557
vn -0.516650 -0.298288 0.802557
vn -0.298287 -0.516650 0.802557
vn 0.000000 -0.596576 0.802557
vn 0.298287 -0.516650 0.802557
vn 0.516650 -0.298288 0.802557
vn 0.596576 0.000000 0.802557
s 1
g pCylinder1
f 1/13/1 2/14/2 14/27/3 13/26/4
f 2/14/2 3/15/5 15/28/6 14/27/3
f 3/15/5 4/16/7 16/29/8 15/28/6
f 4/16/7 5/17/9 17/30/10 16/29/8
f 5/17/9 6/18/11 18/31/12 17/30/10
f 6/18/11 7/19/13 19/32/14 18/31/12
f 7/19/13 8/20/15 20/33/16 19/32/14
f 8/20/15 9/21/17 21/34/18 20/33/16
f 9/21/17 10/22/19 22/35/20 21/34/18
f 10/22/19 11/23/21 23/36/22 22/35/20
f 11/23/21 12/24/23 24/37/24 23/36/22
f 12/24/23 1/25/1 13/38/4 24/37/24
s 2
f 50/77/25 49/78/26 51/51/27
f 52/79/28 50/77/25 51/51/27
f 53/80/29 52/79/28 51/51/27
f 54/81/30 53/80/29 51/51/27
f 55/82/31 54/81/30 51/51/27
f 56/83/32 55/82/31 51/51/27
f 57/84/33 56/83/32 51/51/27
f 58/85/34 57/84/33 51/51/27
f 59/86/35 58/85/34 51/51/27
f 60/87/36 59/86/35 51/51/27
f 61/88/37 60/87/36 51/51/27
f 49/78/26 61/88/37 51/51/27
s 3
f 62/89/38 63/90/39 64/52/40
f 63/90/39 65/91/41 64/52/40
f 65/91/41 66/92/42 64/52/40
f 66/92/42 67/93/43 64/52/40
f 67/93/43 68/94/44 64/52/40
f 68/94/44 69/95/45 64/52/40
f 69/95/45 70/96/46 64/52/40
f 70/96/46 71/97/47 64/52/40
f 71/97/47 72/98/48 64/52/40
f 72/98/48 73/99/49 64/52/40
f 73/99/49 74/100/50 64/52/40
f 74/100/50 62/89/38 64/52/40
s 4
f 2/2/51 1/1/52 25/54/53 26/53/54
f 3/3/55 2/2/51 26/53/54 27/55/56
f 4/4/57 3/3/55 27/55/56 28/56/58
f 5/5/59 4/4/57 28/56/58 29/57/60
f 6/6/61 5/5/59 29/57/60 30/58/62
f 7/7/63 6/6/61 30/58/62 31/59/64
f 8/8/65 7/7/63 31/59/64 32/60/66
f 9/9/67 8/8/65 32/60/66 33/61/68
f 10/10/69 9/9/67 33/61/68 34/62/70
f 11/11/71 10/10/69 34/62/70 35/63/72
f 12/12/73 11/11/71 35/63/72 36/64/74
f 1/1/52 12/12/73 36/64/74 25/54/53
s 5
f 13/49/75 14/48/76 38/66/77 37/65/78
f 14/48/76 15/47/79 39/67/80 38/66/77
f 15/47/79 16/46/81 40/68/82 39/67/80
f 16/46/81 17/45/83 41/69/84 40/68/82
f 17/45/83 18/44/85 42/70/86 41/69/84
f 18/44/85 19/43/87 43/71/88 42/70/86
f 19/43/87 20/42/89 44/72/90 43/71/88
f 20/42/89 21/41/91 45/73/92 44/72/90
f 21/41/91 22/40/93 46/74/94 45/73/92
f 22/40/93 23/39/95 47/75/96 46/74/94
f 23/39/95 24/50/97 48/76/98 47/75/96
f 24/50/97 13/49/75 37/65/78 48/76/98
s 4
f 26/53/54 25/54/53 49/78/99 50/77/100
f 27/55/56 26/53/54 50/77/100 52/79/101
f 28/56/58 27/55/56 52/79/101 53/80/102
f 29/57/60 28/56/58 53/80/102 54/81/103
f 30/58/62 29/57/60 54/81/103 55/82/104
f 31/59/64 30/58/62 55/82/104 56/83/105
f 32/60/66 31/59/64 56/83/105 57/84/106
f 33/61/68 32/60/66 57/84/106 58/85/107
f 34/62/70 33/61/68 58/85/107 59/86/108
f 35/63/72 34/62/70 59/86/108 60/87/109
f 36/64/74 35/63/72 60/87/109 61/88/110
f 25/54/53 36/64/74 61/88/110 49/78/99
s 5
f 37/65/78 38/66/77 63/90/111 62/89/112
f 38/66/77 39/67/80 65/91/113 63/90/111
f 39/67/80 40/68/82 66/92/114 65/91/113
f 40/68/82 41/69/84 67/93/115 66/92/114
f 41/69/84 42/70/86 68/94/116 67/93/115
f 42/70/86 43/71/88 69/95/117 68/94/116
f 43/71/88 44/72/90 70/96/118 69/95/117
f 44/72/90 45/73/92 71/97/119 70/96/118
f 45/73/92 46/74/94 72/98/120 71/97/119
f 46/74/94 47/75/96 73/99/121 72/98/120
f 47/75/96 48/76/98 74/100/122 73/99/121
f 48/76/98 37/65/78 62/89/112 74/100/122
