# This file uses centimeters as units for non-parametric coordinates.

g default
v -0.941010 -0.972294 -0.094321
v -0.941010 -0.972294 0.094321
v -1.629678 -0.249334 0.188982
v -1.629678 -0.249334 -0.188982
v -1.617666 -0.383992 0.243475
v -1.617666 -0.383992 -0.243475
v 0.000000 -0.033042 0.570616
v 0.000000 -0.033042 -0.570616
v 0.000000 -0.381742 -0.735155
v 0.000000 -1.258687 -0.263420
v 0.000000 -1.258687 0.263420
v 0.000000 -0.381742 0.735154
v -0.734057 -0.348699 0.602228
v -0.191624 -1.244568 0.227892
v -0.191624 -1.244568 -0.227892
v -0.734057 -0.348700 -0.602228
v -0.684986 -0.065971 -0.467440
v -0.684986 -0.065971 0.467440
v 0.000000 0.000000 0.000000
v -0.764406 -0.032929 0.000000
v -1.703036 -0.216292 -0.000000
v -1.689657 -0.375731 -0.000000
v -0.941010 -1.000757 -0.000000
v -0.213842 -1.372605 -0.000000
v 0.000000 -1.386724 0.000000
v 0.941010 -0.972294 -0.094321
v 0.941010 -0.972294 0.094321
v 1.629678 -0.249334 0.188982
v 1.629678 -0.249334 -0.188982
v 1.617666 -0.383992 0.243475
v 1.617666 -0.383992 -0.243475
v 0.734057 -0.348699 0.602228
v 0.191624 -1.244568 0.227892
v 0.191624 -1.244568 -0.227892
v 0.734057 -0.348700 -0.602228
v 0.684986 -0.065971 -0.467440
v 0.684986 -0.065971 0.467440
v 0.764406 -0.032929 0.000000
v 1.703036 -0.216292 -0.000000
v 1.689657 -0.375731 -0.000000
v 0.941010 -1.000757 -0.000000
v 0.213842 -1.372605 -0.000000
vt 0.443740 0.102512
vt 0.500000 0.092331
vt 0.500000 0.724717
vt 0.284486 0.748545
vt 0.298893 0.952426
vt 0.500000 0.976173
vt 0.223726 0.298855
vt 0.021537 0.820199
vt 0.025064 0.723094
vt 0.437217 0.010181
vt 0.500000 0.000000
vt 0.443740 0.102512
vt 0.284486 0.748544
vt 0.500000 0.724717
vt 0.500000 0.092331
vt 0.298893 0.952426
vt 0.500000 0.976173
vt 0.500000 1.000000
vt 0.275575 0.976254
vt 0.003928 0.729051
vt 0.223726 0.278330
vt 0.000000 0.844027
vt 0.223726 0.298855
vt 0.025064 0.723094
vt 0.021537 0.820199
vt 0.556260 0.102512
vt 0.715514 0.748545
vt 0.701107 0.952426
vt 0.776274 0.298855
vt 0.978463 0.820199
vt 0.974936 0.723094
vt 0.562783 0.010181
vt 0.556260 0.102512
vt 0.715514 0.748544
vt 0.701107 0.952426
vt 0.724425 0.976254
vt 0.776274 0.278330
vt 0.996072 0.729051
vt 1.000000 0.844027
vt 0.974936 0.723094
vt 0.776274 0.298855
vt 0.978463 0.820199
vn -0.239883 -0.570543 0.785453
vn -0.000000 -0.524650 0.851318
vn -0.000000 -0.182516 0.983203
vn -0.280821 -0.159649 0.946389
vn -0.230810 0.426762 0.874415
vn 0.000000 0.437821 0.899062
vn -0.416045 -0.660258 0.625273
vn -0.472540 0.361851 0.803599
vn -0.539042 -0.266469 0.799017
vn -0.346651 -0.937994 -0.000000
vn 0.000000 -1.000000 0.000000
vn -0.239883 -0.570544 -0.785453
vn -0.280821 -0.159649 -0.946389
vn 0.000000 -0.182516 -0.983203
vn 0.000000 -0.524650 -0.851318
vn -0.230810 0.426761 -0.874415
vn 0.000000 0.437820 -0.899063
vn 0.000000 1.000000 0.000000
vn -0.131537 0.991311 -0.000000
vn -0.103512 0.990194 0.093812
vn 0.000000 0.997729 0.067352
vn -0.748426 -0.663218 0.000000
vn -0.539420 -0.842037 0.000000
vn -0.999700 -0.024486 0.000000
vn -0.416045 -0.660259 -0.625272
vn -0.539042 -0.266468 -0.799017
vn -0.472539 0.361850 -0.803599
vn -0.212137 0.977240 -0.000000
vn -0.209858 0.966744 0.146168
vn 0.000000 0.997729 -0.067352
vn -0.103512 0.990194 -0.093812
vn -0.209859 0.966744 -0.146168
vn 0.239883 -0.570543 0.785453
vn 0.280821 -0.159649 0.946389
vn 0.230810 0.426762 0.874415
vn 0.416045 -0.660258 0.625272
vn 0.472539 0.361851 0.803598
vn 0.539042 -0.266469 0.799017
vn 0.346651 -0.937994 -0.000000
vn 0.239883 -0.570544 -0.785453
vn 0.280821 -0.159649 -0.946389
vn 0.230810 0.426761 -0.874415
vn 0.103512 0.990194 0.093812
vn 0.131537 0.991311 0.000000
vn 0.539420 -0.842037 0.000000
vn 0.748426 -0.663218 0.000000
vn 0.999700 -0.024487 -0.000000
vn 0.539042 -0.266468 -0.799017
vn 0.416045 -0.660259 -0.625272
vn 0.472539 0.361850 -0.803599
vn 0.209858 0.966744 0.146168
vn 0.212137 0.977240 0.000000
vn 0.103512 0.990194 -0.093812
vn 0.209858 0.966744 -0.146168
s 1
g polySurface2
f 14/1/1 11/2/2 12/3/3 13/4/4
f 18/5/5 13/4/4 12/3/3 7/6/6
f 13/4/4 2/7/7 14/1/1
f 3/8/8 5/9/9 13/4/4 18/5/5
f 2/7/7 13/4/4 5/9/9
f 14/1/1 24/10/10 25/11/11 11/2/2
f 15/12/12 16/13/13 9/14/14 10/15/15
f 17/16/16 8/17/17 9/14/14 16/13/13
s 3
f 19/18/18 20/19/19 18/5/20 7/6/21
s 1
f 2/7/7 5/9/9 22/20/22 23/21/23
f 5/9/9 3/8/8 21/22/24 22/20/22
f 14/1/1 2/7/7 23/21/23 24/10/10
f 16/13/13 1/23/25 6/24/26
f 4/25/27 17/16/16 16/13/13 6/24/26
s 3
f 20/19/19 21/22/28 3/8/29 18/5/20
s 1
f 1/23/25 16/13/13 15/12/12
s 3
f 8/17/30 17/16/31 20/19/19 19/18/18
f 17/16/31 4/25/32 21/22/28 20/19/19
s 1
f 22/20/22 21/22/24 4/25/27 6/24/26
f 23/21/23 22/20/22 6/24/26 1/23/25
f 24/10/10 23/21/23 1/23/25 15/12/12
f 25/11/11 24/10/10 15/12/12 10/15/15
f 33/26/33 32/27/34 12/3/3 11/2/2
f 37/28/35 7/6/6 12/3/3 32/27/34
f 32/27/34 33/26/33 27/29/36
f 28/30/37 37/28/35 32/27/34 30/31/38
f 27/29/36 30/31/38 32/27/34
f 33/26/33 11/2/2 25/11/11 42/32/39
f 34/33/40 10/15/15 9/14/14 35/34/41
f 36/35/42 35/34/41 9/14/14 8/17/17
s 3
f 19/18/18 7/6/21 37/28/43 38/36/44
s 1
f 27/29/36 41/37/45 40/38/46 30/31/38
f 30/31/38 40/38/46 39/39/47 28/30/37
f 33/26/33 42/32/39 41/37/45 27/29/36
f 35/34/41 31/40/48 26/41/49
f 29/42/50 31/40/48 35/34/41 36/35/42
s 3
f 38/36/44 37/28/43 28/30/51 39/39/52
s 1
f 26/41/49 34/33/40 35/34/41
s 3
f 8/17/30 19/18/18 38/36/44 36/35/53
f 36/35/53 38/36/44 39/39/52 29/42/54
s 1
f 40/38/46 31/40/48 29/42/50 39/39/47
f 41/37/45 26/41/49 31/40/48 40/38/46
f 42/32/39 34/33/40 26/41/49 41/37/45
f 25/11/11 10/15/15 34/33/40 42/32/39
