# This file uses centimeters as units for non-parametric coordinates.

g default
v 0.110094 -1.539907 -0.063563
v 0.063563 -1.539907 -0.110094
v 0.000000 -1.539907 -0.127125
v -0.063563 -1.539907 -0.110094
v -0.110094 -1.539907 -0.063563
v -0.127125 -1.539907 0.000000
v -0.110094 -1.539907 0.063563
v -0.063563 -1.539907 0.110094
v 0.000000 -1.539907 0.127125
v 0.063563 -1.539907 0.110094
v 0.110094 -1.539907 0.063563
v 0.127125 -1.539907 0.000000
v 0.231077 0.000000 -0.133413
v 0.133413 0.000000 -0.231077
v 0.000000 0.000000 -0.266825
v -0.133413 0.000000 -0.231077
v -0.231077 0.000000 -0.133413
v -0.266825 0.000000 0.000000
v -0.231077 0.000000 0.133413
v -0.133413 0.000000 0.231077
v 0.000000 0.000000 0.266825
v 0.133413 0.000000 0.231077
v 0.231077 0.000000 0.133413
v 0.266825 0.000000 0.000000
v 0.000000 0.000000 0.000000
v -0.559006 -0.383551 0.322742
v -0.645484 -0.383551 0.000000
v -0.559006 -0.383551 -0.322742
v -0.322742 -0.383551 -0.559006
v 0.000000 -0.383551 -0.645484
v 0.322742 -0.383551 -0.559006
v 0.559006 -0.383551 -0.322742
v 0.645484 -0.383551 0.000000
v 0.559006 -0.383551 0.322742
v 0.322742 -0.383551 0.559006
v 0.000000 -0.383551 0.645484
v -0.322742 -0.383551 0.559006
v -0.247524 -1.412172 0.428724
v -0.428724 -1.412172 0.247524
v -0.495049 -1.412172 0.000000
v -0.428724 -1.412172 -0.247524
v -0.247524 -1.412172 -0.428724
v 0.000000 -1.412172 -0.495049
v 0.247524 -1.412172 -0.428724
v 0.428724 -1.412172 -0.247524
v 0.495049 -1.412172 0.000000
v 0.428724 -1.412172 0.247524
v 0.247524 -1.412172 0.428724
v 0.000000 -1.412172 0.495049
v 0.119072 -0.111370 0.206238
v 0.000000 -0.111370 0.238144
v -0.119072 -0.111370 0.206238
v -0.206238 -0.111370 0.119072
v -0.238144 -0.111370 0.000000
v -0.206238 -0.111370 -0.119072
v -0.119072 -0.111370 -0.206238
v 0.000000 -0.111370 -0.238144
v 0.119072 -0.111370 -0.206238
v 0.206238 -0.111370 -0.119072
v 0.238144 -0.111370 0.000000
v 0.206238 -0.111370 0.119072
v -0.285551 -0.216652 0.494590
v -0.494590 -0.216652 0.285551
v -0.571103 -0.216652 0.000000
v -0.494590 -0.216652 -0.285551
v -0.285551 -0.216652 -0.494590
v 0.000000 -0.216652 -0.571103
v 0.285551 -0.216652 -0.494590
v 0.494590 -0.216652 -0.285551
v 0.571103 -0.216652 0.000000
v 0.494590 -0.216652 0.285551
v 0.285551 -0.216652 0.494590
v 0.000000 -0.216652 0.571103
v 0.195506 -1.681208 -0.112875
v 0.112875 -1.681208 -0.195506
v 0.000000 -1.788613 0.000000
v 0.000000 -1.681208 -0.225751
v -0.112875 -1.681208 -0.195506
v -0.195506 -1.681208 -0.112875
v -0.225751 -1.681208 0.000000
v -0.195506 -1.681208 0.112875
v -0.112875 -1.681208 0.195506
v 0.000000 -1.681208 0.225751
v 0.112875 -1.681208 0.195506
v 0.195506 -1.681208 0.112875
v 0.225751 -1.681208 0.000000
vt 0.635316 0.078125
vt 0.578125 0.020934
vt 0.500000 0.000000
vt 0.421875 0.020934
vt 0.364684 0.078125
vt 0.343750 0.156250
vt 0.364684 0.234375
vt 0.421875 0.291566
vt 0.500000 0.312500
vt 0.578125 0.291566
vt 0.635316 0.234375
vt 0.656250 0.156250
vt 0.375000 0.312500
vt 0.395833 0.312500
vt 0.416667 0.312500
vt 0.437500 0.312500
vt 0.458333 0.312500
vt 0.479167 0.312500
vt 0.500000 0.312500
vt 0.520833 0.312500
vt 0.541667 0.312500
vt 0.562500 0.312500
vt 0.583333 0.312500
vt 0.604167 0.312500
vt 0.625000 0.312500
vt 0.375000 0.688440
vt 0.395833 0.688440
vt 0.416667 0.688440
vt 0.437500 0.688440
vt 0.458333 0.688440
vt 0.479167 0.688440
vt 0.500000 0.688440
vt 0.520833 0.688440
vt 0.541667 0.688440
vt 0.562500 0.688440
vt 0.583333 0.688440
vt 0.604167 0.688440
vt 0.625000 0.688440
vt 0.635316 0.765625
vt 0.578125 0.708434
vt 0.500000 0.687500
vt 0.421875 0.708434
vt 0.364684 0.765625
vt 0.343750 0.843750
vt 0.364684 0.921875
vt 0.421875 0.979066
vt 0.500000 1.000000
vt 0.578125 0.979066
vt 0.635316 0.921875
vt 0.656250 0.843750
vt 0.500000 0.150000
vt 0.500000 0.837500
vt 0.500000 0.615473
vt 0.479167 0.615473
vt 0.458333 0.615473
vt 0.437500 0.615473
vt 0.416667 0.615473
vt 0.395833 0.615473
vt 0.625000 0.615473
vt 0.375000 0.615473
vt 0.604167 0.615473
vt 0.583333 0.615473
vt 0.562500 0.615473
vt 0.541667 0.615473
vt 0.520833 0.615473
vt 0.520833 0.369596
vt 0.500000 0.369596
vt 0.479167 0.369596
vt 0.458333 0.369596
vt 0.437500 0.369596
vt 0.416667 0.369596
vt 0.395833 0.369596
vt 0.625000 0.369596
vt 0.375000 0.369596
vt 0.604167 0.369596
vt 0.583333 0.369596
vt 0.562500 0.369596
vt 0.541667 0.369596
vt 0.562500 0.654714
vt 0.541667 0.654714
vt 0.520833 0.654714
vt 0.500000 0.654714
vt 0.479167 0.654714
vt 0.458333 0.654714
vt 0.437500 0.654714
vt 0.416667 0.654714
vt 0.395833 0.654714
vt 0.625000 0.654714
vt 0.375000 0.654714
vt 0.604167 0.654714
vt 0.583333 0.654714
vt 0.520833 0.634787
vt 0.500000 0.634787
vt 0.479167 0.634787
vt 0.458333 0.634787
vt 0.437500 0.634787
vt 0.416667 0.634787
vt 0.395833 0.634787
vt 0.625000 0.634787
vt 0.375000 0.634787
vt 0.604167 0.634787
vt 0.583333 0.634787
vt 0.562500 0.634787
vt 0.541667 0.634787
vt 0.578125 0.020934
vt 0.635316 0.078125
vt 0.500000 0.000000
vt 0.421875 0.020934
vt 0.364684 0.078125
vt 0.343750 0.156250
vt 0.364684 0.234375
vt 0.421875 0.291566
vt 0.500000 0.312500
vt 0.578125 0.291566
vt 0.635316 0.234375
vt 0.656250 0.156250
vn 0.239173 -0.941060 -0.239173
vn 0.239173 -0.941060 -0.239173
vn 0.680786 -0.270298 -0.680786
vn 0.680786 -0.270298 -0.680786
vn 0.087543 -0.941060 -0.326716
vn 0.087543 -0.941060 -0.326716
vn 0.249185 -0.270298 -0.929971
vn 0.249185 -0.270298 -0.929971
vn -0.087543 -0.941060 -0.326716
vn -0.087543 -0.941060 -0.326716
vn -0.249185 -0.270298 -0.929971
vn -0.249185 -0.270298 -0.929971
vn -0.239173 -0.941060 -0.239173
vn -0.239173 -0.941060 -0.239173
vn -0.680786 -0.270298 -0.680786
vn -0.680786 -0.270298 -0.680786
vn -0.326716 -0.941060 -0.087544
vn -0.326716 -0.941060 -0.087544
vn -0.929971 -0.270298 -0.249185
vn -0.929971 -0.270298 -0.249185
vn -0.326716 -0.941059 0.087544
vn -0.326716 -0.941060 0.087544
vn -0.929971 -0.270298 0.249185
vn -0.929971 -0.270298 0.249185
vn -0.239173 -0.941060 0.239173
vn -0.239173 -0.941060 0.239173
vn -0.680786 -0.270298 0.680786
vn -0.680786 -0.270298 0.680786
vn -0.087543 -0.941060 0.326716
vn -0.087543 -0.941060 0.326716
vn -0.249185 -0.270298 0.929971
vn -0.249185 -0.270298 0.929971
vn 0.087543 -0.941060 0.326716
vn 0.087543 -0.941060 0.326716
vn 0.249185 -0.270298 0.929971
vn 0.249185 -0.270298 0.929971
vn 0.239173 -0.941060 0.239173
vn 0.239173 -0.941060 0.239173
vn 0.680786 -0.270298 0.680786
vn 0.680786 -0.270298 0.680786
vn 0.326716 -0.941060 0.087544
vn 0.326716 -0.941060 0.087544
vn 0.929971 -0.270298 0.249185
vn 0.929971 -0.270298 0.249185
vn 0.326716 -0.941059 -0.087544
vn 0.326716 -0.941060 -0.087544
vn 0.929971 -0.270298 -0.249185
vn 0.929971 -0.270298 -0.249185
vn 0.214812 -0.903008 -0.372064
vn 0.372065 -0.903008 -0.214812
vn 0.000000 -1.000000 0.000000
vn 0.000000 -0.903009 -0.429623
vn -0.214812 -0.903008 -0.372064
vn -0.372065 -0.903008 -0.214812
vn -0.429623 -0.903008 0.000000
vn -0.372065 -0.903008 0.214812
vn -0.214812 -0.903008 0.372064
vn 0.000000 -0.903009 0.429623
vn 0.214812 -0.903008 0.372064
vn 0.372065 -0.903008 0.214812
vn 0.429623 -0.903008 0.000000
vn 0.000000 1.000000 0.000000
vn 0.000000 1.000000 0.000000
vn 0.000000 1.000000 0.000000
vn 0.000000 1.000000 0.000000
vn 0.000000 1.000000 0.000000
vn 0.000000 1.000000 0.000000
vn 0.000000 1.000000 0.000000
vn 0.000000 1.000000 0.000000
vn 0.000000 1.000000 0.000000
vn 0.000000 1.000000 0.000000
vn 0.000000 1.000000 0.000000
vn 0.000000 1.000000 0.000000
vn 0.000000 1.000000 0.000000
vn -0.964185 -0.060017 0.258352
vn -0.964185 -0.060017 0.258352
vn -0.576512 0.746220 0.332850
vn -0.665699 0.746220 0.000000
vn -0.964185 -0.060017 -0.258352
vn -0.964185 -0.060017 -0.258353
vn -0.576512 0.746220 -0.332850
vn -0.705832 -0.060017 -0.705832
vn -0.705832 -0.060017 -0.705832
vn -0.332850 0.746220 -0.576512
vn -0.258352 -0.060017 -0.964185
vn -0.258352 -0.060017 -0.964185
vn 0.000000 0.746220 -0.665699
vn 0.258352 -0.060017 -0.964185
vn 0.258352 -0.060017 -0.964185
vn 0.332850 0.746220 -0.576512
vn 0.705832 -0.060017 -0.705832
vn 0.705832 -0.060017 -0.705832
vn 0.576512 0.746220 -0.332850
vn 0.964185 -0.060017 -0.258352
vn 0.964185 -0.060017 -0.258352
vn 0.665699 0.746220 -0.000000
vn 0.964185 -0.060017 0.258352
vn 0.964185 -0.060017 0.258353
vn 0.576512 0.746220 0.332850
vn 0.705832 -0.060017 0.705832
vn 0.705832 -0.060017 0.705832
vn 0.332850 0.746220 0.576512
vn 0.258352 -0.060017 0.964185
vn 0.258352 -0.060017 0.964185
vn 0.000000 0.746220 0.665699
vn -0.258352 -0.060017 0.964185
vn -0.258352 -0.060017 0.964185
vn -0.332850 0.746220 0.576512
vn -0.705832 -0.060017 0.705832
vn -0.705832 -0.060017 0.705832
vn 0.000000 -0.249397 0.968401
vn 0.484201 -0.249396 0.838660
vn 0.484201 -0.249396 0.838660
vn 0.000000 -0.249396 0.968401
vn -0.484201 -0.249396 0.838660
vn -0.484201 -0.249396 0.838660
vn -0.838661 -0.249396 0.484201
vn -0.838660 -0.249396 0.484201
vn -0.968401 -0.249396 0.000000
vn -0.968402 -0.249396 0.000000
vn -0.838661 -0.249396 -0.484201
vn -0.838660 -0.249396 -0.484201
vn -0.484201 -0.249396 -0.838660
vn -0.484201 -0.249396 -0.838660
vn 0.000000 -0.249397 -0.968401
vn 0.000000 -0.249396 -0.968401
vn 0.484201 -0.249396 -0.838660
vn 0.484201 -0.249396 -0.838660
vn 0.838661 -0.249396 -0.484201
vn 0.838660 -0.249396 -0.484201
vn 0.968401 -0.249396 0.000000
vn 0.968402 -0.249396 0.000000
vn 0.838661 -0.249396 0.484201
vn 0.838660 -0.249396 0.484201
vn -0.150744 0.953470 0.261096
vn -0.261096 0.953470 0.150744
vn -0.301488 0.953470 0.000000
vn -0.261096 0.953470 -0.150744
vn -0.150744 0.953470 -0.261096
vn 0.000000 0.953470 -0.301488
vn 0.150744 0.953470 -0.261096
vn 0.261096 0.953470 -0.150744
vn 0.301488 0.953470 -0.000000
vn 0.261096 0.953470 0.150744
vn 0.150744 0.953470 0.261096
vn 0.000000 0.953470 0.301488
vn 0.586303 0.559015 -0.586302
vn 0.586303 0.559015 -0.586302
vn 0.586303 0.559016 -0.586302
vn 0.586303 0.559016 -0.586302
vn 0.214601 0.559015 -0.800905
vn 0.214601 0.559015 -0.800905
vn 0.214601 0.559015 -0.800905
vn 0.214601 0.559015 -0.800905
vn -0.214601 0.559015 -0.800905
vn -0.214601 0.559015 -0.800905
vn -0.214601 0.559015 -0.800905
vn -0.214601 0.559015 -0.800905
vn -0.586303 0.559015 -0.586303
vn -0.586303 0.559015 -0.586303
vn -0.586303 0.559015 -0.586303
vn -0.586303 0.559015 -0.586303
vn -0.800905 0.559015 -0.214601
vn -0.800905 0.559015 -0.214601
vn -0.800905 0.559015 -0.214601
vn -0.800905 0.559015 -0.214601
vn -0.800905 0.559015 0.214601
vn -0.800905 0.559015 0.214601
vn -0.800905 0.559015 0.214601
vn -0.800905 0.559015 0.214601
vn -0.586303 0.559015 0.586302
vn -0.586303 0.559015 0.586302
vn -0.586303 0.559016 0.586302
vn -0.586303 0.559016 0.586302
vn -0.214601 0.559015 0.800905
vn -0.214601 0.559015 0.800905
vn -0.214601 0.559015 0.800905
vn -0.214601 0.559015 0.800905
vn 0.214601 0.559015 0.800905
vn 0.214601 0.559015 0.800905
vn 0.214601 0.559015 0.800905
vn 0.214601 0.559015 0.800905
vn 0.586303 0.559015 0.586303
vn 0.586303 0.559015 0.586303
vn 0.586303 0.559015 0.586303
vn 0.586303 0.559015 0.586303
vn 0.800905 0.559015 0.214601
vn 0.800905 0.559015 0.214601
vn 0.800905 0.559015 0.214601
vn 0.800905 0.559015 0.214601
vn 0.800905 0.559015 -0.214601
vn 0.800905 0.559015 -0.214601
vn 0.800905 0.559015 -0.214601
vn 0.800905 0.559015 -0.214601
s 1
g pommel_rapier_cyllindrical_faceted
f 1/13/1 2/14/2 44/72/3 45/74/4
f 2/14/5 3/15/6 43/71/7 44/72/8
f 3/15/9 4/16/10 42/70/11 43/71/12
f 4/16/13 5/17/14 41/69/15 42/70/16
f 5/17/17 6/18/18 40/68/19 41/69/20
f 6/18/21 7/19/22 39/67/23 40/68/24
f 7/19/25 8/20/26 38/66/27 39/67/28
f 8/20/29 9/21/30 49/78/31 38/66/32
f 9/21/33 10/22/34 48/77/35 49/78/36
f 10/22/37 11/23/38 47/76/39 48/77/40
f 11/23/41 12/24/42 46/75/43 47/76/44
f 12/24/45 1/25/46 45/73/47 46/75/48
s 13
f 75/105/49 74/106/50 76/51/51
f 77/107/52 75/105/49 76/51/51
f 78/108/53 77/107/52 76/51/51
f 79/109/54 78/108/53 76/51/51
f 80/110/55 79/109/54 76/51/51
f 81/111/56 80/110/55 76/51/51
f 82/112/57 81/111/56 76/51/51
f 83/113/58 82/112/57 76/51/51
f 84/114/59 83/113/58 76/51/51
f 85/115/60 84/114/59 76/51/51
f 86/116/61 85/115/60 76/51/51
f 74/106/50 86/116/61 76/51/51
s 14
f 13/49/62 14/48/63 25/52/64
f 14/48/63 15/47/65 25/52/64
f 15/47/65 16/46/66 25/52/64
f 16/46/66 17/45/67 25/52/64
f 17/45/67 18/44/68 25/52/64
f 18/44/68 19/43/69 25/52/64
f 19/43/69 20/42/70 25/52/64
f 20/42/70 21/41/71 25/52/64
f 21/41/71 22/40/72 25/52/64
f 22/40/72 23/39/73 25/52/64
f 23/39/73 24/50/74 25/52/64
f 24/50/74 13/49/62 25/52/64
s 1
f 27/54/75 26/53/76 63/93/77 64/94/78
f 28/55/79 27/54/80 64/94/78 65/95/81
f 29/56/82 28/55/83 65/95/81 66/96/84
f 30/57/85 29/56/86 66/96/84 67/97/87
f 31/58/88 30/57/89 67/97/87 68/98/90
f 32/60/91 31/58/92 68/98/90 69/100/93
f 33/61/94 32/59/95 69/99/93 70/101/96
f 34/62/97 33/61/98 70/101/96 71/102/99
f 35/63/100 34/62/101 71/102/99 72/103/102
f 36/64/103 35/63/104 72/103/102 73/104/105
f 37/65/106 36/64/107 73/104/105 62/92/108
f 26/53/109 37/65/110 62/92/108 63/93/77
f 39/67/28 38/66/27 37/65/110 26/53/109
f 40/68/24 39/67/23 26/53/76 27/54/75
f 41/69/20 40/68/19 27/54/80 28/55/79
f 42/70/16 41/69/15 28/55/83 29/56/82
f 43/71/12 42/70/11 29/56/86 30/57/85
f 44/72/8 43/71/7 30/57/89 31/58/88
f 45/74/4 44/72/3 31/58/92 32/60/91
f 46/75/48 45/73/47 32/59/95 33/61/94
f 47/76/44 46/75/43 33/61/98 34/62/97
f 48/77/40 47/76/39 34/62/101 35/63/100
f 49/78/36 48/77/35 35/63/104 36/64/103
f 38/66/32 49/78/31 36/64/107 37/65/106
s 15
f 51/80/111 50/79/112 22/35/113 21/34/114
f 52/81/115 51/80/111 21/34/114 20/33/116
f 53/82/117 52/81/115 20/33/116 19/32/118
f 54/83/119 53/82/117 19/32/118 18/31/120
f 55/84/121 54/83/119 18/31/120 17/30/122
f 56/85/123 55/84/121 17/30/122 16/29/124
f 57/86/125 56/85/123 16/29/124 15/28/126
f 58/87/127 57/86/125 15/28/126 14/27/128
f 59/89/129 58/87/127 14/27/128 13/26/130
f 60/90/131 59/88/129 13/38/130 24/37/132
f 61/91/133 60/90/131 24/37/132 23/36/134
f 50/79/112 61/91/133 23/36/134 22/35/113
s 1
f 63/93/77 62/92/108 52/81/135 53/82/136
f 64/94/78 63/93/77 53/82/136 54/83/137
f 65/95/81 64/94/78 54/83/137 55/84/138
f 66/96/84 65/95/81 55/84/138 56/85/139
f 67/97/87 66/96/84 56/85/139 57/86/140
f 68/98/90 67/97/87 57/86/140 58/87/141
f 69/100/93 68/98/90 58/87/141 59/89/142
f 70/101/96 69/99/93 59/88/142 60/90/143
f 71/102/99 70/101/96 60/90/143 61/91/144
f 72/103/102 71/102/99 61/91/144 50/79/145
f 73/104/105 72/103/102 50/79/145 51/80/146
f 62/92/108 73/104/105 51/80/146 52/81/135
s off
f 2/2/147 1/1/148 74/106/149 75/105/150
f 3/3/151 2/2/152 75/105/153 77/107/154
f 4/4/155 3/3/156 77/107/157 78/108/158
f 5/5/159 4/4/160 78/108/161 79/109/162
f 6/6/163 5/5/164 79/109/165 80/110/166
f 7/7/167 6/6/168 80/110/169 81/111/170
f 8/8/171 7/7/172 81/111/173 82/112/174
f 9/9/175 8/8/176 82/112/177 83/113/178
f 10/10/179 9/9/180 83/113/181 84/114/182
f 11/11/183 10/10/184 84/114/185 85/115/186
f 12/12/187 11/11/188 85/115/189 86/116/190
f 1/1/191 12/12/192 86/116/193 74/106/194
