# This file uses centimeters as units for non-parametric coordinates.

g default
v 0.714762 -0.181935 -0.281762
v 0.261621 0.079686 -0.281762
v -0.261621 0.079686 -0.281762
v -0.714762 -0.181935 -0.281762
v -0.976383 -0.635076 -0.281762
v -0.976383 -1.158318 -0.281762
v -0.714762 -1.611459 -0.281762
v -0.261621 -1.873080 -0.281762
v 0.261621 -1.873080 -0.281762
v 0.714762 -1.611459 -0.281762
v 0.976383 -1.158318 -0.281762
v 0.976383 -0.635076 -0.281762
v 0.498822 -0.397875 -0.355540
v 0.182582 -0.215293 -0.355540
v -0.182582 -0.215293 -0.355540
v -0.498822 -0.397875 -0.355540
v -0.681404 -0.714115 -0.355540
v -0.681404 -1.079279 -0.355540
v -0.498822 -1.395519 -0.355540
v -0.182582 -1.578101 -0.355540
v 0.182582 -1.578101 -0.355540
v 0.498822 -1.395519 -0.355540
v 0.681404 -1.079279 -0.355540
v 0.681404 -0.714115 -0.355540
v 0.337475 -0.559222 -0.612261
v 0.123524 -0.435698 -0.612261
v -0.123524 -0.435698 -0.612261
v -0.337475 -0.559222 -0.612261
v -0.460999 -0.773173 -0.612261
v -0.460999 -1.020221 -0.612261
v -0.337475 -1.234172 -0.612261
v -0.123524 -1.357696 -0.612261
v 0.123524 -1.357696 -0.612261
v 0.337475 -1.234172 -0.612261
v 0.460999 -1.020221 -0.612261
v 0.460999 -0.773173 -0.612261
v 0.271251 -0.625446 -0.612261
v 0.099285 -0.526161 -0.612261
v -0.000000 -0.896697 -0.348326
v -0.099285 -0.526161 -0.612261
v -0.271251 -0.625446 -0.612261
v -0.370536 -0.797412 -0.612261
v -0.370536 -0.995982 -0.612261
v -0.271251 -1.167948 -0.612261
v -0.099285 -1.267233 -0.612261
v 0.099285 -1.267233 -0.612261
v 0.271251 -1.167948 -0.612261
v 0.370536 -0.995982 -0.612261
v 0.370536 -0.797412 -0.612261
v 0.165693 -2.312675 -0.182980
v -0.165693 -2.312675 -0.182980
v 0.714762 -0.181935 0.281762
v 0.261621 0.079686 0.281762
v -0.261621 0.079686 0.281762
v -0.714762 -0.181935 0.281762
v -0.976383 -0.635076 0.281762
v -0.976383 -1.158318 0.281762
v -0.714762 -1.611459 0.281762
v -0.261621 -1.873080 0.281762
v 0.261621 -1.873080 0.281762
v 0.714762 -1.611459 0.281762
v 0.976383 -1.158318 0.281762
v 0.976383 -0.635076 0.281762
v 0.498822 -0.397875 0.355540
v 0.182582 -0.215293 0.355540
v -0.182582 -0.215293 0.355540
v -0.498822 -0.397875 0.355540
v -0.681404 -0.714115 0.355540
v -0.681404 -1.079279 0.355540
v -0.498822 -1.395519 0.355540
v -0.182582 -1.578101 0.355540
v 0.182582 -1.578101 0.355540
v 0.498822 -1.395519 0.355540
v 0.681404 -1.079279 0.355540
v 0.681404 -0.714115 0.355540
v 0.337475 -0.559222 0.612261
v 0.123524 -0.435698 0.612261
v -0.123524 -0.435698 0.612261
v -0.337475 -0.559222 0.612261
v -0.460999 -0.773173 0.612261
v -0.460999 -1.020221 0.612261
v -0.337475 -1.234172 0.612261
v -0.123524 -1.357696 0.612261
v 0.123524 -1.357696 0.612261
v 0.337475 -1.234172 0.612261
v 0.460999 -1.020221 0.612261
v 0.460999 -0.773173 0.612261
v 0.271251 -0.625446 0.612261
v 0.099285 -0.526161 0.612261
v -0.000000 -0.896697 0.348326
v -0.099285 -0.526161 0.612261
v -0.271251 -0.625446 0.612261
v -0.370536 -0.797412 0.612261
v -0.370536 -0.995982 0.612261
v -0.271251 -1.167948 0.612261
v -0.099285 -1.267233 0.612261
v 0.099285 -1.267233 0.612261
v 0.271251 -1.167948 0.612261
v 0.370536 -0.995982 0.612261
v 0.370536 -0.797412 0.612261
v 0.165693 -2.312675 0.182980
v -0.165693 -2.312675 0.182980
vt 0.375000 0.688440
vt 0.395833 0.688440
vt 0.416667 0.688440
vt 0.437500 0.688440
vt 0.458333 0.688440
vt 0.479167 0.688440
vt 0.500000 0.688440
vt 0.520833 0.688440
vt 0.541667 0.688440
vt 0.562500 0.688440
vt 0.583333 0.688440
vt 0.604167 0.688440
vt 0.625000 0.688440
vt 0.635316 0.765625
vt 0.578125 0.708434
vt 0.500000 0.687500
vt 0.421875 0.708434
vt 0.364684 0.765625
vt 0.343750 0.843750
vt 0.364684 0.921875
vt 0.421875 0.979066
vt 0.500000 1.000000
vt 0.578125 0.979066
vt 0.635316 0.921875
vt 0.656250 0.843750
vt 0.500000 0.837500
vt 0.635316 0.921875
vt 0.578125 0.979066
vt 0.500000 1.000000
vt 0.421875 0.979066
vt 0.364684 0.921875
vt 0.343750 0.843750
vt 0.364684 0.765625
vt 0.421875 0.708434
vt 0.500000 0.687500
vt 0.578125 0.708434
vt 0.635316 0.765625
vt 0.656250 0.843750
vt 0.635316 0.921875
vt 0.578125 0.979066
vt 0.500000 1.000000
vt 0.421875 0.979066
vt 0.364684 0.921875
vt 0.343750 0.843750
vt 0.364684 0.765625
vt 0.421875 0.708434
vt 0.500000 0.687500
vt 0.578125 0.708434
vt 0.635316 0.765625
vt 0.656250 0.843750
vt 0.635316 0.921875
vt 0.578125 0.979066
vt 0.500000 1.000000
vt 0.421875 0.979066
vt 0.364684 0.921875
vt 0.343750 0.843750
vt 0.364684 0.765625
vt 0.421875 0.708434
vt 0.500000 0.687500
vt 0.578125 0.708434
vt 0.635316 0.765625
vt 0.656250 0.843750
vt 0.541667 0.688440
vt 0.520833 0.688440
vt 0.395833 0.688440
vt 0.375000 0.688440
vt 0.416667 0.688440
vt 0.437500 0.688440
vt 0.458333 0.688440
vt 0.479167 0.688440
vt 0.500000 0.688440
vt 0.520833 0.688440
vt 0.541667 0.688440
vt 0.520833 0.688440
vt 0.562500 0.688440
vt 0.541667 0.688440
vt 0.583333 0.688440
vt 0.604167 0.688440
vt 0.625000 0.688440
vt 0.635316 0.921875
vt 0.578125 0.979066
vt 0.500000 0.837500
vt 0.500000 1.000000
vt 0.421875 0.979066
vt 0.364684 0.921875
vt 0.343750 0.843750
vt 0.364684 0.765625
vt 0.421875 0.708434
vt 0.500000 0.687500
vt 0.578125 0.708434
vt 0.635316 0.765625
vt 0.656250 0.843750
vt 0.635316 0.921875
vt 0.578125 0.979066
vt 0.578125 0.979066
vt 0.635316 0.921875
vt 0.500000 1.000000
vt 0.500000 1.000000
vt 0.421875 0.979066
vt 0.421875 0.979066
vt 0.364684 0.921875
vt 0.364684 0.921875
vt 0.343750 0.843750
vt 0.343750 0.843750
vt 0.364684 0.765625
vt 0.364684 0.765625
vt 0.421875 0.708434
vt 0.421875 0.708434
vt 0.500000 0.687500
vt 0.500000 0.687500
vt 0.578125 0.708434
vt 0.578125 0.708434
vt 0.635316 0.765625
vt 0.635316 0.765625
vt 0.656250 0.843750
vt 0.656250 0.843750
vt 0.578125 0.979066
vt 0.635316 0.921875
vt 0.500000 1.000000
vt 0.421875 0.979066
vt 0.364684 0.921875
vt 0.343750 0.843750
vt 0.364684 0.765625
vt 0.421875 0.708434
vt 0.500000 0.687500
vt 0.578125 0.708434
vt 0.635316 0.765625
vt 0.656250 0.843750
vn -0.400809 -0.400809 -0.823835
vn 0.000000 -0.000000 -1.000000
vn -0.146706 -0.547515 -0.823835
vn 0.146706 -0.547515 -0.823835
vn 0.400809 -0.400809 -0.823836
vn 0.547515 -0.146706 -0.823835
vn 0.547515 0.146706 -0.823835
vn 0.400809 0.400809 -0.823835
vn 0.146707 0.547515 -0.823835
vn -0.146707 0.547515 -0.823835
vn -0.400809 0.400809 -0.823835
vn -0.547515 0.146706 -0.823835
vn -0.547515 -0.146706 -0.823835
vn 0.166053 0.166053 -0.972036
vn 0.311896 0.311896 -0.897464
vn 0.114162 0.426058 -0.897464
vn 0.060780 0.226832 -0.972035
vn -0.114162 0.426058 -0.897464
vn -0.060780 0.226832 -0.972036
vn -0.311896 0.311896 -0.897464
vn -0.166053 0.166053 -0.972036
vn -0.426058 0.114162 -0.897464
vn -0.226832 0.060780 -0.972035
vn -0.426058 -0.114162 -0.897464
vn -0.226832 -0.060780 -0.972035
vn -0.311896 -0.311896 -0.897464
vn -0.166053 -0.166053 -0.972035
vn -0.114162 -0.426058 -0.897464
vn -0.060780 -0.226832 -0.972036
vn 0.114162 -0.426058 -0.897464
vn 0.060780 -0.226832 -0.972036
vn 0.311896 -0.311896 -0.897464
vn 0.166053 -0.166053 -0.972036
vn 0.426058 -0.114162 -0.897464
vn 0.226832 -0.060780 -0.972036
vn 0.426058 0.114162 -0.897464
vn 0.226832 0.060780 -0.972035
vn 0.528516 0.528515 -0.664336
vn 0.193450 0.721965 -0.664337
vn -0.193450 0.721965 -0.664337
vn -0.528515 0.528515 -0.664336
vn -0.721965 0.193450 -0.664337
vn -0.721965 -0.193450 -0.664337
vn -0.528515 -0.528516 -0.664336
vn -0.193450 -0.721965 -0.664337
vn 0.193450 -0.721965 -0.664336
vn 0.528515 -0.528516 -0.664336
vn 0.721965 -0.193450 -0.664337
vn 0.721965 0.193450 -0.664337
vn 0.000000 0.000000 -1.000000
vn 0.000000 0.000000 -1.000000
vn 0.000000 0.000000 -1.000000
vn 0.000000 0.000000 -1.000000
vn 0.000000 0.000000 -1.000000
vn 0.000000 0.000000 -1.000000
vn 0.000000 0.000000 -1.000000
vn 0.000000 0.000000 -1.000000
vn 0.000000 0.000000 -1.000000
vn 0.000000 0.000000 -1.000000
vn 0.000000 0.000000 -1.000000
vn 0.000000 0.000000 -1.000000
vn -0.000000 0.000000 -1.000000
vn -0.000000 0.000000 -1.000000
vn -0.000000 0.000000 -1.000000
vn -0.000000 0.000000 -1.000000
vn 0.000000 0.000000 -1.000000
vn 0.000000 0.000000 -1.000000
vn 0.000000 0.000000 -1.000000
vn 0.000000 0.000000 -1.000000
vn 0.000000 0.000000 -1.000000
vn 0.000000 0.000000 -1.000000
vn 0.000000 0.000000 -1.000000
vn 0.000000 0.000000 -1.000000
vn 0.977008 -0.213201 0.000000
vn 0.977008 -0.213201 0.000000
vn 0.977008 -0.213201 0.000000
vn 0.977008 -0.213201 0.000000
vn 0.000000 -0.219243 -0.975670
vn 0.000000 -0.219243 -0.975670
vn 0.000000 -0.219243 -0.975670
vn 0.000000 -0.219243 -0.975670
vn 0.258819 0.965926 0.000000
vn 0.258819 0.965926 0.000000
vn 0.707107 0.707107 0.000000
vn 0.707107 0.707107 0.000000
vn -0.258819 0.965926 0.000000
vn -0.258819 0.965926 0.000000
vn -0.707107 0.707107 0.000000
vn -0.707107 0.707107 0.000000
vn -0.965926 0.258819 0.000000
vn -0.965926 0.258819 0.000000
vn -0.965926 -0.258819 0.000000
vn -0.965926 -0.258819 0.000000
vn -0.707107 -0.707107 0.000000
vn -0.707107 -0.707107 0.000000
vn -0.500000 -0.866025 0.000000
vn -0.500000 -0.866025 0.000000
vn 0.000000 -1.000000 0.000000
vn 0.000000 -1.000000 0.000000
vn 0.000000 -1.000000 0.000000
vn 0.000000 -1.000000 0.000000
vn 0.707107 -0.707107 0.000000
vn 0.707107 -0.707107 0.000000
vn 0.500000 -0.866025 0.000000
vn 0.500000 -0.866025 0.000000
vn 0.965926 -0.258819 0.000000
vn 0.965926 -0.258819 0.000000
vn 0.965926 0.258819 0.000000
vn 0.965926 0.258819 0.000000
vn -0.400809 -0.400809 0.823836
vn -0.146706 -0.547515 0.823835
vn -0.000000 -0.000000 1.000000
vn 0.146706 -0.547515 0.823835
vn 0.400809 -0.400809 0.823836
vn 0.547515 -0.146706 0.823835
vn 0.547515 0.146706 0.823836
vn 0.400809 0.400809 0.823835
vn 0.146707 0.547515 0.823835
vn -0.146707 0.547515 0.823835
vn -0.400809 0.400809 0.823835
vn -0.547515 0.146706 0.823835
vn -0.547515 -0.146706 0.823835
vn 0.166053 0.166053 0.972036
vn 0.060780 0.226832 0.972035
vn 0.114162 0.426058 0.897464
vn 0.311896 0.311896 0.897464
vn -0.060780 0.226832 0.972036
vn -0.114162 0.426058 0.897464
vn -0.166053 0.166053 0.972035
vn -0.311896 0.311896 0.897464
vn -0.226832 0.060780 0.972035
vn -0.426058 0.114162 0.897464
vn -0.226832 -0.060780 0.972035
vn -0.426058 -0.114162 0.897464
vn -0.166053 -0.166053 0.972036
vn -0.311896 -0.311896 0.897464
vn -0.060780 -0.226832 0.972036
vn -0.114162 -0.426058 0.897464
vn 0.060780 -0.226832 0.972036
vn 0.114162 -0.426058 0.897464
vn 0.166053 -0.166053 0.972036
vn 0.311896 -0.311896 0.897464
vn 0.226832 -0.060780 0.972036
vn 0.426058 -0.114162 0.897464
vn 0.226832 0.060780 0.972035
vn 0.426058 0.114162 0.897464
vn 0.193450 0.721965 0.664337
vn 0.528516 0.528515 0.664336
vn -0.193450 0.721965 0.664337
vn -0.528515 0.528515 0.664336
vn -0.721965 0.193450 0.664337
vn -0.721965 -0.193450 0.664336
vn -0.528515 -0.528516 0.664336
vn -0.193450 -0.721965 0.664337
vn 0.193450 -0.721965 0.664337
vn 0.528515 -0.528516 0.664336
vn 0.721965 -0.193450 0.664337
vn 0.721965 0.193450 0.664337
vn -0.000000 0.000000 1.000000
vn 0.000000 0.000000 1.000000
vn 0.000000 0.000000 1.000000
vn -0.000000 0.000000 1.000000
vn -0.000000 0.000000 1.000000
vn -0.000000 0.000000 1.000000
vn 0.000000 0.000000 1.000000
vn -0.000000 0.000000 1.000000
vn 0.000000 0.000000 1.000000
vn 0.000000 0.000000 1.000000
vn 0.000000 0.000000 1.000000
vn 0.000000 0.000000 1.000000
vn -0.000000 0.000000 1.000000
vn -0.000000 0.000000 1.000000
vn -0.000000 0.000000 1.000000
vn -0.000000 0.000000 1.000000
vn 0.000000 0.000000 1.000000
vn 0.000000 0.000000 1.000000
vn 0.000000 0.000000 1.000000
vn 0.000000 0.000000 1.000000
vn -0.000000 0.000000 1.000000
vn -0.000000 0.000000 1.000000
vn -0.000000 0.000000 1.000000
vn -0.000000 0.000000 1.000000
vn 0.000000 -0.219243 0.975670
vn 0.000000 -0.219243 0.975670
vn 0.000000 -0.219243 0.975670
vn 0.000000 -0.219243 0.975670
vn -0.977008 -0.213201 0.000000
vn -0.977008 -0.213201 0.000000
vn -0.977008 -0.213201 0.000000
vn -0.977008 -0.213201 0.000000
s 1
g pommel_oakeshott_type_k
f 37/51/1 39/26/2 38/52/3
f 38/52/3 39/26/2 40/53/4
f 40/53/4 39/26/2 41/54/5
f 41/54/5 39/26/2 42/55/6
f 42/55/6 39/26/2 43/56/7
f 43/56/7 39/26/2 44/57/8
f 44/57/8 39/26/2 45/58/9
f 45/58/9 39/26/2 46/59/10
f 46/59/10 39/26/2 47/60/11
f 47/60/11 39/26/2 48/61/12
f 48/61/12 39/26/2 49/62/13
f 49/62/13 39/26/2 37/51/1
s 2
f 1/24/14 13/27/15 14/28/16 2/23/17
f 2/23/17 14/28/16 15/29/18 3/22/19
f 3/22/19 15/29/18 16/30/20 4/21/21
f 4/21/21 16/30/20 17/31/22 5/20/23
f 5/20/23 17/31/22 18/32/24 6/19/25
f 6/19/25 18/32/24 19/33/26 7/18/27
f 7/18/27 19/33/26 20/34/28 8/17/29
f 8/17/29 20/34/28 21/35/30 9/16/31
f 9/16/31 21/35/30 22/36/32 10/15/33
f 10/15/33 22/36/32 23/37/34 11/14/35
f 11/14/35 23/37/34 24/38/36 12/25/37
f 12/25/37 24/38/36 13/27/15 1/24/14
f 13/27/15 25/39/38 26/40/39 14/28/16
f 14/28/16 26/40/39 27/41/40 15/29/18
f 15/29/18 27/41/40 28/42/41 16/30/20
f 16/30/20 28/42/41 29/43/42 17/31/22
f 17/31/22 29/43/42 30/44/43 18/32/24
f 18/32/24 30/44/43 31/45/44 19/33/26
f 19/33/26 31/45/44 32/46/45 20/34/28
f 20/34/28 32/46/45 33/47/46 21/35/30
f 21/35/30 33/47/46 34/48/47 22/36/32
f 22/36/32 34/48/47 35/49/48 23/37/34
f 23/37/34 35/49/48 36/50/49 24/38/36
f 24/38/36 36/50/49 25/39/38 13/27/15
s 3
f 25/39/50 37/51/51 38/52/52 26/40/53
f 26/40/53 38/52/52 40/53/54 27/41/55
f 27/41/55 40/53/54 41/54/56 28/42/57
f 28/42/57 41/54/56 42/55/58 29/43/59
f 29/43/59 42/55/58 43/56/60 30/44/61
f 30/44/61 43/56/60 44/57/62 31/45/63
f 31/45/63 44/57/62 45/58/64 32/46/65
f 32/46/65 45/58/64 46/59/66 33/47/67
f 33/47/67 46/59/66 47/60/68 34/48/69
f 34/48/69 47/60/68 48/61/70 35/49/71
f 35/49/71 48/61/70 49/62/72 36/50/73
f 36/50/73 49/62/72 37/51/51 25/39/50
s off
f 50/63/74 9/9/75 60/76/76 101/73/77
f 9/9/78 50/63/79 51/64/80 8/8/81
s 4
f 2/2/82 53/65/83 52/66/84 1/1/85
f 3/3/86 54/67/87 53/65/83 2/2/82
f 4/4/88 55/68/89 54/67/87 3/3/86
f 5/5/90 56/69/91 55/68/89 4/4/88
f 6/6/92 57/70/93 56/69/91 5/5/90
f 7/7/94 58/71/95 57/70/93 6/6/92
f 8/8/96 59/72/97 58/71/95 7/7/94
s off
f 50/63/98 101/73/99 102/74/100 51/64/101
s 4
f 10/10/102 61/75/103 60/76/104 9/9/105
f 11/11/106 62/77/107 61/75/103 10/10/102
f 12/12/108 63/78/109 62/77/107 11/11/106
f 1/13/85 52/79/84 63/78/109 12/12/108
s 6
f 88/80/110 89/81/111 90/82/112
f 89/81/111 91/83/113 90/82/112
f 91/83/113 92/84/114 90/82/112
f 92/84/114 93/85/115 90/82/112
f 93/85/115 94/86/116 90/82/112
f 94/86/116 95/87/117 90/82/112
f 95/87/117 96/88/118 90/82/112
f 96/88/118 97/89/119 90/82/112
f 97/89/119 98/90/120 90/82/112
f 98/90/120 99/91/121 90/82/112
f 99/91/121 100/92/122 90/82/112
f 100/92/122 88/80/110 90/82/112
s 7
f 52/93/123 53/94/124 65/95/125 64/96/126
f 53/94/124 54/97/127 66/98/128 65/95/125
f 54/97/127 55/99/129 67/100/130 66/98/128
f 55/99/129 56/101/131 68/102/132 67/100/130
f 56/101/131 57/103/133 69/104/134 68/102/132
f 57/103/133 58/105/135 70/106/136 69/104/134
f 58/105/135 59/107/137 71/108/138 70/106/136
f 59/107/137 60/109/139 72/110/140 71/108/138
f 60/109/139 61/111/141 73/112/142 72/110/140
f 61/111/141 62/113/143 74/114/144 73/112/142
f 62/113/143 63/115/145 75/116/146 74/114/144
f 63/115/145 52/93/123 64/96/126 75/116/146
f 64/96/126 65/95/125 77/117/147 76/118/148
f 65/95/125 66/98/128 78/119/149 77/117/147
f 66/98/128 67/100/130 79/120/150 78/119/149
f 67/100/130 68/102/132 80/121/151 79/120/150
f 68/102/132 69/104/134 81/122/152 80/121/151
f 69/104/134 70/106/136 82/123/153 81/122/152
f 70/106/136 71/108/138 83/124/154 82/123/153
f 71/108/138 72/110/140 84/125/155 83/124/154
f 72/110/140 73/112/142 85/126/156 84/125/155
f 73/112/142 74/114/144 86/127/157 85/126/156
f 74/114/144 75/116/146 87/128/158 86/127/157
f 75/116/146 64/96/126 76/118/148 87/128/158
s 8
f 76/118/159 77/117/160 89/81/161 88/80/162
f 77/117/160 78/119/163 91/83/164 89/81/161
f 78/119/163 79/120/165 92/84/166 91/83/164
f 79/120/165 80/121/167 93/85/168 92/84/166
f 80/121/167 81/122/169 94/86/170 93/85/168
f 81/122/169 82/123/171 95/87/172 94/86/170
f 82/123/171 83/124/173 96/88/174 95/87/172
f 83/124/173 84/125/175 97/89/176 96/88/174
f 84/125/175 85/126/177 98/90/178 97/89/176
f 85/126/177 86/127/179 99/91/180 98/90/178
f 86/127/179 87/128/181 100/92/182 99/91/180
f 87/128/181 76/118/159 88/80/162 100/92/182
s off
f 60/76/183 59/72/184 102/74/185 101/73/186
f 51/64/187 102/74/188 59/72/189 8/8/190
