# This file uses centimeters as units for non-parametric coordinates.

g default
v -0.000050 -2.953450 0.102346
v -0.000050 -2.953450 -0.102346
v 0.000008 -0.083227 -0.520963
v 0.000008 -0.083227 0.520963
v 0.000008 0.000000 0.501109
v 0.000008 0.000000 -0.501109
v -0.564571 -0.083227 0.000000
v 0.543036 0.000000 0.000000
v 0.000008 0.000000 -0.000000
v 0.564571 -0.083227 0.000000
v -0.543036 0.000000 0.000000
v -0.121485 -2.930292 0.017424
v -0.073009 -2.946580 0.083004
v -0.836134 -1.511466 0.571549
v -0.889687 -1.512169 0.501859
v -0.884832 -1.606008 0.498621
v -0.829443 -1.607292 0.569163
v 0.073004 -2.946569 0.082995
v 0.121485 -2.930292 0.017424
v 0.889687 -1.512169 0.501859
v 0.836134 -1.511466 0.571550
v 0.829443 -1.607292 0.569164
v 0.884832 -1.606008 0.498621
v 0.073004 -2.946569 -0.082995
v 0.121485 -2.930292 -0.017424
v 0.836134 -1.511466 -0.571550
v 0.889687 -1.512169 -0.501859
v 0.884832 -1.606008 -0.498621
v 0.829443 -1.607292 -0.569164
v 0.000044 -1.511209 0.813283
v 0.000042 -1.607154 0.808230
v -0.889687 -1.512169 -0.501859
v -0.836134 -1.511466 -0.571549
v -0.829443 -1.607292 -0.569163
v -0.884832 -1.606008 -0.498621
v 0.000044 -1.511209 -0.813283
v 0.000042 -1.607154 -0.808230
v -0.073009 -2.946580 -0.083004
v -0.121485 -2.930292 -0.017424
v 0.438400 -0.083227 0.297617
v 0.387663 -0.083227 0.369078
v 0.422132 0.000000 0.284581
v 0.373871 0.000000 0.354467
v -0.406376 -0.314345 0.188971
v -0.389189 -0.389985 0.171902
v -0.338259 -0.390153 0.246554
v -0.349632 -0.300944 0.255199
v -0.349632 -0.300944 -0.255199
v -0.338259 -0.390153 -0.246554
v -0.389189 -0.389985 -0.171902
v -0.406376 -0.314345 -0.188971
v -0.000017 -0.302143 0.391282
v -0.000019 -0.390944 0.375746
v -0.438400 -0.083227 0.297617
v -0.387663 -0.083227 0.369078
v -0.387663 -0.083227 -0.369078
v -0.438400 -0.083227 -0.297617
v -0.422132 0.000000 -0.284581
v -0.373871 0.000000 -0.354466
v -0.422132 0.000000 0.284581
v -0.373871 0.000000 0.354467
v 0.406376 -0.314345 -0.188971
v 0.389189 -0.389985 -0.171902
v 0.338259 -0.390153 -0.246552
v 0.349630 -0.300944 -0.255197
v 0.349630 -0.300944 0.255197
v 0.338259 -0.390153 0.246552
v 0.389189 -0.389985 0.171902
v 0.406376 -0.314345 0.188971
v 0.387663 -0.083227 -0.369078
v 0.438400 -0.083227 -0.297617
v 0.373871 0.000000 -0.354467
v 0.422132 0.000000 -0.284581
v -0.000017 -0.302143 -0.391282
v -0.000019 -0.390944 -0.375746
vt 0.500004 1.000000
vt 0.805184 1.000000
vt 0.737236 1.000000
vt 0.710114 1.000000
vt 0.500004 1.000000
vt 0.194816 1.000000
vt 0.289886 1.000000
vt 0.262763 1.000000
vt 0.500004 0.971820
vt 0.717865 0.971820
vt 0.710114 1.000000
vt 0.500004 1.000000
vt 0.271618 0.893567
vt 0.271618 0.893567
vt 0.182713 0.971820
vt 0.282135 0.971820
vt 0.303508 0.898104
vt 0.499990 0.897698
vt 0.289886 1.000000
vt 0.253621 0.971820
vt 0.253621 0.971820
vt 0.262763 1.000000
vt 0.737236 1.000000
vt 0.696491 0.898104
vt 0.728381 0.893567
vt 0.728381 0.893567
vt 0.817287 0.971820
vt 0.746379 0.971820
vt 0.717865 0.971820
vt 0.500004 0.971820
vt 0.696491 0.898104
vt 0.499990 0.897698
vt 0.303508 0.898104
vt 0.282135 0.971820
vt 0.746379 0.971820
vt 0.281278 0.867956
vt 0.281278 0.867956
vt -0.000000 0.487999
vt -0.000000 0.487999
vt 0.499989 0.867631
vt 0.309900 0.867899
vt 0.030096 0.488237
vt 0.500025 0.488324
vt 0.969904 0.488237
vt 0.690100 0.867899
vt 1.000000 0.487999
vt 0.718722 0.867956
vt 0.718722 0.867956
vt 1.000000 0.487999
vt 0.499989 0.867631
vt 0.690100 0.867899
vt 0.969904 0.488237
vt 0.500025 0.488324
vt 0.030096 0.488237
vt 0.309900 0.867899
vt 0.966143 0.455792
vt 0.500023 0.455838
vt 0.997272 0.456226
vt 0.997272 0.456226
vt 0.431726 0.007841
vt 0.431726 0.007841
vt 0.002728 0.456226
vt 0.002728 0.456226
vt 0.458969 0.002326
vt 0.033857 0.455792
vt 0.033857 0.455792
vt 0.458969 0.002326
vt 0.568274 0.007841
vt 0.568274 0.007841
vt 0.541028 0.002330
vt 0.541028 0.002330
vt 0.966143 0.455792
vt 0.499972 0.000000
vt 0.499972 0.000000
vt 0.500023 0.455838
vn 0.000000 1.000000 0.000000
vn 0.169119 0.985596 -0.000000
vn 0.083902 0.995673 -0.039944
vn 0.059012 0.991494 -0.116007
vn -0.000000 0.977487 -0.210996
vn -0.169113 0.985597 0.000000
vn -0.059011 0.991494 -0.116008
vn -0.083899 0.995673 -0.039943
vn 0.000017 -0.325965 0.945382
vn 0.416872 -0.314613 0.852781
vn 0.059012 0.991494 0.116007
vn -0.000000 0.977487 0.210996
vn -0.890289 -0.388645 -0.237361
vn -0.890289 -0.388645 0.237361
vn -0.980752 -0.195256 0.000000
vn -0.416880 -0.314580 0.852790
vn -0.418597 -0.404900 0.812916
vn -0.000013 -0.436694 0.899610
vn -0.059011 0.991494 0.116008
vn -0.870808 -0.132133 -0.473534
vn -0.870808 -0.132134 0.473534
vn -0.083899 0.995673 0.039943
vn 0.083902 0.995673 0.039944
vn 0.418578 -0.404920 0.812915
vn 0.890288 -0.388646 0.237365
vn 0.890288 -0.388646 -0.237365
vn 0.980752 -0.195256 0.000000
vn 0.870806 -0.132136 -0.473537
vn 0.416872 -0.314613 -0.852781
vn 0.000017 -0.325965 -0.945382
vn 0.418579 -0.404920 -0.812916
vn -0.000013 -0.436694 -0.899610
vn -0.418597 -0.404900 -0.812916
vn -0.416880 -0.314580 -0.852790
vn 0.870806 -0.132136 0.473537
vn -0.914452 0.400568 0.057650
vn -0.914452 0.400568 -0.057650
vn -0.924361 0.374830 -0.071127
vn -0.924361 0.374830 0.071127
vn -0.000009 0.360074 0.932924
vn -0.342280 0.362617 0.866806
vn -0.360561 0.345136 0.866532
vn 0.000009 0.337079 0.941476
vn 0.360572 0.345150 0.866521
vn 0.342288 0.362629 0.866798
vn 0.924361 0.374830 -0.071127
vn 0.914451 0.400569 -0.057650
vn 0.914451 0.400569 0.057650
vn 0.924361 0.374830 0.071127
vn -0.000009 0.360074 -0.932924
vn 0.342288 0.362629 -0.866798
vn 0.360572 0.345150 -0.866521
vn 0.000009 0.337079 -0.941476
vn -0.360561 0.345136 -0.866532
vn -0.342280 0.362617 -0.866806
vn 0.353839 -0.439569 0.825577
vn 0.000013 -0.421766 0.906705
vn 0.879962 -0.468795 0.076804
vn 0.879962 -0.468795 -0.076804
vn -0.851850 -0.519742 -0.064961
vn -0.851850 -0.519742 0.064961
vn -0.879964 -0.468792 0.076794
vn -0.879964 -0.468792 -0.076794
vn -0.305345 -0.485473 0.819195
vn -0.353846 -0.439555 0.825582
vn -0.353846 -0.439555 -0.825582
vn -0.305345 -0.485473 -0.819195
vn 0.851847 -0.519746 0.064969
vn 0.851847 -0.519746 -0.064969
vn 0.305340 -0.485498 0.819182
vn 0.305340 -0.485498 -0.819182
vn 0.353839 -0.439569 -0.825577
vn -0.000012 -0.477793 0.878473
vn -0.000012 -0.477793 -0.878473
vn 0.000013 -0.421766 -0.906705
s 1
g pommel_cav_sidesword
f 9/1/1 8/2/2 73/3/3 72/4/4 6/5/5
f 11/6/6 9/1/1 6/5/5 59/7/7 58/8/8
f 4/9/9 41/10/10 43/11/11 5/12/12
f 51/13/13 44/14/14 7/15/15
f 55/16/16 47/17/17 52/18/18 4/9/9
f 61/19/19 55/16/16 4/9/9 5/12/12
f 58/8/8 57/20/20 7/15/15 11/6/6
f 57/20/20 51/13/13 7/15/15
f 7/15/15 44/14/14 54/21/21
f 11/6/6 7/15/15 54/21/21 60/22/22
f 9/1/1 11/6/6 60/22/22 61/19/19 5/12/12
f 8/2/2 9/1/1 5/12/12 43/11/11 42/23/23
f 4/9/9 52/18/18 66/24/24 41/10/10
f 69/25/25 62/26/26 10/27/27
f 71/28/28 73/3/3 8/2/2 10/27/27
f 72/4/4 70/29/29 3/30/30 6/5/5
f 3/30/30 70/29/29 65/31/31 74/32/32
f 74/32/32 48/33/33 56/34/34 3/30/30
f 3/30/30 56/34/34 59/7/7 6/5/5
f 10/27/27 8/2/2 42/23/23 40/35/35
f 40/35/35 69/25/25 10/27/27
f 10/27/27 62/26/26 71/28/28
f 45/36/36 50/37/37 32/38/38 15/39/39
f 53/40/40 46/41/41 14/42/42 30/43/43
f 30/43/43 21/44/44 67/45/45 53/40/40
f 27/46/46 63/47/47 68/48/48 20/49/49
f 75/50/50 64/51/51 26/52/52 36/53/53
f 36/53/53 33/54/54 49/55/55 75/50/50
f 15/39/39 14/42/42 46/41/41 45/36/36
f 21/44/44 20/49/49 68/48/48 67/45/45
f 22/56/56 21/44/44 30/43/43 31/57/57
f 20/49/49 23/58/58 28/59/59 27/46/46
f 27/46/46 26/52/52 64/51/51 63/47/47
f 33/54/54 32/38/38 50/37/37 49/55/55
f 40/35/35 41/10/10 66/24/24 69/25/25
f 41/10/10 40/35/35 42/23/23 43/11/11
f 45/36/36 44/14/14 51/13/13 50/37/37
f 47/17/17 46/41/41 53/40/40 52/18/18
f 44/14/14 47/17/17 55/16/16 54/21/21
f 49/55/55 48/33/33 74/32/32 75/50/50
f 48/33/33 51/13/13 57/20/20 56/34/34
f 52/18/18 53/40/40 67/45/45 66/24/24
f 54/21/21 55/16/16 61/19/19 60/22/22
f 56/34/34 57/20/20 58/8/8 59/7/7
f 63/47/47 62/26/26 69/25/25 68/48/48
f 65/31/31 64/51/51 75/50/50 74/32/32
f 62/26/26 65/31/31 70/29/29 71/28/28
f 71/28/28 70/29/29 72/4/4 73/3/3
f 20/49/49 21/44/44 22/56/56 23/58/58
f 44/14/14 45/36/36 46/41/41 47/17/17
f 48/33/33 49/55/55 50/37/37 51/13/13
f 62/26/26 63/47/47 64/51/51 65/31/31
f 66/24/24 67/45/45 68/48/48 69/25/25
f 39/60/60 12/61/61 16/62/62 35/63/63
f 12/61/61 13/64/64 17/65/65 16/62/62
f 35/63/63 16/62/62 15/39/39 32/38/38
f 30/43/43 14/42/42 17/65/65 31/57/57
f 39/60/60 35/63/63 34/66/66 38/67/67
f 14/42/42 15/39/39 16/62/62 17/65/65
f 35/63/63 32/38/38 33/54/54 34/66/66
f 38/67/67 13/64/64 12/61/61 39/60/60
f 19/68/68 25/69/69 28/59/59 23/58/58
f 22/56/56 18/70/70 19/68/68 23/58/58
f 25/69/69 24/71/71 29/72/72 28/59/59
f 26/52/52 27/46/46 28/59/59 29/72/72
f 18/70/70 1/73/73 2/74/74 24/71/71
f 31/57/57 1/73/73 18/70/70 22/56/56
f 13/64/64 1/73/73 31/57/57 17/65/65
f 24/71/71 2/74/74 37/75/75 29/72/72
f 37/75/75 2/74/74 38/67/67 34/66/66
f 13/64/64 38/67/67 2/74/74 1/73/73
f 36/53/53 26/52/52 29/72/72 37/75/75
f 34/66/66 33/54/54 36/53/53 37/75/75
f 18/70/70 24/71/71 25/69/69 19/68/68
