# This file uses centimeters as units for non-parametric coordinates.

mtllib type-a-pommel.mtl
v -0.941011 -5.347199 -0.183851
v -0.941011 -5.347199 0.183851
v -1.629679 -4.624238 0.146939
v -1.629679 -4.624238 -0.146939
v -1.617666 -4.758897 0.189309
v -1.617666 -4.758897 -0.189309
v 0.000002 -4.407947 0.570616
v 0.000002 -4.407947 -0.570616
v 0.000002 -4.756647 -0.735155
v 0.000002 -5.633591 -0.263420
v 0.000002 -5.633591 0.263420
v 0.000002 -4.756646 0.735154
v -0.734056 -4.723604 0.602228
v -0.191626 -5.619473 0.227892
v -0.191626 -5.619473 -0.227892
v -0.734056 -4.723605 -0.602228
v -0.684984 -4.440876 -0.467440
v -0.684984 -4.440876 0.467440
v 0.000002 -4.374905 0.000000
v -0.764406 -4.407834 0.000000
v -1.703035 -4.591197 0.000000
v -1.689657 -4.750636 0.000000
v -0.941011 -5.375661 0.000000
v -0.213842 -5.747510 0.000000
v 0.000002 -5.761628 0.000000
v 0.941011 -5.347199 -0.183851
v 0.941011 -5.347199 0.183851
v 1.629679 -4.624238 0.146939
v 1.629679 -4.624238 -0.146939
v 1.617666 -4.758897 0.189309
v 1.617666 -4.758897 -0.189309
v 0.734056 -4.723604 0.602228
v 0.191626 -5.619473 0.227892
v 0.191626 -5.619473 -0.227892
v 0.734056 -4.723605 -0.602228
v 0.684984 -4.440876 -0.467440
v 0.684984 -4.440876 0.467440
v 0.764406 -4.407834 0.000000
v 1.703035 -4.591197 0.000000
v 1.689657 -4.750636 0.000000
v 0.941011 -5.375661 0.000000
v 0.213842 -5.747510 0.000000
vt 0.440786 0.250000
vt 0.498840 0.250000
vt 0.498839 0.393271
vt 0.440786 0.393271
vt 0.440786 0.500000
vt 0.498840 0.500000
vt 0.375000 0.250000
vt 0.375000 0.500000
vt 0.375000 0.393271
vt 0.440786 0.134879
vt 0.498840 0.134879
vt 0.440786 1.000000
vt 0.440786 0.856729
vt 0.498840 0.856729
vt 0.498840 1.000000
vt 0.440786 0.750000
vt 0.498840 0.750000
vt 0.498840 0.615121
vt 0.440786 0.615121
vt 0.231729 0.250000
vt 0.231729 0.134879
vt 0.375000 0.134879
vt 0.125000 0.250000
vt 0.125000 0.134879
vt 0.375000 1.000000
vt 0.375000 0.856729
vt 0.375000 0.750000
vt 0.375000 0.615121
vt 0.125000 0.000000
vt 0.231729 0.000000
vt 0.375000 0.000000
vt 0.440786 0.000000
vt 0.498840 0.000000
vt 0.440786 0.250000
vt 0.440786 0.393271
vt 0.498839 0.393271
vt 0.498840 0.250000
vt 0.440786 0.500000
vt 0.498840 0.500000
vt 0.375000 0.250000
vt 0.375000 0.500000
vt 0.375000 0.393271
vt 0.498840 0.134879
vt 0.440786 0.134879
vt 0.440786 1.000000
vt 0.498840 1.000000
vt 0.498840 0.856729
vt 0.440786 0.856729
vt 0.440786 0.750000
vt 0.498840 0.750000
vt 0.498840 0.615121
vt 0.440786 0.615121
vt 0.375000 0.134879
vt 0.231729 0.134879
vt 0.231729 0.250000
vt 0.125000 0.134879
vt 0.125000 0.250000
vt 0.375000 0.856729
vt 0.375000 1.000000
vt 0.375000 0.750000
vt 0.375000 0.615121
vt 0.231729 0.000000
vt 0.125000 0.000000
vt 0.375000 0.000000
vt 0.440786 0.000000
vt 0.498840 0.000000
vn -0.204345 -0.478989 0.853705
vn 0.000001 -0.476079 0.879403
vn 0.000001 -0.020059 0.999799
vn -0.291111 -0.126031 0.948352
vn -0.267279 0.414380 0.869972
vn 0.000000 0.437820 0.899063
vn -0.298471 -0.461457 0.835448
vn -0.382650 0.389553 0.837751
vn -0.411500 -0.022605 0.911130
vn -0.245744 -0.878549 0.409588
vn -0.269376 -0.963035 0.000000
vn 0.000001 -1.000000 -0.000000
vn 0.000001 -0.884873 0.465832
vn -0.204345 -0.478990 -0.853705
vn -0.291111 -0.126032 -0.948351
vn 0.000001 -0.020059 -0.999799
vn 0.000001 -0.476080 -0.879402
vn -0.267279 0.414380 -0.869972
vn 0.000000 0.437821 -0.899063
vn 0.000000 1.000000 0.000000
vn -0.133706 0.991021 0.000000
vn -0.132854 0.984713 0.112652
vn 0.000000 0.997729 0.067352
vn -0.518564 -0.814996 0.258597
vn -0.852705 -0.423662 0.305621
vn -0.895555 -0.444952 0.000000
vn -0.536824 -0.843694 0.000000
vn -0.918685 -0.022503 0.394350
vn -0.999700 -0.024487 0.000001
vn -0.298472 -0.461457 -0.835447
vn -0.411500 -0.022606 -0.911129
vn -0.382650 0.389553 -0.837751
vn -0.217133 0.976142 0.000000
vn -0.214440 0.964034 0.157017
vn 0.000000 0.997729 -0.067352
vn -0.132855 0.984713 -0.112652
vn -0.214440 0.964034 -0.157016
vn -0.918685 -0.022503 -0.394349
vn -0.852705 -0.423662 -0.305621
vn -0.518564 -0.814996 -0.258597
vn -0.245744 -0.878549 -0.409588
vn 0.000001 -0.884873 -0.465832
vn 0.204346 -0.478989 0.853705
vn 0.291111 -0.126031 0.948351
vn 0.267279 0.414380 0.869972
vn 0.298471 -0.461457 0.835448
vn 0.382650 0.389554 0.837751
vn 0.411500 -0.022605 0.911130
vn 0.245745 -0.878549 0.409587
vn 0.269377 -0.963035 -0.000000
vn 0.204346 -0.478990 -0.853705
vn 0.291112 -0.126032 -0.948351
vn 0.267279 0.414379 -0.869972
vn 0.132855 0.984713 0.112652
vn 0.133706 0.991021 0.000000
vn 0.518564 -0.814996 0.258597
vn 0.536824 -0.843694 -0.000000
vn 0.895555 -0.444952 -0.000000
vn 0.852705 -0.423662 0.305621
vn 0.999700 -0.024487 -0.000000
vn 0.918685 -0.022503 0.394349
vn 0.411500 -0.022606 -0.911130
vn 0.298472 -0.461457 -0.835447
vn 0.382650 0.389553 -0.837752
vn 0.214440 0.964034 0.157017
vn 0.217133 0.976142 0.000000
vn 0.132855 0.984713 -0.112652
vn 0.214440 0.964034 -0.157017
vn 0.852705 -0.423662 -0.305621
vn 0.918685 -0.022503 -0.394350
vn 0.518564 -0.814996 -0.258597
vn 0.245745 -0.878549 -0.409587
s 1
usemtl type_a_pommel:initialShadingGroup
f 14/1/1 11/2/2 12/3/3 13/4/4
f 18/5/5 13/4/4 12/3/3 7/6/6
f 13/4/4 2/7/7 14/1/1
f 3/8/8 5/9/9 13/4/4 18/5/5
f 2/7/7 13/4/4 5/9/9
s 2
f 14/1/10 24/10/11 25/11/12 11/2/13
s 3
f 15/12/14 16/13/15 9/14/16 10/15/17
f 17/16/18 8/17/19 9/14/16 16/13/15
s 4
f 19/18/20 20/19/21 18/5/22 7/6/23
s 2
f 2/7/24 5/20/25 22/21/26 23/22/27
f 5/20/25 3/23/28 21/24/29 22/21/26
f 14/1/10 2/7/24 23/22/27 24/10/11
s 3
f 16/13/15 1/25/30 6/26/31
f 4/27/32 17/16/18 16/13/15 6/26/31
s 4
f 20/19/21 21/28/33 3/8/34 18/5/22
s 3
f 1/25/30 16/13/15 15/12/14
s 4
f 8/17/35 17/16/36 20/19/21 19/18/20
f 17/16/36 4/27/37 21/28/33 20/19/21
s 2
f 22/21/26 21/24/29 4/29/38 6/30/39
f 23/22/27 22/21/26 6/30/39 1/31/40
f 24/10/11 23/22/27 1/31/40 15/32/41
f 25/11/12 24/10/11 15/32/41 10/33/42
s 1
f 33/34/43 32/35/44 12/36/3 11/37/2
f 37/38/45 7/39/6 12/36/3 32/35/44
f 32/35/44 33/34/43 27/40/46
f 28/41/47 37/38/45 32/35/44 30/42/48
f 27/40/46 30/42/48 32/35/44
s 2
f 33/34/49 11/37/13 25/43/12 42/44/50
s 3
f 34/45/51 10/46/17 9/47/16 35/48/52
f 36/49/53 35/48/52 9/47/16 8/50/19
s 4
f 19/51/20 7/39/23 37/38/54 38/52/55
s 2
f 27/40/56 41/53/57 40/54/58 30/55/59
f 30/55/59 40/54/58 39/56/60 28/57/61
f 33/34/49 42/44/50 41/53/57 27/40/56
s 3
f 35/48/52 31/58/62 26/59/63
f 29/60/64 31/58/62 35/48/52 36/49/53
s 4
f 38/52/55 37/38/54 28/41/65 39/61/66
s 3
f 26/59/63 34/45/51 35/48/52
s 4
f 8/50/35 19/51/20 38/52/55 36/49/67
f 36/49/67 38/52/55 39/61/66 29/60/68
s 2
f 40/54/58 31/62/69 29/63/70 39/56/60
f 41/53/57 26/64/71 31/62/69 40/54/58
f 42/44/50 34/65/72 26/64/71 41/53/57
f 25/43/12 10/66/42 34/65/72 42/44/50
